<?xml version="1.0" encoding="utf-8"?>
<!-- Generator: Adobe Illustrator 25.0.1, SVG Export Plug-In . SVG Version: 6.00 Build 0)  -->
<svg version="1.1" id="레이어_1" xmlns="http://www.w3.org/2000/svg" xmlns:xlink="http://www.w3.org/1999/xlink" x="0px"
	 y="0px" viewBox="0 0 42.52 42.52" style="enable-background:new 0 0 42.52 42.52;" xml:space="preserve">
<g>
	<path d="M24.2,16.13c-0.11,0.01-0.22,0.02-0.34,0.02c-0.13,0-0.24,0-0.37,0c-0.13,0-0.24,0.03-0.37,0.09
		c-0.18,0-0.37,0.06-0.55,0.18c-0.03,0.03-0.05,0.06-0.05,0.07c0,0.01-0.01,0.03-0.05,0.07c0.15,0.03,0.29,0.06,0.42,0.06
		c0.13,0.03,0.24,0.06,0.37,0.09c0.39,0.09,0.75,0.27,1.08,0.55c0.22,0.13,0.4,0.32,0.55,0.59c0.13,0.3,0.14,0.58,0.05,0.86
		c-0.03,0.09-0.08,0.25-0.16,0.48c-0.08,0.23-0.15,0.38-0.21,0.43c-0.16,0.16-0.35,0.35-0.59,0.59c-0.25,0.25-0.45,0.46-0.59,0.64
		l-0.18,0.18l-0.09,0.13c0,0.03,0.05,0.03,0.14,0.02c0.09-0.01,0.15-0.01,0.18,0.02h0.05c0.22-0.06,0.41-0.11,0.59-0.16
		c0.18-0.05,0.38-0.13,0.59-0.25c0.24-0.16,0.47-0.31,0.7-0.48c0.22-0.17,0.46-0.34,0.7-0.53c0.16-0.13,0.31-0.24,0.48-0.37
		c0.17-0.13,0.33-0.26,0.48-0.41c0.09-0.07,0.19-0.18,0.32-0.37c0.15-0.24,0.24-0.59,0.27-1.06c0.02-0.47-0.03-0.8-0.18-1.02
		c-0.09-0.13-0.19-0.23-0.32-0.32l-0.41-0.27c-0.66-0.31-1.36-0.41-2.08-0.32h-0.05c-0.03,0-0.05,0.03-0.05,0.09v0.08l0.05,0.09
		c0.06,0.13,0.05,0.18-0.05,0.18C24.42,16.11,24.3,16.12,24.2,16.13z"/>
	<path d="M22.81,22.42c0.03,0,0.06-0.01,0.09-0.05v-0.05c0-0.03-0.01-0.06-0.05-0.09c-0.16-0.18-0.26-0.35-0.32-0.5
		c-0.15-0.3-0.19-0.57-0.14-0.81c0.06-0.18,0.1-0.33,0.14-0.46c0.03-0.09,0.06-0.18,0.09-0.27c0.03-0.09,0.06-0.17,0.09-0.23
		c0.15-0.51,0.23-0.98,0.23-1.4c0-0.33-0.08-0.62-0.23-0.86c-0.16-0.22-0.3-0.42-0.43-0.62c-0.14-0.21-0.3-0.38-0.48-0.53
		c-0.24-0.24-0.49-0.46-0.76-0.67c-0.26-0.22-0.54-0.41-0.81-0.59c-0.06-0.06-0.13-0.09-0.18-0.09c-0.09-0.03-0.15-0.01-0.18,0.05
		c0.03,0,0.05,0.03,0.05,0.09c0.24,0.37,0.37,0.8,0.38,1.34c0,0.37-0.03,0.72-0.11,1.06s-0.19,0.68-0.34,1.02
		c0,0.03-0.01,0.06-0.05,0.09c0,0.09-0.05,0.09-0.14,0c-0.25-0.21-0.38-0.48-0.41-0.81c-0.03-0.15-0.05-0.29-0.05-0.39
		c0-0.11-0.01-0.24-0.05-0.39v-0.18c0-0.03-0.01-0.05-0.02-0.05c-0.01,0-0.02-0.01-0.02-0.05c-0.03,0.03-0.06,0.05-0.09,0.05
		c-0.39,0.51-0.67,1.11-0.86,1.77c-0.03,0.15-0.05,0.38-0.05,0.67c0,0.51,0.16,0.92,0.46,1.22c0.5,0.57,1.15,1.02,1.92,1.34
		C21.24,22.35,22.02,22.48,22.81,22.42z"/>
	<path d="M16.88,18.02c0.13-0.15,0.26-0.39,0.43-0.72c0.17-0.33,0.33-0.57,0.48-0.72c0.09-0.09,0.15-0.17,0.18-0.23
		c0.03,0,0.05-0.03,0.05-0.09h-0.05c-0.09,0-0.19,0-0.3,0c-0.11,0-0.21,0.01-0.3,0.05c-0.16,0.06-0.32,0.11-0.5,0.16
		c-0.18,0.05-0.37,0.1-0.55,0.16c-0.24,0.09-0.48,0.19-0.72,0.32c-0.24,0.13-0.48,0.26-0.72,0.41c-0.33,0.25-0.57,0.46-0.72,0.64
		c-0.16,0.18-0.29,0.4-0.41,0.64c-0.42,0.99-0.41,1.78,0.05,2.35c0.06,0.06,0.13,0.13,0.18,0.18c0.06,0.06,0.13,0.13,0.18,0.18
		c0.06,0.06,0.13,0.1,0.18,0.11c0.06,0.01,0.13,0.06,0.18,0.11c0.3,0.16,0.61,0.3,0.9,0.43c0.3,0.14,0.62,0.24,0.95,0.3
		c0.33,0.06,0.65,0.1,0.97,0.14c0.32,0.03,0.64,0.05,0.97,0.05c0.33,0,0.57-0.01,0.72-0.05c0.3,0,0.53-0.02,0.69-0.11v-0.05
		c-0.06-0.03-0.1-0.05-0.11-0.05c-0.01,0-0.06-0.01-0.11-0.05c-0.09-0.03-0.17-0.05-0.25-0.05c-0.08,0-0.16-0.01-0.25-0.05
		c-0.06,0-0.1-0.05-0.14-0.14c0-0.06-0.05-0.13-0.14-0.18l-0.27-0.14l-0.67-0.41c-0.15-0.09-0.37-0.27-0.65-0.55
		c-0.3-0.27-0.47-0.71-0.53-1.31c0-0.26,0.03-0.54,0.09-0.81C16.75,18.29,16.82,18.11,16.88,18.02z"/>
	<path d="M28.88,13.57l0.41,0.41c0.21,0.18,0.48,0.27,0.81,0.27c0.13-0.03,0.24-0.05,0.34-0.05c0.1,0,0.22-0.01,0.34-0.05
		c0.17,0,0.41-0.01,0.7-0.02c0.29-0.01,0.53-0.01,0.74,0.02h0.03v0.09l-0.27,0.55c-0.13,0.18-0.23,0.32-0.32,0.41
		c-0.25,0.17-0.42,0.4-0.55,0.67c-0.16,0.22-0.31,0.41-0.48,0.57c-0.17,0.17-0.34,0.33-0.53,0.48c-0.24,0.22-0.48,0.42-0.72,0.62
		c-0.24,0.21-0.48,0.41-0.72,0.62c-0.94,0.72-1.86,1.54-2.76,2.44c-0.18,0.16-0.37,0.32-0.53,0.48c-0.17,0.17-0.33,0.33-0.48,0.48
		c-0.39,0.39-0.76,0.78-1.11,1.15c-0.34,0.38-0.69,0.78-1.02,1.2l-0.23,0.23c-0.03,0.06-0.06,0.13-0.07,0.18
		c-0.01,0.06-0.03,0.13-0.07,0.18c0,0.16,0.05,0.27,0.14,0.37c0.33,0.24,0.66,0.24,0.99,0c0.09-0.09,0.17-0.15,0.23-0.18
		c0.42-0.42,0.86-0.83,1.29-1.22c0.43-0.39,0.88-0.76,1.34-1.13c0.61-0.46,1.2-0.9,1.79-1.36c0.59-0.46,1.19-0.89,1.79-1.31
		c0.61-0.42,1.22-0.86,1.86-1.31c0.64-0.46,1.26-0.89,1.86-1.31c0.68-0.51,1.38-1.04,2.06-1.56c0.67-0.54,1.35-1.08,2.01-1.66
		c0.72-0.63,1.43-1.27,2.12-1.92c0.69-0.64,1.38-1.28,2.08-1.92l0.09-0.09V9.86l-0.05-0.05c-0.18,0.06-0.31,0.09-0.37,0.09
		c-0.88,0.24-1.75,0.48-2.63,0.72c-0.88,0.24-1.75,0.48-2.63,0.72c-0.13,0.06-0.24,0.1-0.34,0.11c-0.11,0.01-0.22,0.06-0.34,0.11
		c-0.09,0-0.14,0.03-0.14,0.09l0.09,0.09c0.06,0.13,0.03,0.18-0.09,0.18l-0.81,0.14c-0.33,0.06-0.65,0.11-0.95,0.16
		c-0.3,0.05-0.61,0.1-0.9,0.16c-0.39,0.06-0.79,0.13-1.18,0.18c-0.39,0.06-0.79,0.13-1.18,0.18c-0.06,0.03-0.13,0.05-0.21,0.05
		s-0.15,0.01-0.21,0.05v0.05v0.03c0.06,0.06,0.13,0.1,0.18,0.14c0.06,0.03,0.13,0.06,0.18,0.09v0.05c0,0.03-0.01,0.05-0.05,0.05
		c-0.13,0.03-0.24,0.05-0.34,0.05c-0.11,0-0.24,0.01-0.39,0.05c-0.16,0.03-0.31,0.06-0.46,0.07c-0.16,0.01-0.31,0.02-0.46,0.02
		C28.83,13.53,28.84,13.57,28.88,13.57z"/>
	<path d="M13.58,11.77c0.39,0.06,0.67,0.1,0.86,0.14c0.09,0.06,0.17,0.03,0.23-0.09c0.06-0.15,0.09-0.26,0.09-0.34
		s0.03-0.19,0.09-0.34c0.09-0.24,0.18-0.5,0.27-0.76c0.09-0.26,0.18-0.53,0.27-0.76c0.03-0.06,0.06-0.13,0.09-0.18
		c0.03-0.06,0.06-0.13,0.09-0.18c0.06-0.13,0.1-0.19,0.14-0.23c0.13-0.06,0.22-0.08,0.27-0.05l0.18,0.09l0.32,0.32
		c0.15,0.16,0.27,0.26,0.37,0.34c0.09,0.08,0.26,0.21,0.5,0.39l0.55,0.41c0.06,0.06,0.1,0.09,0.14,0.09h0.09v-0.05
		c-0.06-0.16-0.1-0.32-0.14-0.5c-0.03-0.18-0.08-0.35-0.14-0.5c-0.06-0.06-0.06-0.13,0-0.18c0.06,0.03,0.1,0.06,0.11,0.07
		c0.01,0.01,0.06,0.03,0.11,0.07c0.46,0.45,0.9,0.8,1.36,1.04c0.22,0.16,0.42,0.29,0.62,0.39c0.21,0.11,0.4,0.22,0.62,0.34
		c0,0.03,0.03,0.05,0.09,0.05h0.05v-0.05c-0.03-0.06-0.06-0.11-0.09-0.16c-0.03-0.05-0.06-0.1-0.09-0.16l-0.27-0.41V10.5h0.07
		c0.24,0.18,0.49,0.37,0.74,0.53c0.25,0.17,0.51,0.34,0.79,0.53c0.18,0.16,0.37,0.3,0.55,0.43c0.18,0.14,0.37,0.29,0.55,0.43
		c0.26,0.22,0.54,0.41,0.81,0.59c0.26,0.18,0.54,0.39,0.81,0.59c0.24,0.16,0.46,0.3,0.67,0.43c0.21,0.14,0.43,0.29,0.67,0.43
		c0.24,0.16,0.46,0.32,0.67,0.48c0.21,0.17,0.43,0.34,0.67,0.53c0.13,0.07,0.23,0.14,0.32,0.23c0.09,0.09,0.19,0.18,0.32,0.27
		c0.06,0.03,0.11,0.06,0.16,0.09c0.05,0.03,0.1,0.08,0.16,0.14c0.09,0.06,0.18,0.06,0.27,0c0.15-0.06,0.27-0.14,0.37-0.23
		c0.09-0.09,0.18-0.18,0.27-0.27c0.06-0.06,0.06-0.13,0-0.18c-0.06-0.09-0.13-0.17-0.21-0.25c-0.08-0.08-0.15-0.16-0.21-0.25
		c-0.84-0.9-1.7-1.77-2.58-2.6c-0.88-0.83-1.79-1.63-2.76-2.42c-0.81-0.68-1.69-1.38-2.63-2.08c-0.06-0.03-0.1-0.06-0.11-0.09
		c-0.01-0.03-0.06-0.06-0.11-0.09V7.69c0-0.03,0.01-0.05,0.05-0.05h0.37c0.06,0,0.1-0.01,0.14-0.05c0-0.03-0.01-0.06-0.05-0.09
		c-0.06-0.03-0.13-0.08-0.18-0.14c-0.79-0.61-1.52-1.32-2.21-2.17c-0.3-0.39-0.58-0.8-0.86-1.22c-0.26-0.42-0.53-0.84-0.76-1.27
		c-0.18-0.39-0.38-0.78-0.57-1.15c-0.21-0.38-0.39-0.76-0.57-1.15c-0.03-0.07-0.08-0.18-0.14-0.37c-0.03,0-0.06-0.01-0.09-0.05H15.7
		l-0.02,0.05c0,0.03-0.01,0.06-0.02,0.07s-0.02,0.03-0.02,0.07c0,0.3-0.01,0.53-0.05,0.67V1.2c0,0.13-0.03,0.15-0.09,0.09
		c-0.03,0-0.06-0.01-0.07-0.02s-0.06-0.02-0.11-0.02c-0.13,0.33-0.19,0.63-0.23,0.9l-0.27,0.95l-0.27,0.95
		c-0.06,0.16-0.1,0.31-0.11,0.46c-0.01,0.16-0.06,0.31-0.11,0.46L14.04,5.9c-0.06,0.16-0.1,0.32-0.11,0.48
		c-0.01,0.17-0.06,0.33-0.11,0.48l-0.27,0.95c-0.06,0.16-0.1,0.31-0.11,0.46c-0.01,0.16-0.06,0.31-0.11,0.46l-0.27,0.95
		c-0.06,0.16-0.1,0.32-0.14,0.48c-0.03,0.17-0.06,0.33-0.09,0.48c-0.06,0.16-0.1,0.31-0.14,0.46c-0.03,0.16-0.06,0.31-0.09,0.46
		c0.03,0.03,0.09,0.08,0.18,0.14C12.94,11.7,13.23,11.75,13.58,11.77z"/>
	<path d="M42.04,33.98l-2.31-4.21c-0.42-0.79-0.86-1.55-1.31-2.31c-0.46-0.75-0.94-1.5-1.45-2.21c-0.51-0.79-1.06-1.56-1.63-2.33
		c-0.58-0.76-1.16-1.5-1.77-2.19c-0.22-0.24-0.43-0.46-0.64-0.67c-0.21-0.21-0.42-0.43-0.63-0.67c-0.06-0.06-0.13-0.09-0.18-0.09
		c-0.07,0.06-0.14,0.13-0.23,0.18c-0.09,0.06-0.17,0.13-0.23,0.18c-0.07,0.06-0.15,0.1-0.25,0.14c-0.1,0.03-0.19,0.08-0.25,0.14
		c0,0.03-0.05,0.08-0.14,0.14c-0.09,0.06-0.19,0.13-0.3,0.21c-0.11,0.08-0.19,0.15-0.27,0.21c-0.08,0.06-0.11,0.1-0.11,0.14
		c0.18,0.3,0.31,0.53,0.39,0.67c0.08,0.16,0.14,0.3,0.18,0.43c0.05,0.14,0.1,0.3,0.16,0.46c0.07,0.16,0.17,0.41,0.32,0.74
		c0.3,0.68,0.58,1.38,0.86,2.06c0.26,0.67,0.56,1.36,0.86,2.06c0,0.03,0.01,0.06,0.02,0.07c0.01,0.01,0.02,0.06,0.02,0.11h-0.09
		c-0.13,0-0.19-0.01-0.23-0.05c-0.58-0.18-1.14-0.35-1.7-0.5c-0.56-0.15-1.14-0.27-1.75-0.37c-0.18-0.03-0.38-0.06-0.57-0.09
		c-0.21-0.03-0.39-0.05-0.57-0.05c-0.06,0-0.1-0.01-0.11-0.02c-0.01-0.01-0.06-0.01-0.11,0.02c0,0.07,0.01,0.1,0.13,0.13
		c0.03,0.01,0.05,0.03,0.05,0.07v0.09c-0.15,0-0.26-0.01-0.32-0.05c-0.16-0.03-0.29-0.06-0.41-0.09c-0.13-0.03-0.24-0.06-0.37-0.09
		c-0.24-0.06-0.48-0.13-0.72-0.21c-0.24-0.08-0.48-0.15-0.72-0.21l-0.09-0.05h-0.09h-0.09v0.09l0.23,0.23v0.05l-0.05,0.05
		c-0.42-0.13-0.86-0.24-1.31-0.34c-0.46-0.1-0.89-0.22-1.31-0.34c-0.64-0.16-1.26-0.33-1.86-0.55c-0.61-0.21-1.21-0.45-1.82-0.72
		c-0.55-0.27-0.99-0.48-1.36-0.62c-0.37-0.14-0.7-0.26-1.02-0.39c-0.32-0.13-0.65-0.25-1.02-0.39c-0.37-0.14-0.81-0.33-1.36-0.57
		l-0.27-0.14c-0.09,0-0.15,0.03-0.18,0.09c0,0.03-0.01,0.06-0.02,0.09C14.01,22.33,14,22.38,14,22.43
		c-0.09,0.26-0.01,0.49,0.23,0.67c0.06,0.06,0.13,0.1,0.18,0.14c0.06,0.03,0.13,0.08,0.18,0.14c0.24,0.16,0.49,0.3,0.76,0.43
		c0.26,0.14,0.53,0.29,0.76,0.43c0.72,0.42,1.44,0.82,2.15,1.2c0.71,0.38,1.44,0.74,2.19,1.11c1.14,0.57,2.29,1.11,3.46,1.59
		c1.16,0.48,2.34,0.97,3.55,1.45c0.61,0.24,1.22,0.47,1.84,0.7c0.63,0.22,1.23,0.46,1.84,0.7c0.63,0.26,1.27,0.51,1.92,0.74
		c0.64,0.22,1.3,0.45,1.96,0.65c0.66,0.22,1.32,0.42,1.99,0.62c0.66,0.21,1.34,0.39,2.03,0.57c0.37,0.13,0.73,0.24,1.11,0.34
		c0.38,0.1,0.74,0.21,1.11,0.3c0.16,0.06,0.29,0.09,0.41,0.09c0.13,0,0.26,0,0.41,0c0.03,0,0.05-0.03,0.05-0.09
		C42.13,34.17,42.1,34.1,42.04,33.98z"/>
	<path d="M10.41,20.37h0.1c0.03-0.13,0.06-0.24,0.09-0.34c0.03-0.1,0.06-0.22,0.09-0.34c0-0.07,0.01-0.19,0.05-0.39
		c0.03-0.19,0.06-0.33,0.09-0.39c0.06-0.33-0.05-0.59-0.32-0.81c-0.16-0.15-0.33-0.27-0.53-0.37c-0.21-0.09-0.38-0.22-0.53-0.37
		c-0.24-0.25-0.47-0.45-0.7-0.59c-0.22-0.16-0.46-0.35-0.7-0.59c-0.16-0.16-0.3-0.29-0.43-0.41C7.5,15.64,7.35,15.5,7.2,15.36
		c-0.09-0.07-0.23-0.18-0.41-0.37c-0.09-0.06-0.18-0.14-0.27-0.23c-0.09-0.09-0.18-0.18-0.27-0.27c-0.06-0.06-0.09-0.1-0.09-0.14
		v-0.01h0.17c0.16,0.06,0.31,0.1,0.46,0.14c0.16,0.03,0.31,0.08,0.46,0.14c0.31,0.09,0.64,0.11,1,0.07l0.05-0.05
		c0-0.03-0.01-0.06-0.05-0.09c-0.13-0.06-0.22-0.13-0.27-0.18l-0.27-0.14v-0.05h0.03c0.03-0.03,0.08-0.05,0.14-0.05l1.63,0.14
		c0.18,0.03,0.37,0.06,0.55,0.07c0.18,0.01,0.38,0.02,0.59,0.02c0.03,0,0.05-0.01,0.05-0.05v-0.05c-0.13-0.06-0.24-0.1-0.34-0.14
		c-0.11-0.03-0.21-0.08-0.3-0.14c-0.33-0.13-0.67-0.24-1.02-0.37c-0.34-0.13-0.69-0.24-1.02-0.37l-0.18-0.09v-0.05l0.08-0.05
		c0.06,0,0.13,0.01,0.18,0.02s0.13,0.02,0.18,0.02c0.33,0.09,0.64,0.18,0.92,0.27c0.29,0.09,0.59,0.17,0.92,0.23
		c0.72,0.18,1.45,0.33,2.17,0.46c0.72,0.13,1.46,0.23,2.21,0.32c0.16,0.03,0.31,0.05,0.46,0.05c0.16,0,0.31,0.01,0.46,0.05
		c0.24,0.03,0.47,0.06,0.7,0.07c0.22,0.01,0.46,0.03,0.7,0.07c0.37,0.03,0.72,0.06,1.08,0.07c0.37,0.01,0.72,0.02,1.08,0.02
		c0.9,0.06,1.82,0.08,2.74,0.07c0.92-0.01,1.84-0.02,2.74-0.02c0.06,0,0.1-0.01,0.14-0.02c0.03-0.01,0.08-0.02,0.14-0.02l0.05-0.09
		c-0.16-0.16-0.29-0.31-0.41-0.46c-0.13-0.16-0.26-0.31-0.41-0.46c-0.16-0.15-0.31-0.24-0.46-0.27c-0.18-0.06-0.33-0.09-0.46-0.09
		c-0.18,0-0.38-0.01-0.57-0.02c-0.21-0.01-0.39-0.03-0.57-0.07c-0.3,0-0.61-0.01-0.9-0.02c-0.3-0.01-0.61-0.03-0.9-0.07
		c-0.16-0.03-0.31-0.05-0.46-0.05c-0.16,0-0.31-0.01-0.46-0.05c-0.18,0-0.37-0.01-0.55-0.02c-0.18-0.01-0.37-0.03-0.55-0.07
		c-0.33-0.06-0.67-0.1-1.02-0.14c-0.34-0.03-0.7-0.08-1.06-0.14l-1.08-0.14c-0.33-0.03-0.65-0.06-0.95-0.09
		c-0.3-0.03-0.61-0.08-0.9-0.14c-0.58-0.06-1.14-0.15-1.7-0.27c-0.56-0.13-1.11-0.26-1.66-0.41c-0.79-0.24-1.56-0.46-2.33-0.67
		c-0.76-0.21-1.54-0.43-2.33-0.67c-0.31-0.09-0.59-0.18-0.87-0.26C3.93,9.97,3.66,9.86,3.39,9.74C2.96,9.56,2.55,9.36,2.16,9.14
		C1.78,8.93,1.41,8.69,1.09,8.43C1.06,8.43,1.03,8.41,1,8.38C0.91,8.32,0.77,8.25,0.59,8.2c-0.06,0-0.11,0.01-0.16,0.05
		C0.38,8.27,0.37,8.3,0.41,8.32c0,0.07,0.02,0.18,0.09,0.37c0.51,1.61,1.23,3.07,2.17,4.4c0.94,1.36,2.06,2.63,3.36,3.84
		c0.66,0.64,1.35,1.22,2.06,1.77c0.71,0.55,1.44,1.07,2.19,1.59C10.33,20.33,10.37,20.37,10.41,20.37z"/>
	<path d="M20.04,27.61c-0.3-0.24-0.61-0.46-0.87-0.69c-0.3-0.19-0.61-0.41-0.9-0.65c-0.07-0.07-0.19-0.19-0.39-0.41
		c-0.21-0.22-0.33-0.29-0.39-0.23l-0.27,0.23c-0.33,0.39-0.65,0.79-0.95,1.18c-0.3,0.39-0.62,0.79-0.95,1.18
		c-0.24,0.3-0.46,0.58-0.65,0.86c-0.21,0.26-0.41,0.56-0.62,0.86c-0.09,0.09-0.15,0.17-0.18,0.23c-0.06,0.06-0.13,0.06-0.18,0
		c-0.06-0.18-0.11-0.35-0.16-0.53c-0.05-0.17-0.1-0.34-0.16-0.53v-0.05l0.05-0.05l0.05-0.05c0.09,0.09,0.17,0.15,0.23,0.18
		l0.09,0.05c0-0.03,0.01-0.05,0.02-0.05s0.02-0.01,0.02-0.05c-0.03-0.26-0.06-0.55-0.09-0.83c-0.03-0.29-0.06-0.56-0.09-0.83
		c-0.03-0.22-0.06-0.42-0.07-0.62c-0.01-0.19-0.03-0.41-0.07-0.65c-0.03-0.24-0.06-0.46-0.07-0.67c-0.01-0.21-0.02-0.43-0.02-0.67
		c-0.03-0.33-0.06-0.64-0.09-0.92c-0.03-0.29-0.05-0.58-0.05-0.88c-0.06-0.94-0.07-1.99-0.02-3.15c0.05-1.15,0.15-2.21,0.3-3.19
		c0.06-0.24,0.1-0.46,0.14-0.65c0.03-0.19,0.08-0.41,0.14-0.65c0.02-0.13-0.01-0.19-0.14-0.23c-0.16-0.03-0.35-0.06-0.59-0.07
		c-0.25-0.01-0.45-0.03-0.59-0.07c-0.06-0.03-0.13-0.05-0.21-0.05s-0.15-0.01-0.21-0.05c-0.13,0-0.18,0.06-0.18,0.18
		c-0.03,0.03-0.05,0.08-0.05,0.14c-0.09,0.51-0.17,1.04-0.25,1.56c-0.08,0.53-0.16,1.05-0.25,1.56c-0.06,0.42-0.13,0.86-0.18,1.31
		C11.13,20.14,11.06,20.57,11,21c-0.06,0.51-0.13,1.02-0.18,1.5c-0.06,0.48-0.13,0.97-0.18,1.45c-0.03,0.16-0.05,0.32-0.05,0.5
		c0,0.18-0.01,0.35-0.05,0.5l-0.14,1.5c-0.03,0.42-0.06,0.86-0.07,1.31c-0.01,0.46-0.03,0.9-0.07,1.36c0,0.42,0.01,0.82,0.02,1.2
		c0.01,0.38,0.03,0.78,0.07,1.2c0,0.26,0.01,0.54,0.05,0.81c0.03,0.26,0.06,0.54,0.09,0.81c0.03,0.07,0.05,0.17,0.05,0.32
		c0,0.11-0.03,0.15-0.09,0.09l-0.05-0.05c-0.06-0.18-0.09-0.29-0.09-0.32c-0.06-0.24-0.13-0.47-0.21-0.67
		c-0.08-0.22-0.15-0.42-0.21-0.64c-0.06-0.18-0.1-0.31-0.14-0.37v-0.05c-0.06,0-0.09,0.01-0.09,0.05v0.41
		c0.03,0.69,0.13,1.4,0.27,2.12c0.27,1.42,0.65,2.75,1.13,3.98c0.18,0.46,0.38,0.91,0.57,1.35c0.21,0.47,0.43,0.91,0.67,1.34
		c0.13,0.22,0.24,0.42,0.37,0.62c0.13,0.21,0.26,0.39,0.41,0.57c0.06,0.09,0.14,0.17,0.23,0.25c0.09,0.08,0.17,0.16,0.23,0.25
		c0.03,0.03,0.08,0.05,0.14,0.05c0,0.03,0.01,0.05,0.02,0.05s0.02-0.01,0.02-0.05c0-0.16-0.01-0.26-0.05-0.32
		c-0.06-0.3-0.13-0.59-0.18-0.88c-0.06-0.29-0.13-0.56-0.18-0.83l-0.27-1.36c-0.03-0.06-0.03-0.1-0.02-0.14
		c0.01-0.03,0.02-0.06,0.02-0.09v-0.05h0.05c0.06,0.06,0.13,0.15,0.18,0.27c0.16,0.22,0.3,0.42,0.43,0.62
		c0.14,0.21,0.29,0.4,0.43,0.62c0,0.03,0.01,0.05,0.05,0.05c0.03,0,0.05,0.01,0.05,0.05h0.05c0.03-0.03,0.05-0.08,0.05-0.14
		c0-0.24,0-0.49,0-0.76c0-0.26,0.03-0.54,0.09-0.81c0.09-0.97,0.3-1.87,0.59-2.72c0.21-0.64,0.46-1.24,0.74-1.84
		c0.29-0.59,0.61-1.18,0.97-1.75c0.18-0.24,0.37-0.49,0.55-0.76c0.18-0.26,0.38-0.53,0.59-0.76c0.37-0.48,0.72-0.96,1.08-1.43
		c0.37-0.47,0.72-0.96,1.08-1.47c0.03-0.03,0.06-0.06,0.07-0.09c0.01-0.03,0.03-0.06,0.07-0.09C20.12,27.65,20.08,27.61,20.04,27.61
		z"/>
</g>
</svg>
