<?xml version="1.0" encoding="utf-8"?>
<!-- Generator: Adobe Illustrator 25.0.1, SVG Export Plug-In . SVG Version: 6.00 Build 0)  -->
<svg version="1.1" id="레이어_1" xmlns="http://www.w3.org/2000/svg" xmlns:xlink="http://www.w3.org/1999/xlink" x="0px"
	 y="0px" viewBox="0 0 42.52 42.52" style="enable-background:new 0 0 42.52 42.52;" xml:space="preserve">
<g>
	<path d="M15.11,12.29l-9.05,6.42l-3.13,4.8v18.47H4.8h3.65h13.66h1.01h3.77l0.13-18.62l-2.72-4.7L15.11,12.29z M14.21,35.59
		l-5.76,4.32v-8.63L14.21,35.59z M9.92,30.54h11.04l-5.52,4.14L9.92,30.54z M15.44,36.51l5.4,4.05h-10.8L15.44,36.51z M16.67,35.59
		l5.45-4.08v8.17L16.67,35.59z M15.1,20.16c1.58,0,2.86,1.28,2.86,2.86s-1.28,2.86-2.86,2.86s-2.86-1.28-2.86-2.86
		S13.53,20.16,15.1,20.16z"/>
	<path d="M35.65,0.55c-3.79,0-6.87,2.67-6.87,5.97c0,0.27,0.03,0.54,0.07,0.8v12.95l-2.54-4.05l-0.07,0.05l0.01-0.02l-11.2-7.3
		l-0.02,0.05L4.3,16.31l0.01,0.01l-0.08-0.04L0,23.33l1.33,0.88l3.94-6.61l9.83-6.86l10.19,6.8l3.56,5.72v18.71h13.66V6.54
		c0.01,0,0.01-0.01,0.01-0.02C42.52,3.22,39.44,0.55,35.65,0.55z"/>
</g>
</svg>
