<?xml version="1.0" encoding="utf-8"?>
<!-- Generator: Adobe Illustrator 25.0.1, SVG Export Plug-In . SVG Version: 6.00 Build 0)  -->
<svg version="1.1" id="레이어_1" xmlns="http://www.w3.org/2000/svg" xmlns:xlink="http://www.w3.org/1999/xlink" x="0px"
	 y="0px" viewBox="0 0 42.52 42.52" style="enable-background:new 0 0 42.52 42.52;" xml:space="preserve">
<path d="M35.75,8.78C35.4,9.03,35.14,9.4,35,9.8c-0.05-1.09-0.48-2.17-1.22-2.96c-0.13,0.25-0.25,0.5-0.38,0.75
	c-0.25-0.1-0.55-0.04-0.76,0.13c-0.01-0.01-0.02-0.02-0.02-0.03c-0.09,0.64-0.14,1.21-0.12,1.53c0.02,0.38,0.34,3.43,0.92,3.48
	c-4.51-0.32-8.63,1.92-10.43,4.83c-0.12-1.49,1.99-3.33,3.68-4.23c1.69-0.9,3.26-1.09,5.28-1.56c-0.41-1.42-0.4-3.82,0.24-5.67
	c-0.14-0.62-0.42-1.22-0.46-1.77c-0.14,0.22-0.54,0.99-0.67,1.23c-0.55-0.87-0.52-1.93-1.01-2.88c-0.03,0.08-0.07,0.15-0.12,0.24
	c-0.2,0.4-0.39,0.81-0.63,1.17c-0.65-1-0.62-1.82-1.38-3.01c-0.18,0.71-0.37,1.44-0.55,2.15c-0.37-0.6-0.8-1.21-1.1-1.85
	c-0.16,0.1-0.31,0.22-0.46,0.35c-0.27-0.12-0.41,0.47-0.51,0.85c-0.1-0.03-0.19-0.06-0.29-0.08c-0.35-0.48-0.92-1.37-1.08-1.58
	C23.69,1.14,23.6,1.7,23.44,2.1C23.2,2.06,22.97,2.03,22.73,2c-0.22-0.78-0.76-1.5-1.51-2c-0.48,0.86-0.98,1.29-1.51,2
	c-0.19,0.02-0.39,0.05-0.58,0.08c-0.34-0.34-0.86-0.73-0.86-0.73s-0.52,0.69-0.81,1.1c-0.12,0.04-0.24,0.06-0.36,0.1
	c-0.54-0.23-0.92-0.53-1.16-1.02c-0.26,0.68-0.89,1.21-1.09,1.95c-0.34,0.17-0.68,0.36-1,0.56c-0.37-0.28-0.75-0.78-1.1-1.05
	c-0.08,0.8-0.37,1.54-0.33,2.04c-0.04,0.03-0.07,0.05-0.1,0.08c-0.26-0.32-0.64-0.73-0.81-0.97c-0.24,0.61-0.93,1.82-1.02,2.55
	c0.45,1.75,0.41,3.81,0.05,5.08c2.01,0.47,3.59,0.67,5.28,1.56c1.69,0.9,3.82,2.74,3.7,4.23c-1.79-2.91-5.92-5.15-10.43-4.83
	c0.58-0.04,0.9-3.11,0.92-3.48c0.02-0.36-0.04-0.99-0.14-1.69C9.86,7.54,9.83,7.57,9.81,7.6C9.8,6.99,9.67,6.43,9.35,5.91
	C9.31,6.13,9.28,6.33,9.24,6.54c-0.57,0.94-1.13,1.86-1.7,2.8c-0.1-0.09-0.18-0.17-0.28-0.25c-0.36,1.78-0.49,3.61-0.42,5.43
	c-0.2,1.33-0.26,2.68-0.2,4.03c0.07,1.77,1.15,7.18,2.28,7.91c2.06,1.34,3.15,4.45,3.79,6.67c0.68,2.33,2.05,4.28,2.89,6.55
	c0.33,0.89,0.69,1.87,1.59,2.38c1.13,0.63,2.69,0.45,3.93,0.38c0.02,0,0.04,0,0.07,0c0.02,0,0.04,0,0.07,0
	c1.23,0.08,2.8,0.25,3.93-0.38c0.92-0.51,1.27-1.5,1.59-2.38c0.83-2.27,2.22-4.23,2.89-6.55c0.65-2.22,1.73-5.33,3.79-6.67
	c1.13-0.73,2.2-6.15,2.28-7.91c0.02-0.49,0.03-0.99,0.01-1.49C35.96,14.31,35.96,11.53,35.75,8.78z M13.77,20.03
	c-1.71-0.49-3.84-1.78-4.4-3.58c1.4-0.77,3.91-0.38,5.34,0.14c0.89,0.32,1.78,0.7,2.54,1.27c0.4,0.3,0.79,0.66,1.02,1.11
	c0.22,0.43,0.23,0.7,0.1,0.88c-0.14,0.17-0.44,0.25-0.84,0.31C16.22,20.33,15.06,20.41,13.77,20.03z M23.97,27.28
	c-0.89-0.14-2.03,0.07-2.6,0.77c-0.67-0.83-1.95-1.08-2.88-0.57l-0.24-0.03c0,0,2.44-1.28,2.99-4.59c0.07-0.42,0.14-0.42,0.21,0
	c0.51,3.33,2.82,4.4,2.82,4.4C24.11,27.21,24.13,27.31,23.97,27.28z M28.76,20.03c-1.28,0.38-2.45,0.3-3.75,0.12
	c-0.4-0.06-0.7-0.14-0.84-0.31c-0.14-0.17-0.13-0.43,0.1-0.88c0.23-0.45,0.63-0.81,1.02-1.11c0.75-0.57,1.65-0.96,2.54-1.27
	c1.43-0.51,3.93-0.92,5.34-0.14C32.6,18.25,30.46,19.54,28.76,20.03z"/>
</svg>
