<?xml version="1.0" encoding="utf-8"?>
<!-- Generator: Adobe Illustrator 25.0.1, SVG Export Plug-In . SVG Version: 6.00 Build 0)  -->
<svg version="1.1" id="레이어_1" xmlns="http://www.w3.org/2000/svg" xmlns:xlink="http://www.w3.org/1999/xlink" x="0px"
	 y="0px" viewBox="0 0 42.52 42.52" style="enable-background:new 0 0 42.52 42.52;" xml:space="preserve">
<g>
	<path d="M27.32,38.41l0.36-0.06c0.07-0.01,0.1-0.03,0.12-0.05c-0.08,0.01-0.15,0.02-0.23,0.04C27.49,38.35,27.41,38.38,27.32,38.41
		z"/>
	<path d="M26.68,38.65c0.2-0.1,0.42-0.17,0.64-0.24l-2.05,0.34C25.78,38.76,26.2,38.87,26.68,38.65z"/>
	<path d="M38.8,22.94c-0.1-0.23-0.18-0.41-0.25-0.65c-0.06-0.25-0.19-0.45-0.25-0.7c-0.1-0.48-0.09-0.95-0.09-1.44
		c0-0.18,0.04-0.42-0.01-0.59c-0.06-0.19-0.19-0.32-0.19-0.54c-0.01-0.28-0.06-0.56-0.06-0.85c0-0.24,0-0.49,0-0.72
		c0.01-0.23-0.03-0.45-0.08-0.67c-0.04-0.15-0.04-0.3-0.06-0.46c-0.04-0.21-0.02-0.47-0.08-0.67c-0.07-0.21-0.19-0.47-0.29-0.67
		c-0.1-0.21-0.2-0.35-0.24-0.57c-0.02-0.11-0.03-0.19-0.08-0.28c-0.06-0.11-0.17-0.2-0.26-0.29c-0.49-0.52-1.11-0.93-1.69-1.36
		c-0.41-0.3-0.72-0.66-1.09-1.01c-0.28-0.26-0.6-0.49-0.92-0.7c-0.26-0.17-0.53-0.27-0.79-0.43c-0.27-0.17-0.54-0.36-0.82-0.5
		c-0.24-0.12-0.5-0.19-0.75-0.31c-0.36-0.19-0.74-0.2-1.12-0.33c-0.28-0.09-0.56-0.18-0.84-0.26c-0.12-0.04-0.25-0.16-0.35-0.21
		c-0.16-0.08-0.33-0.13-0.49-0.2c-0.26-0.11-0.49-0.25-0.77-0.34c-0.43-0.14-0.85-0.21-1.3-0.26c-0.29-0.04-0.6-0.06-0.87-0.17
		c-0.29-0.12-0.54-0.34-0.83-0.46c-0.4-0.18-0.81-0.28-1.19-0.52c-0.43-0.27-0.81-0.4-1.32-0.41c-0.4-0.01-0.8-0.01-1.21,0
		c-0.56,0.02-1.06,0.32-1.61,0.33c-0.26,0-0.47-0.03-0.71,0.05c-0.14,0.04-0.25,0.1-0.39,0.11c-0.16,0.03-0.34-0.01-0.49,0.03
		C17.17,6.91,17.04,7,16.89,7.05c-0.34,0.11-0.71,0.05-1.06,0.13c-0.39,0.09-0.76,0.13-1.15,0.2c-0.43,0.07-0.83,0.27-1.26,0.35
		c-0.27,0.04-0.55,0.09-0.83,0.12c-0.23,0.04-0.45-0.02-0.68,0.07c-0.17,0.06-0.3,0.19-0.46,0.26c-0.48,0.21-0.97,0.37-1.47,0.53
		C9.6,8.84,9.22,9.1,8.94,9.4C8.79,9.56,8.7,9.8,8.56,10c-0.13,0.2-0.29,0.38-0.49,0.53c-0.11,0.08-0.2,0.14-0.34,0.17
		c-0.12,0.03-0.26,0.02-0.37,0.08c-0.12,0.07-0.2,0.2-0.31,0.3c-0.11,0.1-0.2,0.14-0.32,0.22c-0.32,0.2-0.41,0.48-0.58,0.79
		c-0.11,0.2-0.26,0.39-0.4,0.57c-0.12,0.17-0.2,0.33-0.29,0.52c-0.11,0.24-0.27,0.37-0.45,0.56c-0.35,0.36-0.43,0.96-0.69,1.39
		c-0.12,0.2-0.19,0.41-0.29,0.62c-0.1,0.21-0.25,0.41-0.31,0.64c-0.15,0.51,0.1,1.1-0.14,1.61c-0.08,0.18-0.22,0.36-0.34,0.53
		c-0.11,0.17-0.19,0.34-0.28,0.5c-0.11,0.19-0.19,0.36-0.28,0.55c-0.1,0.18-0.26,0.31-0.37,0.47c-0.22,0.3-0.46,0.62-0.46,1
		c0,0.18,0.02,0.31-0.06,0.46c-0.05,0.11-0.06,0.14-0.06,0.26c0,0.45,0.4,0.69,0.71,0.96c0.38,0.32,0.67,0.87,0.68,1.36
		c0.01,0.31,0,0.63,0,0.94c0.01,0.33-0.08,0.45-0.36,0.62c-0.13,0.08-0.36,0.3-0.4,0.46c-0.04,0.2,0.01,0.49,0.01,0.71
		c0,0.15-0.08,0.2-0.11,0.34c-0.03,0.11-0.02,0.17-0.07,0.26c-0.05,0.11-0.11,0.26-0.07,0.38c0.04,0.14,0.11,0.22,0.13,0.38
		c0.04,0.37,0.25,0.76,0.44,1.08c0.15,0.26,0.23,0.4,0.28,0.7c0.03,0.17,0.07,0.31,0.12,0.47c0.06,0.19,0.18,0.34,0.25,0.52
		c0.05,0.16,0.12,0.21,0.22,0.34c0.09,0.12,0.14,0.29,0.2,0.43c0.07,0.18,0.2,0.34,0.31,0.5c0.2,0.3,0.41,0.59,0.66,0.86
		c0.13,0.13,0.25,0.3,0.34,0.46c0.08,0.12,0.17,0.2,0.26,0.31c0.06,0.08,0.1,0.18,0.16,0.26c0.04,0.04,0.11,0.1,0.15,0.14
		c0.05,0.06,0.06,0.11,0.13,0.18c0.17,0.14,0.32,0.24,0.43,0.44c0.1,0.16,0.21,0.32,0.38,0.41c0.47,0.26,1.05,0.38,1.48,0.71
		c0.19,0.15,0.4,0.26,0.59,0.4c0.21,0.15,0.38,0.28,0.63,0.37c0.15,0.05,0.26,0.09,0.4,0.19c0.17,0.14,0.28,0.19,0.49,0.26
		c0.15,0.04,0.24,0.14,0.38,0.21c0.08,0.04,0.17,0.04,0.26,0.07c0.13,0.04,0.26,0.11,0.39,0.16c0.29,0.13,0.58,0.24,0.87,0.37
		c0.27,0.12,0.6,0.17,0.89,0.25c0.16,0.04,0.32,0.04,0.47,0.1c0.13,0.04,0.26,0.11,0.41,0.15c0.32,0.1,0.63,0.19,0.94,0.28
		c0.14,0.04,0.25,0.03,0.39,0.03c0.17,0,0.26,0.1,0.42,0.12c0.28,0.05,0.59-0.04,0.87,0c0.23,0.03,0.49,0.08,0.71,0.14
		c0.31,0.09,0.58,0.28,0.89,0.38c0.23,0.07,0.46,0.05,0.7,0.05c0.18,0,0.39,0.04,0.56-0.01c0-0.14-0.6-0.23-0.71-0.26
		c-0.24-0.06-0.46-0.04-0.71-0.04c-0.22,0-0.34-0.11-0.54-0.19c-0.16-0.07-0.34-0.1-0.5-0.15c-0.2-0.06-0.41-0.14-0.62-0.09
		c-0.09,0.02-0.15,0.06-0.26,0.04c-0.15-0.03-0.31-0.1-0.45-0.15c-0.21-0.08-0.38-0.18-0.56-0.31c-0.13-0.1-0.27-0.11-0.42-0.17
		c-0.07-0.03-0.19-0.04-0.25-0.07c-0.1-0.05-0.19-0.21-0.28-0.29c-0.25-0.21-0.59-0.27-0.86-0.42c-0.6-0.34-1.12-0.83-1.77-1.06
		c-0.25-0.09-0.45-0.24-0.68-0.36c-0.14-0.07-0.26-0.17-0.39-0.26c-0.2-0.15-0.43-0.26-0.64-0.41c-0.36-0.26-0.61-0.67-0.94-0.97
		c-0.22-0.2-0.45-0.4-0.66-0.62c-0.09-0.1-0.16-0.14-0.23-0.26s-0.12-0.23-0.18-0.35c-0.14-0.37-0.34-0.74-0.55-1.09
		c-0.18-0.3-0.4-0.58-0.59-0.86C6.4,31,6.3,30.8,6.17,30.61C6,30.34,5.9,30.16,5.91,29.83c0.01-0.17,0.01-0.3-0.07-0.45
		c-0.13-0.25-0.24-0.5-0.35-0.76c-0.22-0.5-0.35-1.01-0.49-1.54c-0.04-0.19-0.11-0.35-0.09-0.55c0.02-0.17,0.09-0.34,0.13-0.49
		c0.1-0.39,0.19-0.75,0.19-1.15c-0.01-0.27,0.06-0.53,0.1-0.8c0.02-0.17,0-0.34,0.04-0.51c0.08-0.38,0.2-0.76,0.29-1.14
		c0.09-0.38,0.13-0.79,0.33-1.14c0.08-0.14,0.19-0.26,0.29-0.37c0.19-0.19,0.31-0.35,0.45-0.57c0.11-0.19,0.28-0.31,0.4-0.48
		c0.09-0.15,0.2-0.28,0.28-0.44c0.19-0.37,0.41-0.71,0.6-1.08c0.16-0.3,0.24-0.64,0.37-0.95c0.14-0.33,0.31-0.64,0.44-0.96
		c0.12-0.29,0.26-0.57,0.38-0.87c0.09-0.21,0.12-0.43,0.26-0.62c0.11-0.16,0.23-0.32,0.34-0.48c0.11-0.17,0.3-0.36,0.48-0.47
		c0.19-0.12,0.42-0.19,0.63-0.3c0.21-0.12,0.41-0.23,0.64-0.29c0.11-0.04,0.25-0.04,0.36-0.07c0.11-0.04,0.2-0.11,0.32-0.15
		c0.26-0.09,0.56-0.05,0.83-0.12c0.16-0.04,0.22-0.1,0.34-0.2c0.11-0.1,0.23-0.18,0.34-0.26c0.12-0.1,0.22-0.22,0.34-0.32
		c0.1-0.09,0.22-0.17,0.33-0.25c0.15-0.11,0.24-0.27,0.38-0.37c0.1-0.07,0.23-0.08,0.33-0.17c0.09-0.08,0.18-0.17,0.26-0.26
		c0.16-0.16,0.27-0.34,0.41-0.52c0.11-0.15,0.26-0.23,0.41-0.34c0.16-0.11,0.28-0.24,0.42-0.36c0.14-0.12,0.33-0.14,0.49-0.2
		c0.22-0.09,0.47-0.16,0.7-0.22c0.19-0.05,0.37-0.01,0.56-0.04c0.19-0.04,0.32-0.18,0.51-0.19c0.18-0.01,0.36,0.01,0.54,0.01
		c0.4,0,0.81-0.05,1.2,0c-0.02,0.03-0.03,0.06-0.05,0.09c-0.18,0.31-0.53,0.66-0.86,0.86c-0.31,0.19-0.57,0.41-0.71,0.71
		c-0.06,0.14-0.19,0.29-0.25,0.42c-0.06,0.16,0.08,0.21,0.19,0.33c0.15,0.16,0.31,0.3,0.41,0.49c0.05,0.1,0.05,0.19,0.11,0.3
		c0.08,0.16,0.12,0.27,0.13,0.46c0.01,0.36,0.04,0.74-0.11,1.09c-0.17,0.35-0.42,0.69-0.63,1.03c-0.17,0.27-0.41,0.49-0.6,0.75
		c-0.11,0.14-0.19,0.3-0.33,0.43c-0.13,0.14-0.24,0.31-0.39,0.43c-0.11,0.11-0.27,0.19-0.4,0.3c-0.15,0.14-0.13,0.13-0.32,0.2
		c-0.07,0.03-0.2,0.07-0.24,0.13c-0.11,0.19,0.19,0.22,0.33,0.32c0.26,0.2,0.42,0.54,0.56,0.8c0.08,0.17,0.16,0.34,0.22,0.52
		c0.06,0.18,0.04,0.35,0.07,0.54c0.11,0.68,0.19,1.34,0.17,2.03c-0.01,0.33-0.08,0.65-0.11,0.99c-0.02,0.29-0.04,0.63-0.13,0.91
		c-0.25,0.78-0.32,1.57-0.64,2.32c-0.09,0.22-0.26,0.43-0.41,0.62c-0.05,0.07-0.08,0.15-0.16,0.2c-0.08,0.04-0.18,0.04-0.2,0.11
		c0.14,0.02,0.35,0.1,0.47,0.15c0.28,0.12,0.45,0.35,0.6,0.57c0.35,0.53,0.69,1.07,0.86,1.66c0.06,0.19,0.15,0.35,0.19,0.55
		c0.07,0.29,0.06,0.58,0.13,0.87c0.1,0.39,0.2,0.78,0.21,1.17c0.01,0.33,0,0.65,0,0.98c0.01,0.19-0.05,0.29-0.09,0.45
		c-0.04,0.21-0.11,0.24-0.26,0.4c-0.01,0.01-0.1,0.14-0.1,0.15c-0.03,0.16,0.04,0.09,0.17,0.2c0.07,0.06,0.05,0.14,0.11,0.21
		c0.04,0.05,0.11,0.09,0.16,0.14c0.08,0.1,0.11,0.22,0.21,0.31c0.04,0.04,0.11,0.06,0.16,0.1c0.19,0.16,0.31,0.44,0.43,0.65
		c0.11,0.18,0.18,0.35,0.24,0.54c0.04,0.1,0.11,0.16,0.14,0.24c0.13,0.27,0.04,0.55,0.11,0.81c0.04,0.19,0.1,0.3,0.09,0.5
		c0.09-0.19,0.06-0.37,0.11-0.56c0.03-0.11,0.1-0.16,0.14-0.25c0.11-0.26-0.02-0.56,0.09-0.83c0.19-0.47,0.26-0.99,0.57-1.43
		c0.19-0.27,0.48-0.53,0.76-0.73c0.12-0.1,0.14,0.02,0.14-0.15c0,0.01-0.07-0.16-0.07-0.17c-0.04-0.16-0.11-0.32-0.16-0.48
		c-0.17-0.54-0.11-1.09-0.11-1.63c0-0.56-0.04-1.06,0.27-1.57c0.24-0.37,0.42-0.76,0.75-1.09c0.18-0.19,0.29-0.38,0.48-0.56
		c0.31-0.29,0.66-0.55,0.96-0.84c0.27-0.26,0.56-0.56,0.87-0.79c0.25-0.19,0.31-0.4,0.19-0.64c-0.11-0.21-0.27-0.39-0.37-0.6
		c-0.13-0.28-0.27-0.55-0.39-0.83c-0.28-0.67-0.63-1.31-0.81-2.01c-0.3-1.11-0.7-2.29-0.39-3.43c0.07-0.26,0.2-0.51,0.3-0.77
		c0.09-0.23,0.19-0.49,0.33-0.7c0.05-0.1,0.26-0.25,0.21-0.36c-0.04-0.09-0.19-0.1-0.28-0.16c-0.16-0.11-0.33-0.32-0.44-0.46
		c-0.08-0.11-0.19-0.2-0.27-0.29c-0.1-0.11-0.12-0.25-0.22-0.36c-0.11-0.13-0.24-0.26-0.35-0.4c-0.35-0.41-0.62-0.85-0.71-1.35
		c-0.04-0.19,0-0.38-0.04-0.57c-0.04-0.18-0.07-0.34-0.07-0.52c0.01-0.18-0.03-0.37,0.03-0.54c0.04-0.14,0.11-0.3,0.19-0.43
		c0.04-0.1,0.17-0.19,0.18-0.3c0.05-0.01,0.1-0.02,0.15-0.03c0.01-0.04,0.03-0.09,0.04-0.12c0.11-0.02,0.24-0.05,0.25-0.15
		c-0.16-0.01-0.38-0.19-0.49-0.27c-0.1-0.08-0.14-0.18-0.22-0.26c-0.09-0.1-0.23-0.17-0.33-0.26c-0.12-0.11-0.16-0.19-0.2-0.34
		c-0.07-0.2-0.24-0.39-0.29-0.59c-0.02-0.06-0.02-0.13-0.02-0.2c0.22,0.04,0.43,0.08,0.68,0.06c0.37,0.01,0.6,0.07,0.94,0.19
		c0.26,0.09,0.53,0.08,0.79,0.15c0.17,0.04,0.32,0.04,0.49,0.04c0.19,0,0.33,0.07,0.51,0.11c0.19,0.04,0.34,0.02,0.53,0.07
		c0.26,0.08,0.53,0.16,0.79,0.23c0.24,0.06,0.46,0.19,0.71,0.22c0.42,0.05,0.77,0.24,1.16,0.41c0.51,0.21,1.02,0.49,1.49,0.79
		c0.21,0.13,0.42,0.24,0.64,0.35c0.23,0.12,0.41,0.34,0.66,0.43c0.18,0.07,0.34,0.14,0.5,0.23c0.11,0.05,0.24,0.07,0.34,0.12
		c0.14,0.06,0.24,0.22,0.36,0.32c0.17,0.13,0.34,0.22,0.5,0.36c0.21,0.19,0.47,0.29,0.69,0.45c0.25,0.18,0.47,0.43,0.65,0.67
		c0.34,0.43,0.73,0.85,0.98,1.34c0.27,0.54,0.65,1.02,0.86,1.59c0.09,0.26,0.16,0.51,0.26,0.76c0.09,0.23,0.21,0.43,0.26,0.66
		c0.06,0.29,0.2,0.59,0.31,0.87c0.09,0.25,0.12,0.49,0.2,0.74c0.19,0.61,0.4,1.23,0.54,1.84c0.16,0.67,0.14,1.34,0.14,2.03
		c0,0.33,0.04,0.71-0.02,1.03c-0.06,0.28-0.05,0.55-0.05,0.84c0,0.2,0,0.41,0,0.63c0,0.25-0.09,0.43-0.12,0.67
		c-0.03,0.2-0.04,0.4-0.07,0.6c-0.03,0.21-0.13,0.38-0.18,0.58c-0.05,0.21-0.09,0.42-0.16,0.63c-0.04,0.15-0.15,0.19-0.22,0.31
		c-0.07,0.13-0.07,0.31-0.13,0.45c-0.05,0.13-0.13,0.26-0.22,0.38c-0.12,0.16-0.19,0.25-0.24,0.45c-0.04,0.19-0.15,0.36-0.24,0.55
		c-0.16,0.32-0.2,0.67-0.38,0.97c-0.19,0.33-0.4,0.64-0.6,0.96c-0.1,0.16-0.19,0.34-0.33,0.47c-0.16,0.15-0.28,0.18-0.41,0.37
		c-0.26,0.37-0.6,0.56-0.93,0.87c-0.16,0.15-0.34,0.27-0.5,0.41c-0.18,0.16-0.32,0.35-0.5,0.5c-0.38,0.32-0.82,0.5-1.2,0.8
		c-0.33,0.26-0.71,0.41-1.08,0.58c-0.37,0.17-0.72,0.44-1.12,0.56c-0.11,0.04-0.19,0.05-0.26,0.12c-0.03,0.03-0.05,0.05-0.06,0.07
		c0.13-0.02,0.25-0.04,0.37-0.07c0.19-0.05,0.38-0.07,0.56-0.1c0.26-0.04,0.51,0,0.77-0.01c0.21-0.01,0.45-0.06,0.66-0.11
		c0.47-0.12,0.89-0.42,1.27-0.71c0.19-0.15,0.39-0.31,0.58-0.46c0.19-0.15,0.31-0.34,0.47-0.49c0.35-0.35,0.71-0.71,1.09-1.01
		c0.19-0.16,0.41-0.23,0.58-0.41c0.22-0.24,0.44-0.46,0.69-0.66c0.39-0.32,0.68-0.76,0.95-1.16c0.13-0.19,0.2-0.39,0.35-0.56
		c0.12-0.15,0.26-0.27,0.41-0.39c0.21-0.17,0.42-0.35,0.57-0.58c0.11-0.18,0.12-0.32,0.11-0.52c-0.01-0.43,0.11-0.88,0.36-1.24
		c0.15-0.23,0.34-0.42,0.5-0.64c0.08-0.1,0.12-0.21,0.2-0.31c0.07-0.09,0.17-0.12,0.25-0.19c0.15-0.15,0.04-0.5,0.12-0.7
		c0.07-0.18,0.24-0.3,0.34-0.46c0.12-0.19,0.27-0.37,0.34-0.59c0.06-0.2,0.09-0.41,0.1-0.62c0-0.2-0.03-0.41,0.01-0.62
		c0.04-0.2,0.08-0.39,0.04-0.59C39.4,24.33,39.09,23.61,38.8,22.94z"/>
	<path d="M41.57,27.86C41.57,27.86,41.57,27.86,41.57,27.86c0-0.04,0-0.08-0.01-0.13C41.55,27.78,41.55,27.82,41.57,27.86z"/>
	<path d="M0.09,19.98c-0.03,0.17-0.08,0.25-0.05,0.43c0.03,0.17,0.11,0.36,0.11,0.53c0-0.08,0-0.15,0-0.23v-0.74
		c0-0.11,0-0.23,0-0.34c-0.01,0.05-0.03,0.09-0.04,0.14C0.09,19.85,0.1,19.91,0.09,19.98z"/>
	<path d="M0.16,19.56c0-0.02-0.01-0.03-0.01-0.05c0,0.04,0,0.08,0,0.12C0.15,19.61,0.16,19.59,0.16,19.56z"/>
	<path d="M42.51,22.67c-0.02-0.15-0.04-0.26-0.04-0.41c0-0.38,0-0.75,0-1.13c0-0.26-0.05-0.49-0.06-0.74
		c-0.02-0.23-0.03-0.38-0.12-0.59c-0.06-0.14-0.11-0.25-0.12-0.41c-0.04-0.34,0.03-0.64-0.07-0.96c-0.11-0.37-0.16-0.73-0.23-1.1
		c-0.05-0.27-0.07-0.51-0.19-0.76c-0.1-0.19-0.22-0.33-0.34-0.49c-0.18-0.23-0.21-0.47-0.32-0.73c-0.06-0.16-0.14-0.27-0.23-0.41
		c-0.13-0.19-0.13-0.34-0.13-0.57c0-0.22-0.07-0.36-0.17-0.54c-0.22-0.4-0.45-0.9-0.76-1.22c-0.28-0.28-0.62-0.46-0.91-0.71
		c-0.18-0.16-0.34-0.38-0.49-0.56c-0.19-0.22-0.39-0.44-0.56-0.67c-0.26-0.34-0.56-0.71-0.89-0.97c-0.52-0.41-1.06-0.78-1.6-1.17
		c-0.29-0.21-0.49-0.54-0.78-0.78c-0.22-0.19-0.39-0.41-0.57-0.63c-0.38-0.43-0.78-0.99-1.26-1.25c-0.34-0.19-0.73-0.14-1.09-0.27
		c-0.34-0.13-0.59-0.4-0.97-0.43s-0.6-0.37-0.92-0.58C29.49,4.44,29.3,4.38,29.1,4.3c-0.18-0.08-0.31-0.21-0.48-0.31
		c-0.34-0.19-0.7-0.19-1.04-0.33c-0.31-0.11-0.66-0.12-0.95-0.29c-0.29-0.18-0.69-0.47-1.02-0.49c-0.26-0.02-0.51-0.11-0.78-0.05
		c-0.34,0.07-0.75,0.11-1.09,0.04c-0.41-0.09-0.76-0.33-1.18-0.34c-0.32-0.02-0.65-0.02-0.97,0c-0.31,0.02-0.59,0.15-0.9,0.15
		c-0.27,0-0.53,0.07-0.79,0.07c-0.34,0.01-0.76-0.09-1.06,0.09c-0.18,0.11-0.26,0.14-0.47,0.13C18.18,2.96,17.99,2.93,17.82,3
		c-0.14,0.05-0.21,0.12-0.37,0.11c-0.17-0.01-0.33-0.07-0.5-0.08c-0.17-0.01-0.37-0.03-0.54,0.02c-0.1,0.03-0.19,0.09-0.28,0.11
		c-0.21,0.05-0.43,0-0.64,0.06c-0.18,0.04-0.31,0.15-0.48,0.24c-0.26,0.14-0.54,0.02-0.79,0.22C14.1,3.78,14.04,3.85,13.9,3.9
		c-0.16,0.07-0.26,0.05-0.41,0.2c-0.11,0.13-0.16,0.26-0.31,0.34c-0.11,0.07-0.24,0.08-0.35,0.13c-0.15,0.07-0.26,0.2-0.43,0.22
		c-0.17,0.02-0.36-0.01-0.53-0.01c-0.16,0-0.24,0-0.38,0.07c-0.13,0.06-0.19,0.12-0.34,0.16c-0.31,0.09-0.56,0.29-0.85,0.41
		C9.96,5.59,9.61,5.41,9.27,5.65C9.09,5.8,8.97,5.88,8.75,5.92C8.67,5.94,8.64,5.94,8.56,5.98C8.44,6.05,8.41,6.2,8.3,6.26
		c-0.1,0.05-0.25,0-0.35,0c-0.26,0.01-0.35,0.3-0.61,0.34C7.19,6.63,7.14,6.62,7.03,6.74c-0.1,0.11-0.08,0.24-0.23,0.3
		C6.61,7.11,6.44,7,6.25,7.11C6.14,7.17,6.05,7.3,5.94,7.38C5.73,7.53,5.49,7.51,5.29,7.69C5.2,7.76,5.15,7.83,5.05,7.89
		C4.92,7.97,4.84,7.94,4.74,8.12C4.65,8.28,4.64,8.5,4.55,8.68c-0.09,0.18-0.17,0.16-0.3,0.29C4.06,9.17,4.11,9.49,3.99,9.73
		c-0.06,0.13-0.15,0.23-0.23,0.34c-0.12,0.17-0.28,0.26-0.4,0.41c-0.19,0.26-0.34,0.55-0.48,0.84c-0.08,0.19-0.21,0.34-0.3,0.5
		c-0.13,0.23-0.28,0.42-0.43,0.63c-0.1,0.13-0.13,0.26-0.19,0.41C1.94,12.97,1.92,13,1.86,13.1c-0.11,0.19-0.23,0.38-0.35,0.56
		c-0.06,0.1-0.07,0.18-0.14,0.26c-0.08,0.1-0.16,0.11-0.23,0.24c-0.17,0.27-0.37,0.61-0.37,0.94c0,0.25-0.08,0.47-0.11,0.71
		c-0.01,0.06,0,0.16-0.03,0.22c-0.04,0.08-0.11,0.14-0.14,0.22c-0.07,0.16-0.09,0.34-0.14,0.5c-0.06,0.19-0.17,0.34-0.2,0.55
		c-0.01,0.08,0.01,0.14-0.01,0.21c-0.02,0.09-0.08,0.17-0.1,0.26c-0.07,0.39,0,0.85,0.05,1.23c0.02,0.11-0.02,0.22,0.01,0.34
		c0.01,0.07,0.03,0.11,0.04,0.16c0-0.01,0-0.02,0-0.03c0.01-0.14,0.08-0.24,0.11-0.38c0.05-0.21,0-0.46,0.02-0.68
		c0.05-0.65,0.33-1.31,0.6-1.88c0.09-0.17,0.19-0.3,0.24-0.49c0.04-0.19,0.07-0.33,0.13-0.5c0.09-0.24,0.24-0.51,0.25-0.77
		c0-0.14-0.06-0.4,0.04-0.49c-0.01,0.01,0.29-0.01,0.24,0.01c0.28-0.09,0.33-0.53,0.44-0.78c0.13-0.3,0.39-0.52,0.56-0.78
		c0.13-0.19,0.28-0.4,0.44-0.56C3.4,12,3.61,11.93,3.75,11.69c0.13-0.23,0.34-0.41,0.49-0.64c0.2-0.29,0.54-0.26,0.74-0.56
		c0.15-0.22,0.36-0.34,0.53-0.53C5.68,9.78,5.8,9.6,5.99,9.44c0.17-0.15,0.3-0.33,0.45-0.49c0.15-0.16,0.24-0.27,0.35-0.48
		C6.9,8.28,7,8.11,7.14,7.95c0.19-0.23,0.4-0.44,0.66-0.56C7.91,7.35,8,7.34,8.11,7.33C8.3,7.31,8.43,7.25,8.6,7.19
		c0.29-0.11,0.6-0.06,0.9-0.06c0.22,0,0.46,0.01,0.68-0.06C10.36,7,10.45,6.9,10.59,6.78c0.28-0.23,0.57-0.42,0.88-0.57
		c0.28-0.14,0.5-0.35,0.78-0.5c0.23-0.12,0.45-0.15,0.69-0.22c0.11-0.03,0.2-0.11,0.31-0.12c0.12-0.03,0.23,0.03,0.34,0.04
		c0.62,0.12,1.27-0.19,1.78-0.55c0.21-0.15,0.44-0.34,0.67-0.45c0.11-0.05,0.23-0.05,0.34-0.11c0.13-0.06,0.24-0.18,0.37-0.21
		c0.28-0.07,0.63-0.01,0.92-0.01c0.3,0,0.6,0,0.9,0c0.26,0,0.55,0.06,0.75-0.16c0.1-0.11,0.12-0.16,0.26-0.19
		c0.11-0.04,0.2-0.03,0.32-0.07c0.15-0.07,0.26-0.19,0.41-0.26c0.15-0.07,0.35-0.03,0.5-0.03c0.34,0,0.69,0,1.02,0
		c0.74,0,1.47,0,2.21,0c0.34,0,0.69-0.04,1.01,0.08c0.17,0.06,0.3,0.2,0.47,0.27c0.11,0.05,0.24,0.09,0.35,0.13
		c0.38,0.16,0.68,0.49,1.03,0.71c0.34,0.21,0.72,0.27,1.09,0.41c0.29,0.11,0.55,0.29,0.82,0.42c0.22,0.11,0.44,0.12,0.64,0.28
		c0.28,0.23,0.53,0.47,0.84,0.64c0.19,0.11,0.41,0.26,0.55,0.44c0.19,0.26,0.42,0.47,0.7,0.6C31.9,7.55,32.25,7.85,32.63,8
		c0.19,0.07,0.39,0.04,0.56,0.15c0.12,0.08,0.25,0.24,0.35,0.34c0.2,0.19,0.45,0.27,0.66,0.45c0.26,0.22,0.51,0.29,0.8,0.43
		c0.14,0.07,0.24,0.22,0.35,0.34c0.16,0.17,0.33,0.29,0.5,0.42c0.33,0.26,0.52,0.6,0.79,0.91c0.24,0.27,0.46,0.49,0.65,0.82
		c0.19,0.32,0.3,0.69,0.53,0.97c0.18,0.22,0.27,0.46,0.5,0.62c0.26,0.18,0.37,0.49,0.64,0.67c0.2,0.14,0.44,0.16,0.63,0.35
		c0.24,0.26,0.29,0.68,0.39,1.02c0.11,0.39,0.3,0.72,0.41,1.11c0.14,0.49,0.45,0.85,0.59,1.33c0.08,0.26,0.13,0.51,0.26,0.76
		c0.1,0.18,0.19,0.32,0.26,0.51c0.12,0.33,0.2,0.7,0.22,1.06c0.02,0.25-0.03,0.5,0.01,0.75c0.02,0.13,0.03,0.26,0.11,0.36
		c0.02,0.03,0.06,0.03,0.08,0.06c0.14,0.24,0.08,0.64,0.19,0.92c0.11,0.3,0.22,0.59,0.23,0.94c0.01,0.45-0.12,0.87-0.12,1.32
		c0,0.23,0.04,0.48-0.01,0.7c-0.03,0.16-0.04,0.28-0.04,0.45c-0.01,0.41-0.16,0.83-0.23,1.24c-0.04,0.22-0.14,0.38-0.22,0.58
		c-0.03,0.09-0.07,0.25-0.15,0.27c0.04,0.38,0.08,0.09,0.15-0.04c0.04-0.09,0.1-0.15,0.15-0.23c0.08-0.13,0.11-0.27,0.17-0.41
		c0.1-0.23,0.19-0.43,0.23-0.71c0.03-0.16,0.05-0.31,0.09-0.47c0.04-0.17,0.02-0.33,0.04-0.49c0.03-0.11,0.06-0.19,0.07-0.31
		c0.03-0.53-0.05-1.08,0.01-1.61C42.52,23.28,42.55,22.98,42.51,22.67z"/>
</g>
</svg>
