<?xml version="1.0" encoding="utf-8"?>
<!-- Generator: Adobe Illustrator 25.0.1, SVG Export Plug-In . SVG Version: 6.00 Build 0)  -->
<svg version="1.1" id="레이어_1" xmlns="http://www.w3.org/2000/svg" xmlns:xlink="http://www.w3.org/1999/xlink" x="0px"
	 y="0px" viewBox="0 0 42.52 42.52" style="enable-background:new 0 0 42.52 42.52;" xml:space="preserve">
<style type="text/css">
	.st0{fill:#040000;}
</style>
<path class="st0" d="M42.1,34.4c-0.21-0.38-0.36-0.75-0.69-1.08c-0.53-0.52-1.33-1.09-2.05-1.43c-0.77-0.36-1.57-0.67-2.36-1
	c-0.1-0.04-0.19-0.1-0.3-0.14c0.14-0.23,0.23-0.45,0.33-0.69c0.15-0.34,0.36-0.66,0.52-1c0.39-0.86,0.86-1.66,1.33-2.48
	c0.12-0.22,0.17-0.45,0.25-0.67c0.15-0.45,0.31-0.86,0.38-1.3c0.27-0.7,0.41-1.43,0.44-2.16c0.02-0.04,0.03-0.1,0.04-0.14
	c0.04-0.22,0.02-0.45,0.02-0.67c0-0.36-0.04-0.64-0.17-0.98c-0.02-0.05-0.05-0.1-0.07-0.16c-0.17-0.77-0.44-1.54-0.8-2.27
	c0.01-0.09,0.02-0.18,0.02-0.29c-0.01-0.17-0.08-0.25-0.11-0.42c-0.07-0.37-0.31-0.77-0.49-1.11c-0.17-0.31-0.48-0.69-0.78-0.93
	c-0.11-0.1-0.27-0.17-0.27-0.32c0-0.1,0.12-0.31,0.17-0.41c0.21-0.45,0.66-0.79,0.9-1.24c0.1-0.21,0.26-0.42,0.33-0.64
	c0.05-0.17,0.15-0.31,0.21-0.47c0.16-0.41-0.08-0.83-0.21-1.2c-0.11-0.33-0.23-0.64-0.23-1c0-0.15-0.02-0.25-0.06-0.38
	c-0.03-0.09-0.12-0.23-0.15-0.31c-0.05-0.22-0.1-0.61-0.03-0.84c0.06-0.22,0.21-0.44,0.31-0.66c0.11-0.24,0.24-0.48,0.36-0.72
	c0.02-0.03,0.03-0.06,0.04-0.09c-1.53-0.51-1.31-2.78,0.66-2.78c0.25,0,0.48,0.04,0.68,0.11c0.05-0.16,0.12-0.31,0.17-0.47
	c0.34-0.98,0.34-2.44-1.08-2.79c-0.35-0.09-0.91,0.09-1.25,0.19c-0.4,0.12-0.72,0.42-1.02,0.65c-0.48,0.36-0.97,0.7-1.47,1.06
	c-0.36,0.25-0.87,0.49-1.15,0.78c-0.22,0.22-0.43,0.37-0.7,0.54c-0.68,0.44-1.36,0.87-2.1,1.24c-0.35,0.17-0.59,0.18-0.99,0.19
	c-0.46,0-0.89-0.03-1.35-0.11l-0.04-0.08h-0.32c-0.47-0.12-0.94-0.31-1.4-0.38c-0.33-0.06-0.67-0.01-1.01,0.04
	c-0.42-0.17-0.64-0.58-1.09-0.73c-0.46-0.16-1.08-0.09-1.54,0.03c-0.34,0.09-0.7,0.24-1.08,0.35c-0.24-0.14-0.46-0.3-0.73-0.36
	c-0.36-0.08-0.63,0.11-0.9,0.28c-0.28-0.17-0.55-0.36-0.9-0.28c-0.27,0.06-0.5,0.21-0.73,0.36c-0.38-0.11-0.73-0.26-1.08-0.35
	c-0.45-0.11-1.08-0.18-1.54-0.03c-0.45,0.16-0.67,0.55-1.09,0.73c-0.33-0.04-0.67-0.1-1.01-0.04c-0.47,0.09-0.94,0.26-1.41,0.38
	h-0.32l-0.04,0.08c-0.45,0.08-0.88,0.11-1.35,0.11c-0.4,0-0.64-0.02-1-0.19c-0.74-0.37-1.43-0.8-2.1-1.24
	c-0.27-0.17-0.49-0.32-0.7-0.54c-0.3-0.31-0.8-0.55-1.16-0.8C6.35,2.8,5.87,2.46,5.38,2.09C5.07,1.86,4.75,1.57,4.35,1.44
	c-0.34-0.1-0.9-0.27-1.25-0.18C1.68,1.61,1.68,3.08,2.02,4.05c0.1,0.29,0.24,0.59,0.29,0.88c0.03,0.16,0.05,0.25,0.14,0.4
	c0.22,0.35,0.21,0.79,0.45,1.12c0.09,0.13,0.23,0.19,0.34,0.3c0.18,0.17,0.24,0.32,0.33,0.52c0.11,0.24,0.24,0.48,0.36,0.72
	c0.1,0.23,0.26,0.45,0.31,0.66C4.31,8.88,4.27,9.28,4.21,9.5C4.2,9.58,4.09,9.72,4.07,9.81C4.03,9.93,4,10.05,4,10.19
	c0.01,0.36-0.11,0.66-0.23,1c-0.12,0.37-0.37,0.79-0.21,1.2c0.06,0.17,0.17,0.29,0.22,0.47c0.06,0.22,0.22,0.43,0.33,0.64
	c0.24,0.45,0.69,0.79,0.9,1.24c0.05,0.1,0.17,0.31,0.17,0.41c0,0.16-0.15,0.23-0.27,0.32c-0.3,0.24-0.61,0.61-0.78,0.93
	c-0.18,0.34-0.41,0.74-0.48,1.11c-0.03,0.17-0.1,0.24-0.11,0.42c-0.01,0.1,0,0.2,0.02,0.29c-0.35,0.74-0.62,1.5-0.79,2.27
	c-0.03,0.05-0.05,0.1-0.07,0.16c-0.13,0.34-0.17,0.62-0.17,0.98c0,0.22-0.03,0.45,0.02,0.67c0.01,0.04,0.03,0.1,0.04,0.14
	c0.03,0.73,0.17,1.45,0.44,2.16c0.08,0.45,0.24,0.86,0.38,1.3c0.08,0.23,0.13,0.45,0.25,0.67C4.14,27.39,4.62,28.2,5,29.06
	c0.16,0.34,0.37,0.66,0.52,1c0.1,0.24,0.19,0.46,0.33,0.69c-0.1,0.04-0.2,0.1-0.3,0.14c-0.79,0.33-1.59,0.65-2.36,1
	c-0.73,0.34-1.52,0.9-2.05,1.43C0.8,33.63,0.66,34,0.45,34.39C0.3,34.65,0.1,34.91,0,35.18c0.19-0.23,0.52-0.38,0.78-0.55
	c0.66-0.41,1.25-0.77,1.98-1.09c0.49-0.22,0.94-0.45,1.44-0.65c0.29-0.1,0.57-0.18,0.81-0.33c0.46-0.27,0.98-0.42,1.5-0.59
	c0.04-0.02,0.09-0.03,0.13-0.04c0.03,0.03,0.06,0.06,0.1,0.09c0.21,0.17,0.42,0.32,0.63,0.48c-0.1,0.07-0.21,0.14-0.32,0.22
	C6.49,33.1,6,33.57,5.49,33.99c-0.44,0.37-0.94,0.7-1.24,1.15c-0.1,0.16-0.26,0.37-0.24,0.56c0.02,0.1-0.03,0.17,0.1,0.21
	c0.18,0.04,0.8-0.42,0.93-0.48c0.8-0.39,1.56-0.86,2.35-1.25c0.22-0.1,0.48-0.15,0.72-0.25c0.14-0.06,0.24-0.1,0.39-0.12
	c0.11-0.02,0.21-0.03,0.31-0.05c0.17,0.18,0.35,0.37,0.53,0.54c-0.36,0.49-0.77,0.8-1.31,1.13c-0.35,0.22-0.73,0.84-0.6,1.22
	c0.41-0.24,0.73-0.46,1.21-0.62c0.5-0.16,0.96-0.43,1.46-0.55c0.14-0.03,0.3-0.05,0.45-0.06c1.19,1.05,2.47,2.03,3.86,2.91
	c1.45,1.04,3.11,1.98,4.84,2.47c0.7,0.2,1.37,0.28,2.02,0.27c0.66,0.01,1.32-0.07,2.02-0.27c1.74-0.5,3.39-1.43,4.84-2.47
	c1.38-0.88,2.67-1.85,3.86-2.91c0.16,0.01,0.31,0.03,0.45,0.06c0.51,0.12,0.97,0.39,1.46,0.55c0.48,0.15,0.8,0.38,1.21,0.62
	c0.12-0.38-0.25-1-0.6-1.22c-0.54-0.34-0.95-0.64-1.31-1.13c0.18-0.17,0.36-0.36,0.53-0.54c0.1,0.02,0.2,0.03,0.31,0.05
	c0.15,0.03,0.25,0.06,0.39,0.12c0.23,0.1,0.49,0.15,0.72,0.25c0.8,0.39,1.55,0.86,2.35,1.25c0.13,0.06,0.75,0.53,0.93,0.48
	c0.14-0.03,0.09-0.1,0.1-0.21c0.03-0.19-0.13-0.4-0.24-0.56c-0.3-0.45-0.81-0.8-1.24-1.15c-0.51-0.43-1-0.89-1.55-1.28
	c-0.11-0.08-0.22-0.15-0.32-0.23c0.21-0.16,0.42-0.31,0.63-0.48c0.03-0.03,0.06-0.06,0.1-0.09c0.04,0.02,0.09,0.03,0.13,0.04
	c0.52,0.17,1.03,0.32,1.5,0.59c0.25,0.15,0.53,0.24,0.8,0.34c0.5,0.2,0.95,0.44,1.44,0.65c0.73,0.32,1.32,0.68,1.98,1.09
	c0.26,0.16,0.59,0.32,0.78,0.55C42.45,34.91,42.25,34.66,42.1,34.4z M15.76,22.58c-0.17-0.1-0.2-0.15-0.44-0.05
	c-0.08,0.03-0.14,0.07-0.2,0.12c0,0,0,0,0,0.01c0,0.04,0.01,0.09,0.03,0.13c0.01,0.03,0.04,0.08,0.04,0.11c0,0.05-0.07,0.1-0.1,0.13
	c-0.04,0.04-0.1,0.08-0.15,0.11c-0.04,0.03-0.08,0.08-0.13,0.11c-0.1,0.07-0.21,0.13-0.31,0.19c-0.05,0.03-0.1,0.07-0.16,0.1
	c-0.06,0.04-0.14,0.08-0.21,0.11c-0.12,0.07-0.24,0.15-0.37,0.21c-0.05,0.03-0.1,0.06-0.17,0.08c-0.07,0.02-0.14,0.03-0.21,0.04
	c-0.06,0.02-0.12,0.03-0.19,0.04c-0.07,0.01-0.13,0.03-0.2,0.04c-0.31,0.05-0.62,0.07-0.95,0.04c-0.11-0.01-0.22-0.01-0.33-0.03
	c-0.03,0-0.05,0-0.08-0.01c-0.12,0-0.24,0-0.38-0.02c-0.37-0.04-0.73-0.12-1.1-0.17c-0.67-0.1-1.27-0.39-1.64-0.8
	c-0.03-0.04-0.1-0.07-0.15-0.1c-0.08-0.07-0.1-0.17-0.15-0.24c-0.04-0.07-0.09-0.13-0.12-0.2c-0.03-0.06-0.05-0.12-0.08-0.17
	c-0.06-0.12-0.13-0.24-0.19-0.35c-0.1-0.19-0.22-0.38-0.26-0.59c-0.03-0.1-0.07-0.2-0.1-0.31c-0.03-0.1-0.02-0.2-0.04-0.3
	c-0.02-0.05-0.04-0.1-0.05-0.16c0-0.03,0.01-0.05,0.02-0.09c0.02-0.07,0-0.15,0-0.23c0.01-0.17,0.2-0.28,0.4-0.37
	c0.1-0.04,0.22-0.08,0.33-0.1c0.1-0.02,0.19-0.05,0.29-0.08c0.1-0.03,0.24-0.05,0.35-0.06c0.07,0,0.15-0.04,0.21-0.03
	c0.01-0.03-0.06-0.04-0.1-0.05c-0.1-0.03-0.23-0.03-0.34-0.07c-0.11-0.03-0.23-0.07-0.35-0.1C8.08,19.48,8,19.47,7.9,19.46
	c-0.24-0.04-0.47-0.1-0.7-0.17c-0.17-0.04-0.2-0.11-0.43-0.16c-0.22-0.04-0.45-0.03-0.59-0.17c0.21-0.23,0.85-0.09,0.71-0.02
	c0.15-0.26,0.47-0.09,0.78-0.07c0.32,0.02,0.57-0.02,0.9,0.04c0.64,0.1,1.27,0.2,1.91,0.31c0.65,0.1,1.34,0.22,1.98,0.38
	c-0.1,0.03-0.22,0.06-0.31,0.1c-0.12,0.05-0.26,0.1-0.38,0.16c-0.1,0.05-0.18,0.13-0.28,0.18c-0.04,0.03-0.1,0.04-0.13,0.07
	c-0.03,0.03-0.06,0.07-0.1,0.1c-0.09,0.09-0.17,0.17-0.24,0.26c-0.06,0.07-0.13,0.14-0.2,0.21c-0.06,0.06-0.11,0.12-0.18,0.18
	c-0.05,0.05-0.09,0.11-0.13,0.17c-0.03,0.03-0.04,0.07-0.06,0.1c-0.02,0.04-0.03,0.07-0.05,0.1c-0.03,0.06-0.04,0.12-0.07,0.18
	c-0.02,0.03-0.05,0.07-0.07,0.1c-0.03,0.05-0.04,0.1-0.06,0.16c-0.02,0.05-0.05,0.09-0.06,0.15c-0.01,0.04-0.02,0.09-0.03,0.12
	l-0.05,0.22C10.02,22.29,10,22.36,10,22.44c0,0.05,0,0.1-0.01,0.17C9.99,22.63,10,22.66,10,22.68c0,0.03-0.01,0.06,0,0.09
	c0.01,0.03,0.01,0.06,0.01,0.09c-0.01,0.03,0.01,0.05,0.01,0.08s0.01,0.05,0.01,0.08s-0.02,0.04-0.02,0.07
	c0.01,0.03,0.06,0.1,0.03,0.15c0.03-0.03,0.09-0.07,0.13-0.1c0.07-0.05,0.12-0.11,0.19-0.17c0.09-0.06,0.17-0.14,0.24-0.22
	c0.07-0.07,0.14-0.15,0.21-0.22c0.09-0.1,0.17-0.19,0.24-0.29c0.07-0.11,0.17-0.23,0.25-0.35c0.1-0.12,0.22-0.24,0.33-0.36
	c0.03-0.03,0.06-0.04,0.09-0.08c0.03-0.03,0.04-0.05,0.07-0.07c0.06-0.05,0.11-0.1,0.18-0.16c0.15-0.12,0.31-0.23,0.46-0.35
	c0.09-0.07,0.18-0.13,0.29-0.18c0.1-0.06,0.18-0.12,0.28-0.18c0.11-0.07,0.24-0.14,0.35-0.21c0.04-0.03,0.1-0.03,0.14-0.06
	c0.02-0.01,0.03-0.03,0.06-0.03c0.03-0.01,0.08-0.01,0.11-0.03c0.05-0.02,0.1-0.02,0.15-0.03c0.03,0.02,0.08,0.03,0.11,0.06
	c0.41,0.24,0.89,0.44,1.27,0.73c0.36,0.27,0.59,0.53,0.9,0.83c0.34,0.33,0.84,0.55,1.21,0.87c0.13,0.11,0.24,0.24,0.37,0.36
	c0.17,0.16,0.41,0.26,0.57,0.43c-0.6-0.12-1.03-0.33-1.56-0.57C16.39,22.73,16.06,22.67,15.76,22.58z M24.86,28.84
	c-1.23,0-2.03,0.67-2.4,1.55c-0.33,0.08-0.67,0.11-1.02,0.09c-0.16-0.01-0.31-0.04-0.45-0.08c-0.34-0.94-1.15-1.69-2.45-1.69
	c-0.31,0-0.59,0.04-0.85,0.12c-0.13-0.31,0.05-0.72,0.57-0.71c1.2,0.02,1.93,0.29,2.96,0.7c0.71,0.28,0.92-0.03,1.58-0.25
	c0.63-0.21,1.32-0.24,1.98-0.25c0.43-0.01,0.63,0.29,0.6,0.58C25.23,28.85,25.05,28.84,24.86,28.84z M34.93,19.09
	c-0.23,0.04-0.26,0.11-0.43,0.17c-0.23,0.07-0.46,0.12-0.7,0.17c-0.1,0.02-0.17,0.03-0.27,0.05c-0.11,0.03-0.23,0.07-0.35,0.1
	c-0.11,0.03-0.24,0.03-0.34,0.07c-0.03,0.01-0.1,0.02-0.1,0.05c0.07-0.01,0.14,0.03,0.21,0.03c0.11,0.01,0.24,0.03,0.35,0.05
	s0.18,0.06,0.29,0.08c0.11,0.02,0.24,0.05,0.33,0.09c0.2,0.08,0.39,0.19,0.4,0.36c0.01,0.07-0.01,0.15,0.01,0.23
	c0.01,0.03,0.02,0.05,0.02,0.09c-0.01,0.05-0.03,0.1-0.04,0.16c-0.03,0.1-0.01,0.2-0.04,0.3c-0.03,0.1-0.08,0.2-0.1,0.31
	c-0.04,0.2-0.16,0.39-0.25,0.59c-0.06,0.12-0.13,0.24-0.19,0.35c-0.03,0.06-0.05,0.12-0.08,0.17c-0.03,0.07-0.09,0.13-0.12,0.21
	c-0.04,0.08-0.07,0.17-0.15,0.24c-0.04,0.04-0.11,0.07-0.15,0.1c-0.37,0.41-0.96,0.72-1.64,0.82c-0.37,0.06-0.73,0.14-1.1,0.18
	c-0.13,0.02-0.25,0.02-0.38,0.02c-0.03,0-0.05,0-0.08,0.01c-0.1,0.02-0.22,0.02-0.33,0.03c-0.32,0.03-0.65,0.02-0.95-0.03
	c-0.07-0.01-0.13-0.03-0.2-0.04c-0.07-0.01-0.13-0.02-0.19-0.03c-0.07-0.02-0.14-0.03-0.21-0.04c-0.06-0.02-0.11-0.04-0.17-0.07
	c-0.14-0.06-0.24-0.13-0.38-0.21c-0.07-0.04-0.15-0.07-0.22-0.11c-0.05-0.03-0.1-0.08-0.16-0.1c-0.1-0.06-0.22-0.12-0.32-0.19
	c-0.05-0.03-0.09-0.08-0.13-0.11c-0.05-0.03-0.1-0.07-0.15-0.11c-0.03-0.03-0.1-0.08-0.1-0.13c0-0.03,0.03-0.08,0.04-0.11
	c0.02-0.04,0.03-0.09,0.03-0.13c0,0,0,0,0-0.01c-0.06-0.04-0.12-0.09-0.2-0.12c-0.24-0.09-0.25-0.03-0.45,0.03
	c-0.29,0.1-0.63,0.16-0.93,0.3c-0.52,0.24-0.94,0.45-1.55,0.59c0.16-0.17,0.39-0.27,0.57-0.43c0.12-0.12,0.24-0.24,0.37-0.37
	c0.37-0.33,0.87-0.55,1.2-0.88c0.3-0.3,0.53-0.56,0.89-0.84c0.37-0.29,0.85-0.48,1.26-0.73c0.03-0.03,0.08-0.04,0.11-0.06
	c0.05,0.01,0.1,0.02,0.15,0.03c0.03,0.01,0.08,0.01,0.11,0.02c0.03,0.01,0.04,0.03,0.06,0.03c0.04,0.02,0.1,0.03,0.14,0.05
	c0.12,0.07,0.24,0.13,0.35,0.2c0.1,0.06,0.18,0.13,0.28,0.18c0.1,0.06,0.2,0.11,0.29,0.18c0.15,0.11,0.31,0.23,0.46,0.35
	c0.06,0.05,0.12,0.1,0.18,0.16c0.03,0.03,0.04,0.04,0.07,0.07c0.03,0.03,0.06,0.05,0.09,0.08c0.11,0.11,0.24,0.23,0.33,0.36
	c0.09,0.11,0.18,0.23,0.25,0.34c0.06,0.1,0.15,0.19,0.24,0.29c0.07,0.08,0.14,0.15,0.22,0.22c0.07,0.07,0.15,0.15,0.24,0.21
	c0.07,0.05,0.12,0.11,0.19,0.17c0.04,0.03,0.1,0.06,0.13,0.1c-0.03-0.04,0.03-0.1,0.03-0.15c0-0.03-0.02-0.04-0.02-0.07
	s0.01-0.05,0.01-0.08s0.01-0.05,0.01-0.08c-0.01-0.03,0-0.06,0.01-0.09c0.01-0.03,0-0.06,0-0.09c0-0.03,0.02-0.05,0.01-0.08
	c-0.01-0.05-0.01-0.1-0.01-0.16c0.01-0.08-0.02-0.15-0.03-0.23c-0.02-0.07-0.03-0.15-0.05-0.22c-0.01-0.04-0.02-0.09-0.03-0.12
	c-0.01-0.05-0.04-0.1-0.06-0.15c-0.02-0.05-0.04-0.1-0.06-0.16c-0.02-0.03-0.05-0.07-0.07-0.1c-0.03-0.06-0.04-0.12-0.07-0.18
	c-0.02-0.03-0.03-0.07-0.05-0.1c-0.02-0.03-0.03-0.07-0.06-0.1c-0.04-0.05-0.08-0.12-0.13-0.17c-0.06-0.06-0.12-0.12-0.18-0.18
	c-0.07-0.07-0.14-0.13-0.21-0.21c-0.08-0.09-0.17-0.17-0.25-0.25c-0.03-0.03-0.06-0.07-0.1-0.1s-0.09-0.04-0.13-0.07
	c-0.1-0.05-0.18-0.12-0.28-0.17c-0.11-0.06-0.25-0.1-0.38-0.15c-0.1-0.04-0.21-0.07-0.31-0.1c0.65-0.17,1.33-0.3,1.98-0.4
	c0.64-0.1,1.27-0.21,1.9-0.32c0.33-0.06,0.58-0.03,0.9-0.04c0.3-0.02,0.62-0.19,0.78,0.06c-0.14-0.08,0.5-0.22,0.71,0.01
	C35.38,19.05,35.15,19.04,34.93,19.09z"/>
</svg>
