<?xml version="1.0" encoding="utf-8"?>
<!-- Generator: Adobe Illustrator 25.0.1, SVG Export Plug-In . SVG Version: 6.00 Build 0)  -->
<svg version="1.1" id="레이어_1" xmlns="http://www.w3.org/2000/svg" xmlns:xlink="http://www.w3.org/1999/xlink" x="0px"
	 y="0px" viewBox="0 0 42.52 42.52" style="enable-background:new 0 0 42.52 42.52;" xml:space="preserve">
<g>
	<path d="M34.69,17.79c-0.26-0.5-0.41-1-0.33-1.51c0.02-0.52,0.25-0.99,0.59-1.44c0.32-0.44,0.79-0.84,1.36-1.18
		c-0.59-0.22-1.16-0.53-1.56-0.89c-0.22-0.18-0.36-0.39-0.52-0.6c-0.16-0.22-0.26-0.45-0.34-0.7c-0.03-0.12-0.06-0.26-0.07-0.38
		c-0.02-0.12-0.03-0.25-0.03-0.38c0-0.26,0.05-0.52,0.13-0.79c0.09-0.27,0.19-0.54,0.32-0.8c0.14-0.26,0.31-0.53,0.51-0.79
		c-0.32,0.01-0.64-0.01-0.93-0.06c-0.29-0.05-0.59-0.11-0.85-0.21c-0.26-0.09-0.5-0.22-0.7-0.37c-0.19-0.15-0.39-0.31-0.55-0.53
		c-0.17-0.21-0.26-0.45-0.36-0.69c-0.09-0.24-0.15-0.5-0.17-0.78c-0.03-0.56,0.02-1.17,0.22-1.79c-1.2,0.49-2.38,0.55-3.26,0.01
		c-0.22-0.13-0.41-0.31-0.58-0.51c-0.17-0.2-0.32-0.41-0.44-0.66c-0.24-0.5-0.4-1.12-0.45-1.75c-0.47,0.46-0.99,0.79-1.49,0.99
		c-0.52,0.23-1.03,0.3-1.55,0.2c-0.51-0.07-0.97-0.36-1.37-0.72c-0.42-0.35-0.78-0.86-1.06-1.46c-0.27,0.58-0.63,1.12-1.03,1.48
		c-0.41,0.36-0.85,0.65-1.37,0.74c-0.26,0.03-0.51,0.05-0.77,0.02c-0.26-0.02-0.51-0.1-0.78-0.21c-0.52-0.22-1.03-0.52-1.51-0.98
		c-0.02,0.32-0.07,0.63-0.15,0.92c-0.07,0.3-0.17,0.58-0.28,0.83c-0.12,0.26-0.26,0.48-0.44,0.66c-0.17,0.2-0.35,0.38-0.57,0.51
		c-0.45,0.26-0.94,0.41-1.5,0.4c-0.57-0.02-1.16-0.12-1.75-0.37c0.21,0.62,0.25,1.21,0.22,1.78c-0.03,0.56-0.22,1.03-0.51,1.47
		c-0.16,0.21-0.34,0.38-0.56,0.53c-0.21,0.16-0.44,0.28-0.7,0.38c-0.26,0.1-0.55,0.17-0.85,0.22c-0.3,0.05-0.6,0.07-0.93,0.07
		c0.41,0.51,0.7,1.05,0.85,1.58c0.09,0.27,0.14,0.54,0.15,0.79c0.01,0.26-0.04,0.51-0.09,0.76c-0.07,0.26-0.18,0.49-0.32,0.7
		c-0.07,0.11-0.16,0.22-0.25,0.31c-0.08,0.1-0.17,0.2-0.27,0.29c-0.41,0.37-0.95,0.69-1.57,0.9c0.57,0.32,1.05,0.73,1.38,1.17
		c0.08,0.11,0.16,0.22,0.22,0.34c0.07,0.12,0.14,0.23,0.19,0.35c0.11,0.24,0.17,0.49,0.19,0.75c0.01,0.26,0.02,0.51-0.04,0.77
		C8.1,17.42,8,17.67,7.87,17.92c-0.25,0.5-0.61,0.98-1.12,1.41c0.32,0.05,0.62,0.13,0.9,0.23c0.29,0.1,0.56,0.22,0.8,0.36
		c0.24,0.14,0.45,0.31,0.62,0.5c0.18,0.17,0.32,0.36,0.44,0.57c0.43-0.58,0.91-1.12,1.42-1.62c-0.41-1.01-0.68-2.07-0.79-3.15
		c-0.01-0.35-0.06-0.69-0.06-1.03l0.03-1.03l0.14-1.03c0.06-0.34,0.17-0.67,0.23-1c0.37-1.32,0.99-2.57,1.81-3.68
		c0.83-1.1,1.86-2.05,3.03-2.78c1.17-0.73,2.47-1.24,3.82-1.51c1.35-0.26,2.76-0.28,4.11-0.02c1.36,0.25,2.66,0.75,3.83,1.47
		c1.18,0.72,2.21,1.66,3.05,2.76c0.84,1.09,1.47,2.34,1.85,3.67c0.38,1.32,0.52,2.71,0.41,4.09c-0.11,1.13-0.38,2.23-0.8,3.26
		c0.51,0.51,0.99,1.05,1.42,1.62c0.01-0.02,0.02-0.04,0.02-0.07c0.11-0.24,0.26-0.45,0.45-0.63c0.19-0.18,0.38-0.36,0.62-0.5
		c0.46-0.29,1.08-0.5,1.7-0.6C35.32,18.76,34.93,18.28,34.69,17.79z"/>
	<path d="M21.27,17.12c-7.01,0-12.7,5.69-12.7,12.7c0,7.01,5.69,12.7,12.7,12.7c7.01,0,12.7-5.69,12.7-12.7
		C33.97,22.8,28.29,17.12,21.27,17.12z M21.27,20.35c-3.77,0-7.19,1.46-9.74,3.84c1.94-3.37,5.57-5.65,9.74-5.65
		c4.16,0,7.8,2.27,9.74,5.65C28.46,21.81,25.03,20.35,21.27,20.35z"/>
</g>
</svg>
