<?xml version="1.0" standalone="no"?>
<!DOCTYPE svg PUBLIC "-//W3C//DTD SVG 20010904//EN"
 "http://www.w3.org/TR/2001/REC-SVG-20010904/DTD/svg10.dtd">
<svg version="1.0" xmlns="http://www.w3.org/2000/svg"
 width="330.000000pt" height="340.000000pt" viewBox="0 0 330.000000 340.000000"
 preserveAspectRatio="xMidYMid meet">

<g transform="translate(0.000000,340.000000) scale(0.100000,-0.100000)"
fill="#000000" stroke="none">
<path d="M1212 3004 c-95 -69 -172 -130 -172 -135 0 -4 104 -153 230 -330 129
-181 230 -331 230 -344 0 -11 -9 -70 -20 -130 -11 -60 -20 -110 -20 -111 0 -1
-46 15 -102 36 l-103 37 -162 354 c-89 195 -165 361 -170 370 -7 15 -35 5
-208 -72 l-200 -89 135 6 c74 4 142 8 150 8 12 1 17 -33 29 -202 7 -111 11
-205 8 -208 -6 -7 -11 -5 -145 45 -46 17 -81 27 -78 22 3 -5 46 -41 96 -81 49
-41 89 -74 88 -76 -2 -1 -87 -43 -191 -92 l-187 -91 -70 137 c-63 124 -69 133
-64 92 31 -285 44 -393 47 -396 1 -2 183 14 402 36 374 36 400 37 420 22 82
-66 175 -146 175 -152 0 -4 -36 -37 -80 -74 l-81 -68 -402 40 c-221 21 -403
38 -404 38 -5 -3 -44 -389 -41 -402 2 -9 30 39 63 105 32 67 64 121 70 121 5
0 93 -40 193 -89 l183 -90 -95 -78 c-52 -43 -93 -79 -92 -81 2 -1 54 16 115
39 61 23 113 40 115 38 6 -8 -26 -404 -33 -412 -4 -4 -70 -3 -146 3 -76 6
-139 9 -141 7 -4 -3 362 -164 384 -169 8 -2 71 124 176 355 90 197 168 363
173 368 12 12 236 98 242 93 8 -8 39 -209 33 -219 -3 -5 -107 -150 -229 -322
-123 -172 -225 -318 -228 -325 -3 -8 61 -60 161 -133 91 -66 170 -122 176
-124 5 -2 -27 52 -72 119 -45 67 -80 123 -78 124 2 2 80 55 175 119 141 96
172 114 177 100 2 -10 12 -66 22 -126 9 -59 18 -106 19 -105 2 2 10 50 20 108
9 58 19 113 21 122 4 14 38 -5 177 -99 95 -64 173 -118 175 -119 2 -1 -33 -57
-78 -124 -45 -67 -77 -121 -72 -119 29 11 340 246 337 255 -2 6 -100 146 -219
312 -118 166 -222 312 -230 325 -14 20 -13 36 5 147 12 69 22 126 24 128 1 1
48 -15 105 -36 l102 -39 167 -366 c91 -202 171 -367 176 -367 6 1 96 39 200
86 l190 85 -147 -7 c-122 -5 -148 -4 -148 7 0 8 -7 101 -15 208 -9 107 -14
195 -12 197 2 2 28 -6 58 -17 146 -56 179 -68 179 -65 0 2 -43 39 -95 81 -52
43 -95 79 -95 81 0 4 369 184 376 184 2 0 33 -57 69 -127 61 -119 65 -125 61
-83 -2 25 -12 120 -22 213 -12 122 -21 167 -30 167 -7 0 -174 -16 -371 -35
-197 -19 -374 -35 -394 -35 -31 0 -52 13 -132 78 -53 42 -95 80 -94 84 5 18
161 138 181 138 11 0 189 -16 393 -36 205 -20 379 -34 386 -31 12 4 18 49 53
387 4 42 0 35 -62 -85 -36 -71 -68 -132 -70 -134 -5 -6 -373 172 -373 180 -1
4 42 41 94 84 52 42 95 78 95 80 0 2 -52 -17 -116 -41 -65 -24 -119 -42 -121
-40 -6 5 24 406 31 413 2 3 69 1 148 -5 79 -5 144 -8 145 -7 2 0 -88 41 -198
89 -110 49 -201 87 -203 85 -2 -2 -79 -168 -170 -369 l-167 -366 -113 -42
c-62 -23 -117 -42 -123 -42 -10 0 -25 66 -38 170 l-6 45 230 322 c127 177 231
326 231 332 0 7 -288 225 -339 255 -7 5 23 -46 68 -112 45 -67 81 -125 81
-129 0 -8 -330 -233 -341 -233 -3 0 -14 50 -24 110 -11 61 -22 110 -25 110 -3
0 -14 -48 -23 -107 -10 -59 -20 -109 -22 -112 -6 -5 -344 221 -345 231 0 3 36
61 80 127 44 67 79 121 77 121 -1 0 -80 -57 -175 -126z m493 -1274 c14 -27 14
-33 0 -61 -14 -26 -21 -30 -53 -27 -49 4 -72 41 -53 87 12 27 18 31 52 31 33
0 41 -5 54 -30z"/>
</g>
</svg>
