<?xml version="1.0" standalone="no"?>
<!DOCTYPE svg PUBLIC "-//W3C//DTD SVG 20010904//EN"
 "http://www.w3.org/TR/2001/REC-SVG-20010904/DTD/svg10.dtd">
<svg version="1.0" xmlns="http://www.w3.org/2000/svg"
 width="432.000000pt" height="419.000000pt" viewBox="0 0 432.000000 419.000000"
 preserveAspectRatio="xMidYMid meet">
<g transform="translate(0.000000,419.000000) scale(0.100000,-0.100000)"
fill="#000000" stroke="none">
<path d="M2655 3910 c-96 -15 -255 -66 -455 -145 -209 -82 -276 -114 -399
-190 -212 -132 -228 -192 -44 -165 137 20 284 61 438 123 501 199 634 213 729
74 53 -77 73 -168 58 -263 -21 -133 -102 -302 -210 -440 l-44 -56 -31 61 c-59
120 -202 224 -345 252 -92 17 -274 6 -392 -24 -198 -51 -471 -172 -675 -299
-172 -107 -345 -268 -345 -320 0 -59 267 20 455 134 195 119 437 227 612 273
178 47 313 43 402 -13 103 -63 134 -150 91 -250 -12 -29 -26 -52 -30 -52 -3 0
-66 -49 -139 -109 -121 -101 -135 -109 -165 -104 -43 7 -75 -11 -88 -48 -6
-19 -17 -29 -30 -29 -31 0 -54 -17 -68 -50 -7 -16 -18 -30 -26 -30 -29 0 -64
-24 -73 -51 -6 -18 -17 -29 -28 -29 -26 0 -63 -28 -73 -55 -5 -13 -21 -26 -37
-30 -36 -8 -63 -33 -63 -56 0 -13 -12 -22 -41 -29 -32 -9 -43 -18 -55 -46 -11
-26 -20 -34 -39 -34 -30 0 -65 -32 -65 -60 0 -15 -7 -20 -28 -20 -31 0 -72
-36 -72 -63 0 -12 -8 -17 -25 -17 -29 0 -75 -40 -75 -65 0 -9 -9 -15 -25 -15
-28 0 -75 -40 -75 -63 0 -7 -17 -18 -37 -23 -29 -7 -42 -17 -53 -41 -8 -18
-20 -33 -27 -33 -30 0 -64 -26 -75 -57 -10 -26 -17 -33 -39 -33 -30 0 -69 -40
-69 -71 0 -17 -9 -19 -83 -19 -141 0 -225 -35 -310 -129 -169 -189 -168 -449
4 -604 171 -155 366 -168 562 -37 90 60 131 105 165 180 22 46 27 73 30 173
l5 118 26 -5 c38 -8 74 14 87 54 8 25 18 36 35 38 33 5 57 28 64 63 5 22 12
29 29 29 28 0 66 39 66 68 0 16 6 22 23 22 32 0 56 20 65 55 6 21 16 31 40 37
33 9 62 41 62 70 0 11 7 18 19 18 26 0 71 38 71 61 0 13 12 24 39 35 36 14 61
46 61 79 0 9 10 15 23 15 32 0 56 20 65 55 6 21 16 31 40 37 33 9 62 41 62 70
0 12 8 18 23 18 29 0 67 39 67 68 0 17 6 22 25 22 30 0 62 30 71 65 4 16 13
25 26 25 25 0 68 43 68 69 0 13 9 21 29 26 44 9 63 37 60 84 -3 39 1 45 61
107 75 76 148 116 295 164 136 44 300 53 421 22 237 -60 390 -207 456 -437 19
-68 22 -104 22 -235 1 -173 -13 -261 -70 -451 -45 -154 -73 -286 -81 -386 -5
-72 -4 -83 11 -89 58 -22 252 305 305 516 82 326 64 646 -49 875 -148 298
-497 476 -856 438 -54 -6 -100 -10 -102 -8 -2 1 24 40 58 86 84 116 185 323
210 429 22 94 26 211 9 292 -30 148 -157 314 -272 357 -69 25 -177 34 -262 21z
m-1832 -2830 c24 -42 43 -58 84 -66 18 -3 39 -16 47 -29 8 -13 32 -29 52 -35
l36 -12 -6 -51 c-10 -73 -28 -100 -96 -145 -75 -50 -121 -66 -173 -59 -50 7
-144 71 -172 118 -28 48 -25 124 8 192 32 64 62 94 114 113 57 21 83 14 106
-26z"/>
</g>
</svg>
