<?xml version="1.0" encoding="utf-8"?>
<!-- Generator: Adobe Illustrator 25.0.1, SVG Export Plug-In . SVG Version: 6.00 Build 0)  -->
<svg version="1.1" id="레이어_1" xmlns="http://www.w3.org/2000/svg" xmlns:xlink="http://www.w3.org/1999/xlink" x="0px"
	 y="0px" viewBox="0 0 42.52 42.52" style="enable-background:new 0 0 42.52 42.52;" xml:space="preserve">
<path d="M42.46,22.3c-0.01-0.36-0.13-1-0.17-0.87c0,0.14-0.03,0.36-0.07,0.37l-0.03-0.31c-0.01,0-0.01-0.01-0.03-0.01v-0.04
	l0.1-2.21l-0.63-1.4l0.04,0.03l-0.07-0.1l-0.2-0.44c0.03,0,0.06,0.04,0.1,0.13c-0.04-0.17-0.09-0.24-0.11-0.29
	c-0.03-0.06-0.06-0.13-0.06-0.29c0-0.03,0.01-0.01,0.03,0.01l-0.11-0.33c0.04,0.06,0.07-0.07,0.1,0.13
	c-0.09-0.61-0.33-0.94-0.3-1.19l0.01,0.04c-0.19-0.61-0.16-0.34-0.24-0.43l-0.01-0.03l-0.06-0.36l0.11-0.31l-0.1-0.07
	c-0.01-0.09-0.03-0.26,0.01-0.24c-0.11-0.31-0.03,0.06-0.11-0.11c0.01-0.34-0.13-0.86-0.13-1.14c-0.03-0.07-0.06-0.13-0.04-0.16
	c-0.16-0.09,0.21,0.39-0.11,0.03c0.06-0.2-0.33-0.4-0.5-0.76c0.14,0.04,0.31,0.37,0.14,0.01c-0.24-0.1-0.43-0.63-0.64-0.87
	c-0.09,0.06-0.47-0.54-0.84-0.94c0.01,0-0.06-0.11-0.17-0.27S38.1,9.5,37.96,9.3c-0.06-0.17-0.11-0.34-0.16-0.46h0.03
	c-0.14-0.04-0.33-0.54-0.5-0.89C37.4,7.94,37.44,8,37.56,8.17l-0.14-0.33c-0.06-0.09-0.11-0.19-0.21-0.39l0.11,0.06l-0.07-0.16
	c-0.03-0.07-0.06-0.13-0.1-0.2c-0.16-0.13-0.31-0.26-0.49-0.4c-0.16-0.13-0.31-0.29-0.47-0.46c-0.06,0.01,0.06,0.24-0.01,0.26
	L35.94,6.3c0.03-0.01,0.07,0,0.14,0.04c-0.04-0.03-0.17-0.11-0.24-0.2l0.24,0.13c-0.19-0.21-0.14-0.06-0.3-0.21
	c0.04-0.04-0.09-0.14-0.04-0.16c0.04,0.03,0.13,0.16,0.2,0.2c-0.09-0.09-0.19-0.2-0.26-0.29c-0.07-0.1-0.13-0.17-0.19-0.26v0.01
	c0,0.01,0,0.01-0.01,0.01c-0.03,0.01-0.11,0-0.21-0.04c-0.43-0.21-0.11-0.14-0.36-0.29c-0.13-0.01-0.37-0.19-0.43-0.11
	c-0.13-0.07-0.14-0.13-0.17-0.17c-0.24-0.07-1.04-0.5-0.84-0.3l0.06,0.03c-0.01,0-0.03-0.01-0.04-0.01L33.4,4.66
	c-0.69-0.37-1.31-0.97-1.99-1.36l0.01-0.03C31,3.04,30.5,2.71,30.17,2.58c-0.11-0.07-0.26-0.23-0.19-0.23
	c-0.09-0.04-0.16-0.09-0.21-0.11c-0.2-0.07-0.3-0.1-0.66-0.3c0.36,0.1-0.1-0.09,0.37,0.11c-0.43-0.21-0.51-0.3-1.01-0.41
	c0.19,0-0.3-0.23-0.51-0.3l0.29,0.19C28,1.44,27.8,1.34,27.59,1.26l0.16-0.04c-0.36-0.2-0.73-0.3-1.06-0.4
	c-0.17-0.04-0.34-0.09-0.5-0.14c-0.09-0.03-0.16-0.06-0.23-0.07l-0.11-0.04l-0.17-0.07c-0.23,0.01-0.31,0.01-0.46,0
	c-0.13,0.06,0.01,0.04,0.14,0.04c0.11,0,0.34-0.01,0.19,0.04c-0.47,0.04-0.94-0.04-1.09-0.01c-0.29,0.01-0.43,0.06-0.57,0.11
	c-0.07,0.03-0.13,0.06-0.21,0.09c-0.07,0.03-0.21,0.06-0.26,0.06c-0.01,0-0.03-0.01-0.06-0.03c0.01,0.04,0.13,0.19-0.36,0.06
	c-0.43-0.16-0.47-0.31-0.2-0.26c0.1,0.03,0.14,0.06,0.14,0.07c0.14,0.03,0.33,0.09,0.17-0.01l-0.06,0.03
	c-0.2-0.1-0.79-0.3-0.63-0.31c-0.34-0.07-0.16,0.01,0.07,0.11c-0.21-0.1-0.4-0.17-0.59-0.23c-0.21-0.07-0.43-0.14-0.67-0.23
	c-0.06,0.01-0.13,0.04-0.2,0.06c-0.06,0.01-0.1,0.03-0.16,0.04c0.04,0,0.1,0,0.13,0c0.04,0,0.03,0.01-0.01,0.03
	c-0.84,0.24-0.34,0.19-0.9,0.4c-0.34,0.06,0.07-0.16-0.47,0.07c-0.36,0.09-0.1-0.07,0.03-0.14c-0.11,0.06-0.23,0.1-0.33,0.13
	c-0.06,0.01-0.1,0.03-0.16,0.06l-0.09,0.01c-0.03,0.01-0.01,0-0.03,0c0,0-0.09,0-0.14-0.01c-0.06,0-0.11,0-0.17-0.01
	c-0.11,0-0.2-0.01-0.29-0.01l0.29-0.04c-0.17,0.03-0.31,0.04-0.46,0.04l0.17,0.06c-0.17,0-0.31,0-0.31-0.03
	c-0.17,0.06,0.14,0.11-0.2,0.2c-0.23-0.03-0.69,0.09-0.76,0c0.7-0.01-0.09-0.09,0.51-0.14c-0.11,0.01-0.26,0.03-0.43,0.03
	c-0.03-0.01,0.03-0.01,0.07-0.03c-0.11-0.01-0.2-0.01-0.26,0c-0.03,0-0.06,0-0.09,0.01c-0.03,0-0.06,0.01-0.09,0.01
	c-0.01,0-0.03,0.01-0.04,0.01l-0.03,0.01L16.8,0.8c-0.03,0.01-0.06,0.03-0.09,0.06c-0.07,0.04-0.19,0.07-0.41,0.11
	c0.07-0.07-0.17-0.07-0.29-0.04c0.29-0.04,0.14,0.06-0.1,0.14c-0.44,0.04-0.47,0.11-0.7,0.14l0.27-0.03
	c-0.09,0.07-0.3,0.1-0.61,0.17c-0.01-0.01,0.03-0.03,0.07-0.04c-0.06,0.01-0.11,0.03-0.2,0.04c-0.1,0.09-0.17,0.1-0.24,0.13
	c-0.07,0.03-0.16,0.07-0.23,0.1c-0.16,0.06-0.31,0.14-0.46,0.24c-0.21,0.07-0.07-0.09-0.26,0C13.12,2.16,13,2.04,12.55,2.37
	c0.17-0.01,0.19-0.04-0.13,0.21l0.79-0.5l-0.47,0.39c0.24-0.14,0.5-0.33,0.66-0.4c-0.23,0.19-0.2,0.16-0.06,0.14
	c-0.39,0.1-0.64,0.43-1.06,0.59l-0.09-0.16c-0.24,0.1-0.44,0.23-0.64,0.36c-0.1,0.07-0.21,0.14-0.31,0.21
	c-0.1,0.07-0.2,0.14-0.31,0.21h-0.04l-0.06,0.03c-0.04,0.01-0.07,0.01-0.11,0.03c-0.09,0.03-0.19,0.04-0.27,0.07l0.27-0.04
	c-0.09,0.1-0.51,0.16-0.77,0.26c0-0.07-0.17-0.04-0.3-0.04c0.03,0.04-0.61,0.17-0.66,0.3H8.92L8.83,4.04L8.66,4.07L8.49,4.26
	C8.03,4.8,8.15,5,7.72,5.53c0.07-0.2-0.14,0.01,0.09-0.37C7.66,5.34,7.53,5.5,7.58,5.53C7.53,5.56,7.49,5.61,7.45,5.7
	C7.4,5.77,7.32,5.9,7.3,5.93L7.28,5.95C7.25,5.97,7.22,5.98,7.2,6C7.16,6.03,7.12,6.05,7.08,6.05C7,6.13,7.02,6.2,6.79,6.33
	C6.76,6.34,6.78,6.3,6.78,6.3c0.01,0.03-0.31,0.24-0.1,0.19C6.5,6.54,6.3,6.64,6.1,6.75C5.99,6.81,5.89,6.87,5.79,6.94L5.45,7.15
	c-0.07,0.1-0.14,0.19-0.23,0.29c-0.07,0.09-0.14,0.17-0.2,0.24C4.89,7.84,4.76,7.97,4.65,8.05C4.43,8.33,4.21,8.64,4.01,8.91
	C3.93,9.1,3.88,9.27,3.83,9.41c-0.01-0.03-0.03-0.01,0-0.09c-0.26,0.56,0.04,0.41-0.26,1.06c-0.2,0.3,0.09-0.37-0.03-0.17
	c-0.16,0.01-0.23,0.46-0.34,0.81c-0.06,0.11-0.14,0.26-0.21,0.36l0.04-0.11c-0.23,0.3-0.33,0.83-0.6,1.36c0,0,0-0.03-0.03-0.01
	c-0.09,0.4-0.37,1.13-0.57,1.64c0-0.19,0.07-0.26-0.04-0.19c-0.1,0.24,0.14-0.01-0.04,0.46c-0.1,0.13-0.3,0.46-0.39,0.47l0.19-0.44
	c-0.2,0.19-0.26,0.57-0.37,0.8l-0.03-0.04C0.88,16,0.98,16.05,0.66,16.78l0.07-0.06c-0.01,0.09-0.03,0.14-0.04,0.19
	c-0.01,0.06-0.04,0.1-0.06,0.13c0,0.17-0.06,0.23,0.01,0.5l-0.11,0.14c0.04,0.29,0.19,0.99,0.24,1.5c-0.1-0.29-0.19-0.87-0.27-1.24
	c0.01,0.29,0.07,0.96,0.14,1.1c-0.01-0.11-0.06-0.26-0.04-0.37c0.06,0.17,0.11,0.4,0.14,0.6c-0.01,0.19-0.06,0.46-0.1,0.73
	c-0.16-0.1-0.26,0.77-0.43,1.4c-0.03,0.21-0.06,0.36-0.1,0.46c0.01,0.29,0.01,0.57-0.01,0.87c-0.01,0.14-0.01,0.29-0.03,0.44
	c0.01,0.13,0,0.29-0.01,0.44c0.01,0.23,0.04,0.46,0.06,0.7c0.01,0.23,0.04,0.46,0.07,0.71c0.13-0.43,0.04,0.34,0.21,0.24
	c0.03,0.19,0.04,0.29,0.04,0.34c0,0.02,0,0.05,0,0.06c0,0.06,0,0.09,0,0.17l0.11,0.69c0.01,0.2-0.11-0.23-0.14-0.2
	c0.17,0.57,0,0.26,0.07,0.64c0.04-0.1,0.16,0.17,0.23,0.5l-0.06-0.49c0.13,0.29,0.17,0.46,0.19,0.6c0.01,0.07,0.01,0.14,0.03,0.21
	c0,0.03,0.01,0.07,0.01,0.11c0,0.01,0,0.04,0.01,0.06c0.01,0.03,0.01,0.07,0.03,0.11c0.07,0.11,0.09,0.16,0.14,0.23
	c0.04,0.07,0.1,0.14,0.17,0.23l-0.19-0.19c0.13,0.17,0.34,0.5,0.57,0.81c0.11,0.16,0.23,0.31,0.34,0.46
	c0.06,0.07,0.1,0.13,0.16,0.19c0.03,0.03,0.06,0.04,0.07,0.07c0.03,0.03,0.04,0.04,0.06,0.04c-0.01,0,0,0.07-0.01,0.09
	c0,0.01-0.01,0.01-0.03,0c-0.01,0-0.04-0.04-0.04-0.04c0.26,0.57,0.69,1.3,0.97,1.87c0.11,0.29,0.23,0.6,0.3,0.84l-0.07-0.06
	c0.07,0.17,0.2,0.29,0.23,0.51c-0.03,0-0.07-0.06-0.04,0.03c0.03,0.04,0.09,0.16,0.16,0.29c0.03,0.07,0.07,0.14,0.09,0.21
	c0.01,0.03,0.03,0.07,0.04,0.1c0.01,0.06,0.04,0.11,0.06,0.16l-0.09-0.16l-0.06-0.1c0.01,0.06,0.03,0.1,0.06,0.16
	c0.03,0.07,0.06,0.16,0.07,0.23c0.07,0.06,0.16,0.1,0.23,0.16c0.04,0.03,0.09,0.06,0.13,0.09c0.09,0.06,0.16,0.1,0.23,0.14
	c0.16,0.09,0.3,0.16,0.44,0.24c0.3,0.14,0.59,0.29,0.9,0.49c-0.01,0.01,0,0.04,0.01,0.07c0.01,0.01,0.01,0.03,0.04,0.04
	c0.01,0.01,0.01,0.03,0.01,0.03c-0.01,0.01,0.04,0.1,0.09,0.16c0.04,0.07,0.1,0.14,0.16,0.21c0.1,0.14,0.21,0.3,0.3,0.4H6.4
	c0.14,0.16,0.27,0.31,0.4,0.46c0.14,0.16,0.27,0.3,0.41,0.43l0.13,0.09l0.1,0.07l0.19,0.13c0.13,0.09,0.26,0.17,0.39,0.26
	c0.26,0.17,0.51,0.34,0.8,0.54c0.04,0.06,0.13,0.13,0.17,0.19c0.16,0.19,0.41,0.46,0.69,0.73c0.29,0.29,0.6,0.6,0.9,0.9
	c0.09,0.04,0.19,0.09,0.27,0.11c0.07,0.03,0.13,0.06,0.2,0.09c0.13,0.06,0.26,0.11,0.37,0.17c-0.14-0.09,0.06-0.09,0.24-0.03
	c0.23,0.11,0.69,0.19,0.6,0.27l-0.09-0.04c0.09,0.1,0.24,0.19,0.49,0.3c0.19,0.06,0.39,0.11,0.56,0.17l0.11-0.13
	c0.2,0.11,0.43,0.21,0.67,0.3c0.13,0.04,0.26,0.09,0.39,0.13l0.2,0.06l0.1,0.03c0.03,0.01,0.07,0.01,0.07,0.01
	c0.16,0.07,0.33,0.14,0.47,0.21c0.16,0.07,0.31,0.14,0.46,0.21c0.29,0.14,0.51,0.27,0.63,0.4c0.13,0.04,0.23,0.09,0.49,0.2
	c0.27-0.04,0.37-0.06,0.5-0.1v0.09c0.34-0.03,0.6-0.06,0.87-0.09c0.14-0.01,0.29-0.03,0.44-0.06c0.07-0.01,0.16-0.01,0.26-0.03
	c0.04,0,0.09-0.01,0.14-0.01l0.07-0.01h0.01c0,0,0,0,0.01,0l-0.01,0.01c-0.01,0.01,0.01,0.03-0.04,0.04c0.06,0,0.03,0,0.04-0.01
	c0.01,0,0.04,0,0.07,0c0.04,0,0.09,0,0.13-0.01c0.09-0.01,0.16-0.03,0.23-0.04c0.14-0.03,0.3-0.06,0.5-0.01l0.11,0.16
	c0.17,0.03,0.36,0.07,0.53,0.11l0.26,0.06l0.34,0.09l0.44-0.1l0.37-0.09c0.24-0.06,0.49-0.13,0.71-0.23
	c-0.01,0.01-0.03,0.06-0.16,0.1c0.17-0.04,0.51-0.11,0.8-0.17c0.07,0,0.13,0,0.19,0c0.07,0,0.14,0,0.19-0.01
	c0.1-0.01,0.16-0.04,0.11-0.09c0.01,0.11,0.89,0.01,1.36-0.03l-0.07,0.09c0.09-0.03,0.14-0.04,0.2-0.06s0.1-0.03,0.19-0.04
	c0.11-0.04,0.14-0.07,0.24-0.1c0.09-0.03,0.2-0.07,0.34-0.11c0.13-0.01,0.13,0.04-0.04,0.06c0.43-0.06,0.31-0.16,0.83-0.23
	l-0.17,0.1c0.43-0.1,0.39-0.11,0.61-0.23c0.26-0.1,0.83-0.16,0.91-0.1c0.04-0.06,0.27-0.17,0.53-0.2c0.04,0.01-0.04,0.06-0.1,0.07
	c0.26-0.03,0.46-0.09,0.64-0.14c0.01,0,0.02-0.01,0.02-0.01c0.06,0.06,0.46-0.01,0.13,0.16c0.06-0.01,0.11-0.04,0.17-0.07
	c0.03-0.01,0.07-0.03,0.1-0.04c0.06-0.01,0.13-0.04,0.19-0.06c0.06-0.04,0.13-0.11,0.16-0.16l0.1-0.1l0.2-0.2
	c0.14-0.13,0.29-0.26,0.41-0.34c0.03-0.01,0.04-0.01,0.07-0.01l-0.03,0.03c0.09-0.06,0.16-0.13,0.23-0.19
	c0.13-0.09,0.2-0.13,0.31-0.21c0.06,0,0.2-0.1,0.37-0.24c0.1-0.09,0.2-0.19,0.27-0.26c-0.07-0.04,0.17-0.26-0.1-0.1
	c0.03-0.01-0.03,0.04-0.14,0.14c-0.02,0.02-0.04,0.04-0.06,0.06l-0.06,0.04l-0.41,0.34c0.1-0.13,0.2-0.24,0.39-0.37
	c0.04-0.03,0.07-0.04,0.1-0.07c0.06-0.13,0.11-0.26,0.14-0.33c0.31-0.13,0.83-0.51,0.94-0.51c0.14-0.14,0.3-0.31,0.47-0.49
	c0.1-0.09,0.21-0.17,0.31-0.26c0.11-0.09,0.21-0.17,0.31-0.26c0.2-0.17,0.36-0.33,0.46-0.47c0.16-0.14,0.21-0.1,0.3-0.13
	c-0.09,0.09-0.2,0.16-0.24,0.21c0.07-0.06,0.16-0.13,0.24-0.2c0.1-0.07,0.2-0.16,0.3-0.23c0.06-0.07,0.11-0.13,0.16-0.19
	s0.09-0.11,0.11-0.16c0.07-0.1,0.11-0.17,0.1-0.21c0.39-0.36-0.11,0.29,0.34-0.26l-0.01,0.19c0.93-0.83,1.29-1.6,2.26-2.44
	c0.06-0.1,0.1-0.16,0.16-0.23s0.1-0.14,0.16-0.21c-0.07,0.09-0.1,0.13-0.13,0.14c0.31-0.5,0.63-1.03,0.91-1.56l0.6-0.9
	c0.2-0.31,0.4-0.6,0.61-0.91c0.23-0.46,0.44-0.86,0.7-1.27c0.11-0.19,0.16-0.31,0.2-0.41c0.01-0.06,0.03-0.1,0.04-0.14
	c0-0.03,0.01-0.04,0.01-0.07c0.01-0.03,0.01-0.06,0.03-0.1c0-0.03,0-0.07,0-0.13l0.1-0.1l-0.03-0.53c0.01-0.26,0.06-0.49,0.13-0.71
	c0.03-0.11,0.07-0.23,0.1-0.34c0.01-0.06,0.03-0.11,0.04-0.19c0.01-0.06,0.03-0.11,0.04-0.17l0.01-0.01l0.01-0.04l0.03-0.09
	c0.01-0.06,0.04-0.11,0.06-0.17c0.03-0.11,0.06-0.24,0.09-0.39l-0.1,0.1c0.11-0.31,0.29-1.03,0.34-0.94c0-0.04-0.03-0.13,0.04-0.24
	h0.04l0.03-0.16l0.04-0.19l-0.06-0.51C42.29,22.48,42.44,23.22,42.46,22.3z M29.24,15.01c-0.13-0.1-0.21-0.17-0.3-0.24
	c0-0.03,0-0.06,0-0.09c0.73-0.11,1.47-0.23,2.2-0.34s1.46-0.26,2.21-0.39c-0.01-0.09-0.03-0.14-0.06-0.27
	c1.71-0.47,3.41-0.94,5.13-1.41c0.01,0.01,0.03,0.04,0.03,0.06c-0.04,0.06-0.09,0.11-0.13,0.17c-1.81,1.67-3.57,3.39-5.57,4.84
	c-1.59,1.16-3.19,2.27-4.76,3.43c-1.43,1.04-2.84,2.1-4.09,3.36c-0.14,0.14-0.33,0.26-0.53,0.33c-0.21,0.07-0.49,0.01-0.56-0.21
	c-0.04-0.16,0-0.41,0.11-0.54c1.43-1.73,3.03-3.27,4.77-4.68c0.51-0.41,1.03-0.86,1.53-1.3c0.2-0.19,0.36-0.44,0.54-0.66
	c0.1-0.13,0.23-0.26,0.33-0.39c0.19-0.27,0.37-0.54,0.56-0.81c-0.03-0.04-0.06-0.09-0.07-0.11c-0.51,0.03-1.03,0.04-1.53,0.1
	c-0.5,0.04-0.87-0.13-1.14-0.61C28.34,15.14,28.77,15.08,29.24,15.01z M18.96,21.32c0.21,0.16,0.47,0.29,0.7,0.44
	c0.11,0.07,0.2,0.19,0.31,0.27c0.09,0.06,0.17,0.09,0.27,0.11c0.11,0.04,0.24,0.06,0.37,0.09c0,0.03,0,0.06,0,0.09
	c-0.26,0.03-0.5,0.07-0.76,0.07c-1.24,0.04-2.43-0.11-3.51-0.79c-0.5-0.31-0.79-0.84-0.73-1.41c0.1-0.84,0.5-1.49,1.21-1.93
	c0.61-0.39,1.29-0.6,1.99-0.8c0.13-0.04,0.29,0,0.41,0c-0.26,0.43-0.5,0.86-0.76,1.26C17.9,19.64,18.09,20.68,18.96,21.32z
	 M19.92,21.21c-0.54-0.47-0.71-1.06-0.54-1.7c0.13-0.47,0.4-0.91,0.6-1.37c0.01-0.04,0.06-0.07,0.1-0.1c0.01-0.01,0.03,0,0.07,0
	c0.11,0.51-0.03,1.09,0.5,1.5c0.41-0.97,0.63-1.93,0.07-2.97c0.14,0.04,0.26,0.06,0.33,0.1c0.71,0.49,1.39,1.01,1.87,1.74
	c0.24,0.37,0.36,0.74,0.27,1.16c-0.09,0.44-0.19,0.9-0.34,1.33c-0.17,0.46-0.06,0.84,0.21,1.2c0.04,0.06,0.07,0.13,0.11,0.19
	c-0.01,0.03-0.01,0.06-0.03,0.1c-0.39-0.03-0.77-0.04-1.14-0.1C21.22,22.12,20.53,21.74,19.92,21.21z M24.47,16.95
	c0.73-0.07,1.4,0,2.01,0.43c0.29,0.2,0.44,0.46,0.46,0.81c0.03,0.67-0.13,1.24-0.7,1.66c-0.51,0.37-1.01,0.76-1.53,1.11
	c-0.39,0.27-0.84,0.4-1.34,0.33c0.34-0.34,0.7-0.67,1-1.06c0.59-0.74,0.71-1.57-0.17-2.06c-0.33-0.19-0.7-0.3-1.04-0.43
	c-0.1-0.04-0.2-0.04-0.34-0.09c0.53-0.44,1.14-0.26,1.7-0.37C24.5,17.17,24.49,17.07,24.47,16.95z M14.96,13.45
	c0.19-0.69,0.37-1.39,0.54-2.07c0.3-1.16,0.6-2.31,0.9-3.49c0.2-0.76,0.4-1.51,0.61-2.26c0.03-0.09,0.13-0.16,0.2-0.24
	c0.03,0.01,0.04,0.03,0.07,0.04c0.01-0.33,0.04-0.67,0.06-1c0.03-0.01,0.07-0.01,0.1-0.01c0.04,0.09,0.1,0.16,0.14,0.24
	c0.54,1.16,1.09,2.3,1.83,3.36c0.61,0.87,1.33,1.63,2.16,2.27c0.07,0.06,0.14,0.11,0.26,0.21c-0.19,0.01-0.31,0.03-0.5,0.06
	c0.11,0.1,0.17,0.17,0.26,0.23c2.2,1.66,4.29,3.47,6.17,5.48c0.09,0.09,0.17,0.19,0.24,0.29c0.09,0.13,0.24,0.36,0.21,0.39
	c-0.17,0.17-0.37,0.36-0.6,0.44c-0.1,0.04-0.29-0.11-0.41-0.21c-1.13-0.8-2.27-1.59-3.39-2.39c-0.86-0.61-1.7-1.26-2.56-1.89
	c-0.01,0.01-0.04,0.03-0.06,0.04c0.1,0.17,0.19,0.34,0.29,0.51c-0.86-0.37-1.63-0.84-2.34-1.46c0.07,0.3,0.14,0.59,0.21,0.93
	c-0.09-0.03-0.14-0.04-0.19-0.07c-0.41-0.34-0.84-0.69-1.26-1.04c-0.31-0.27-0.46-0.29-0.61,0.1c-0.23,0.59-0.43,1.2-0.63,1.8
	c-0.06,0.2-0.11,0.31-0.37,0.24c-0.37-0.09-0.74-0.13-1.13-0.19C15,13.75,14.89,13.7,14.96,13.45z M7.18,15.13
	c-0.83-1.14-1.47-2.37-1.9-3.73c-0.03-0.07-0.04-0.14-0.07-0.21c-0.04-0.2,0.06-0.23,0.21-0.19c0.11,0.04,0.24,0.09,0.33,0.16
	c1,0.77,2.14,1.23,3.36,1.56c1.73,0.49,3.46,1,5.21,1.41c1.07,0.24,2.19,0.3,3.29,0.46c1.91,0.27,3.83,0.41,5.76,0.53
	c0.23,0.01,0.49,0.16,0.69,0.3c0.24,0.2,0.43,0.46,0.69,0.74c-0.17,0.03-0.3,0.07-0.41,0.07c-1.97-0.03-3.93-0.01-5.88-0.13
	c-2.26-0.13-4.5-0.44-6.67-1.11c-0.17-0.06-0.34-0.07-0.51-0.11c-0.01,0.03-0.01,0.06-0.03,0.07l2.23,0.83
	c-0.01,0.04-0.01,0.07-0.03,0.11c-0.79-0.03-1.54-0.09-2.3-0.16c-0.01,0.01-0.01,0.04-0.03,0.06c0.14,0.1,0.27,0.2,0.46,0.34
	c-0.64,0.2-1.14-0.13-1.69-0.2C9.85,15.95,9.82,15.97,9.8,16c0.14,0.13,0.29,0.24,0.43,0.37c0.76,0.66,1.5,1.33,2.26,1.97
	c0.14,0.13,0.33,0.2,0.49,0.31c0.54,0.36,0.66,0.59,0.5,1.1c-0.09,0.3-0.13,0.63-0.2,0.96c-0.1-0.03-0.14-0.03-0.19-0.06
	C10.86,19.08,8.78,17.37,7.18,15.13z M20.52,27.28c-0.69,0.91-1.39,1.8-2.04,2.73c-1.13,1.59-1.86,3.34-2.06,5.3
	c-0.04,0.46-0.07,0.9-0.16,1.4c-0.3-0.41-0.59-0.83-0.89-1.24c-0.01,0.01-0.04,0.01-0.06,0.03c0.2,0.96,0.39,1.9,0.59,2.86
	c-0.03,0.01-0.06,0.04-0.09,0.06c-0.16-0.16-0.33-0.3-0.46-0.49c-0.31-0.47-0.63-0.94-0.89-1.43c-0.97-1.9-1.57-3.9-1.83-6.01
	c-0.03-0.29,0-0.57,0.06-0.87c0.17,0.54,0.34,1.07,0.54,1.69c0.03-0.11,0.06-0.16,0.06-0.2c-0.21-1.5-0.29-3-0.14-4.51
	c0.17-1.99,0.37-3.97,0.6-5.94c0.16-1.31,0.39-2.61,0.59-3.93c0.03-0.24,0.11-0.33,0.37-0.27c0.3,0.07,0.61,0.1,0.93,0.11
	c0.23,0.01,0.3,0.1,0.26,0.33c-0.49,2.16-0.53,4.34-0.39,6.54c0.09,1.37,0.26,2.76,0.39,4.13c0.01,0.07,0,0.16,0,0.27
	c-0.11-0.06-0.2-0.1-0.36-0.19c0.1,0.36,0.19,0.66,0.3,1.01c0.14-0.16,0.24-0.26,0.33-0.37c0.77-0.99,1.53-1.97,2.3-2.96
	c0.01-0.01,0.03-0.03,0.03-0.04c0.36-0.43,0.37-0.41,0.77-0.03c0.29,0.27,0.6,0.5,0.91,0.73c0.27,0.2,0.56,0.4,0.87,0.61
	C20.85,26.82,20.69,27.07,20.52,27.28z M29.96,40.88c-0.19,0.04-0.33,0.07-0.43,0.09c-0.03,0.01-0.05,0.01-0.07,0.01
	c0.07-0.02,0.13-0.04,0.2-0.07c0.04-0.01,0.09-0.03,0.11-0.04l0.16-0.04l0.11-0.1l0.09-0.07c0.06-0.04,0.13-0.09,0.19-0.11
	c0.03,0.01,0.06,0,0.1-0.01C30.24,40.65,30.09,40.78,29.96,40.88z M38.47,31.88c-0.29-0.06-0.59-0.07-0.86-0.16
	c-2.26-0.69-4.56-1.27-6.77-2.09c-3.64-1.34-7.28-2.69-10.73-4.5c-1.29-0.69-2.54-1.41-3.81-2.13c-0.26-0.14-0.37-0.37-0.3-0.67
	c0.04-0.19,0.11-0.26,0.31-0.17c1.63,0.69,3.26,1.41,4.91,2.01c1.27,0.46,2.6,0.76,3.9,1.11c0.03,0,0.06,0,0.1-0.01
	c-0.06-0.09-0.1-0.16-0.19-0.31c0.77,0.2,1.49,0.4,2.24,0.6c-0.01-0.11-0.01-0.17-0.01-0.23c0.03-0.01,0.03-0.03,0.04-0.03
	c1.37,0.09,2.67,0.46,4.01,0.87c-0.03-0.11-0.04-0.19-0.07-0.24c-0.59-1.44-1.19-2.89-1.79-4.34c-0.09-0.2-0.21-0.39-0.29-0.59
	c-0.03-0.09-0.01-0.24,0.03-0.27c0.4-0.3,0.81-0.59,1.23-0.86c0.06-0.03,0.21,0.03,0.27,0.1c1.23,1.23,2.27,2.61,3.27,4.04
	c1.69,2.39,3,4.98,4.41,7.53c0.04,0.07,0.07,0.16,0.1,0.23C38.5,31.81,38.49,31.85,38.47,31.88z"/>
</svg>
