<?xml version="1.0" encoding="utf-8"?>
<!-- Generator: Adobe Illustrator 25.0.1, SVG Export Plug-In . SVG Version: 6.00 Build 0)  -->
<svg version="1.1" id="레이어_1" xmlns="http://www.w3.org/2000/svg" xmlns:xlink="http://www.w3.org/1999/xlink" x="0px"
	 y="0px" viewBox="0 0 42.52 42.52" style="enable-background:new 0 0 42.52 42.52;" xml:space="preserve">
<g>
	<path d="M21.27-0.01C9.51-0.01,0,9.51,0,21.26C0,33,9.51,42.53,21.25,42.53c11.74,0,21.27-9.51,21.27-21.27
		C42.52,9.51,33.01-0.01,21.27-0.01z M32.64,17.63c0,0.4,0,0.79-0.01,1.18c-0.06,1.4-0.92,5.69-1.81,6.27
		c-1.64,1.06-2.5,3.52-3,5.29c-0.53,1.85-1.63,3.39-2.29,5.19c-0.26,0.71-0.54,1.49-1.27,1.89c-0.89,0.5-2.13,0.36-3.12,0.31
		c-0.01,0-0.03,0-0.06,0c-0.01,0-0.03,0-0.06,0c-0.99,0.06-2.23,0.19-3.12-0.31c-0.72-0.4-1-1.18-1.27-1.89
		c-0.65-1.79-1.75-3.35-2.29-5.19c-0.51-1.77-1.38-4.23-3-5.29c-0.89-0.58-1.75-4.87-1.81-6.27c-0.04-1.07,0-2.14,0.17-3.2
		c-0.06-1.45,0.06-2.89,0.33-4.31l0.21,0.21c0.45-0.74,0.89-1.47,1.35-2.23l0.1-0.5c0.26,0.42,0.36,0.88,0.38,1.35
		c0.01-0.03,0.03-0.04,0.06-0.06c0.07,0.56,0.13,1.06,0.11,1.35c-0.03,0.29-0.28,2.73-0.74,2.75c3.57-0.25,6.84,1.52,8.26,3.84
		c0.1-1.18-1.6-2.64-2.93-3.35s-2.59-0.86-4.19-1.24c0.29-1.02,0.32-2.64-0.04-4.03c0.08-0.57,0.63-1.53,0.81-2.02
		c0.14,0.19,0.43,0.51,0.64,0.77c0.03-0.03,0.06-0.04,0.08-0.07C14.1,7.68,14.33,7.1,14.4,6.46c0.26,0.21,0.58,0.61,0.86,0.83
		c0.26-0.15,0.53-0.31,0.79-0.45c0.17-0.58,0.65-1.02,0.86-1.54c0.19,0.39,0.49,0.63,0.92,0.81c0.1-0.03,0.19-0.06,0.29-0.08
		c0.24-0.33,0.64-0.88,0.64-0.88s0.42,0.32,0.68,0.58c0.15-0.03,0.31-0.04,0.46-0.06c0.42-0.56,0.82-0.9,1.2-1.59
		c0.6,0.4,1.02,0.96,1.21,1.59c0.19,0.03,0.38,0.06,0.56,0.08c0.13-0.32,0.21-0.76,0.39-0.97c0.14,0.17,0.57,0.88,0.86,1.25
		c0.07,0.03,0.15,0.04,0.22,0.07c0.07-0.29,0.19-0.76,0.4-0.67c0.13-0.1,0.24-0.19,0.36-0.28c0.24,0.51,0.57,0.99,0.88,1.46
		c0.17-0.54,0.31-1.11,0.45-1.68c0.6,0.95,0.58,1.6,1.1,2.39c0.19-0.29,0.35-0.61,0.5-0.93c0.03-0.07,0.07-0.13,0.1-0.19
		c0.39,0.75,0.38,1.6,0.81,2.28c0.1-0.18,0.43-0.79,0.53-0.97c0.03,0.43,0.26,0.9,0.36,1.39c-0.5,1.46-0.51,3.37-0.19,4.49
		c-1.6,0.38-2.85,0.53-4.19,1.24c-1.34,0.71-3,2.17-2.92,3.35c1.42-2.31,4.69-4.08,8.26-3.84c-0.46-0.03-0.71-2.46-0.72-2.75
		c-0.01-0.26,0.03-0.71,0.1-1.22c0,0.01,0.01,0.01,0.01,0.03c0.17-0.13,0.4-0.18,0.6-0.1c0.11-0.18,0.22-0.38,0.32-0.57
		c0.57,0.63,0.92,1.49,0.96,2.35c0.11-0.33,0.32-0.61,0.6-0.82C32.81,13.25,32.81,15.45,32.64,17.63z"/>
	<path d="M21.31,22.23c-0.06-0.33-0.11-0.33-0.17,0c-0.45,2.63-2.38,3.64-2.38,3.64l0.19,0.03c0.74-0.4,1.75-0.21,2.28,0.45
		c0.45-0.56,1.35-0.72,2.06-0.61c0.13,0.01,0.11-0.06,0.24-0.01C23.53,25.72,21.71,24.88,21.31,22.23z"/>
	<path d="M18.78,19.15c-0.18-0.36-0.5-0.64-0.81-0.88c-0.6-0.45-1.31-0.75-2.02-1.02c-1.13-0.4-3.12-0.72-4.23-0.11
		c0.45,1.43,2.14,2.45,3.49,2.84c1.02,0.29,1.95,0.24,2.98,0.1c0.32-0.04,0.56-0.1,0.67-0.24C18.96,19.7,18.94,19.49,18.78,19.15z"
		/>
	<path d="M26.36,17.25c-0.71,0.25-1.42,0.56-2.02,1.02c-0.32,0.24-0.63,0.51-0.81,0.88c-0.18,0.35-0.18,0.56-0.08,0.7
		c0.11,0.14,0.35,0.19,0.67,0.24c1.03,0.14,1.96,0.21,2.98-0.1c1.35-0.39,3.05-1.4,3.49-2.84C29.47,16.53,27.48,16.85,26.36,17.25z"
		/>
</g>
</svg>
