<?xml version="1.0" standalone="no"?>
<!DOCTYPE svg PUBLIC "-//W3C//DTD SVG 20010904//EN"
 "http://www.w3.org/TR/2001/REC-SVG-20010904/DTD/svg10.dtd">
<svg version="1.0" xmlns="http://www.w3.org/2000/svg"
 width="353.000000pt" height="337.000000pt" viewBox="0 0 353.000000 337.000000"
 preserveAspectRatio="xMidYMid meet">

<g transform="translate(0.000000,337.000000) scale(0.100000,-0.100000)"
fill="#000000" stroke="none">
<path d="M1530 3206 c-570 -102 -1025 -491 -1206 -1031 -94 -283 -99 -634 -13
-928 39 -131 140 -336 226 -456 216 -301 550 -519 924 -603 91 -20 130 -23
319 -23 189 0 228 3 319 23 206 46 409 136 578 255 114 81 271 239 355 357 75
107 163 276 203 394 86 253 103 562 46 824 -128 585 -584 1041 -1174 1173
-119 27 -460 35 -577 15z m-387 -902 c171 -45 286 -116 502 -308 53 -47 56
-48 79 -33 23 15 24 15 30 -7 6 -24 31 -36 79 -36 33 0 37 -28 7 -55 -15 -14
-29 -16 -63 -12 -40 6 -47 3 -75 -26 -36 -37 -40 -63 -16 -108 19 -38 15 -44
-84 -107 -147 -94 -251 -135 -391 -154 -106 -14 -211 5 -311 54 -127 62 -287
252 -326 387 -22 73 -15 188 16 258 69 160 287 217 553 147z m972 -184 c17
-33 20 -60 5 -60 -5 0 -10 5 -10 10 0 6 -16 20 -35 31 -28 17 -33 24 -24 35
19 23 47 16 64 -16z m-58 -53 c11 -11 10 -18 -7 -40 -12 -14 -35 -36 -52 -48
l-31 -22 -74 18 c-87 22 -90 32 -23 83 43 33 47 34 109 28 36 -3 71 -12 78
-19z m577 -197 c90 -28 130 -55 198 -130 136 -150 203 -379 154 -527 -51 -152
-186 -201 -386 -137 -183 57 -345 159 -511 321 l-116 114 -36 -21 -35 -21 -11
32 c-19 55 -14 75 29 109 48 38 62 61 69 114 6 36 11 41 71 72 70 36 189 79
261 94 70 15 234 4 313 -20z m-834 -81 l44 -32 -23 -18 c-32 -27 -56 -24 -93
11 l-33 30 24 20 c30 26 30 26 81 -11z m145 -79 c3 -6 3 -20 0 -31 -6 -18 -9
-19 -21 -7 -8 8 -12 22 -8 31 7 19 20 22 29 7z m-55 -55 c0 -60 -61 -91 -119
-61 -40 21 -40 36 0 36 17 0 42 9 56 20 30 23 63 26 63 5z m-167 -69 c3 -8 0
-22 -8 -33 -13 -17 -14 -17 -20 0 -8 20 0 47 14 47 5 0 11 -6 14 -14z m103
-87 c28 -30 28 -31 10 -45 -28 -20 -42 -18 -82 12 -50 39 -44 61 17 63 16 1
36 -10 55 -30z m-152 -14 c17 -27 22 -65 7 -65 -5 0 -12 9 -16 19 -3 10 -17
22 -30 25 -39 10 -30 42 11 45 7 1 19 -10 28 -24z m-44 -60 c7 -9 10 -18 6
-22 -9 -9 -57 18 -50 29 8 13 30 9 44 -7z"/>
<path d="M910 2144 c-84 -22 -128 -56 -157 -121 -54 -117 -24 -250 72 -328 54
-44 76 -54 140 -66 140 -26 337 35 524 162 135 92 128 85 105 110 -35 40 -179
146 -244 182 -137 74 -304 97 -440 61z"/>
<path d="M2360 1695 c-36 -8 -115 -39 -177 -71 l-113 -56 19 -24 c109 -139
430 -314 574 -314 176 0 248 159 157 345 -51 105 -115 135 -284 134 -61 0
-140 -7 -176 -14z"/>
</g>
</svg>
