<?xml version="1.0" encoding="utf-8"?>
<!-- Generator: Adobe Illustrator 25.0.1, SVG Export Plug-In . SVG Version: 6.00 Build 0)  -->
<svg version="1.1" id="레이어_1" xmlns="http://www.w3.org/2000/svg" xmlns:xlink="http://www.w3.org/1999/xlink" x="0px"
	 y="0px" viewBox="0 0 42.52 42.52" style="enable-background:new 0 0 42.52 42.52;" xml:space="preserve">
<style type="text/css">
	.st0{fill:#040000;}
</style>
<g>
	<path class="st0" d="M42.46,27.12c-0.22-2.95-1.87-6.06-4.1-7.95c-0.17-0.15-0.36-0.26-0.55-0.32c-0.17-0.13-0.35-0.25-0.54-0.34
		c-0.32-0.15-0.68-0.26-1.04-0.35c-1.06-0.41-2.26-0.47-3.4-0.51c-2.93-0.12-5.55,1.05-8.05,2.39c0.19,0.94-0.02,1.86-1.38,2.77
		c-0.8,0.4-0.54,1.27-0.04,2.26c0.43-0.23,0.86-0.47,1.3-0.71c1.37,1.6,2.85,3.13,4.53,4.34c2.41,1.73,5.68,3.54,8.72,3.74
		C41.09,32.67,42.68,30.06,42.46,27.12z M38.66,28.69c-2.57,1.67-6.61-0.79-8.79-2.13c-1.37-0.85-2.53-1.92-3.59-3.09
		c0.7-0.4,1.4-0.79,2.11-1.18c1.76-0.94,4.09-1.49,6.08-1.41c0.73,0.03,1.86-0.04,2.51,0.31c0.02,0.01,0.03,0.03,0.05,0.03
		c0.27,0.08,0.53,0.18,0.76,0.32c0.54,0.32,0.97,0.77,1.29,1.3c0.17,0.29,0.29,0.59,0.39,0.9c0.03,0.01,0.04,0.03,0.07,0.03
		C40.18,25.54,40.18,27.69,38.66,28.69z"/>
	<path class="st0" d="M19.69,19.14c0.34-0.3,0.58-0.59,0.76-0.87c0.17,0.06,0.34,0.11,0.51,0.17c0.02,0.01,0.04,0.02,0.08,0.02
		c0,0,0.01,0.01,0.02,0.01c0.05,0.02,0.11,0.03,0.16,0.06c0.06,0.02,0.11,0.03,0.15,0.03c0.29,0.06,0.5,0.02,0.76-0.16
		c0.16-0.11,0.3-0.27,0.4-0.45c0.07-0.14,0.15-0.29,0.2-0.44c-0.04-0.07-0.07-0.1-0.11-0.16c-0.25-0.03-0.49-0.09-0.73-0.14
		c-0.19,0.05-0.33-0.03-0.52-0.08c-0.23-0.05-0.4-0.02-0.54,0.06c0.02-0.34-0.04-0.67-0.16-1c-0.29,0.21-0.56,0.42-0.84,0.63
		c-2.39-2.27-4.76-4.57-7.92-5.7C8.77,10,5.57,9.48,2.45,10.99c-2.27,1.09-2.95,4.77-2.1,6.96c1.08,2.79,3.43,5.56,6.22,6.75
		c2.82,1.2,6.15,0.73,8.89-0.54c1.62-0.75,3.09-1.72,4.51-2.77C19.34,20.47,18.96,19.65,19.69,19.14z M10,22.22
		c-1.71,0.3-3.4,0.35-4.89-0.7c-1.47-1.04-2.45-2.7-2.15-4.48c0.34-2,1.05-3.05,3.04-3.59c1.96-0.54,3.56-0.56,5.52,0.06
		c2.83,0.9,4.74,2.53,6.81,4.44C15.81,19.85,13.21,21.66,10,22.22z"/>
	<path class="st0" d="M22.01,24.5c0-0.01-0.01-0.01-0.01-0.02c-0.03-0.04-0.07-0.1-0.1-0.14c-0.04-0.04-0.09-0.09-0.1-0.11
		c-0.18-0.18-0.36-0.27-0.61-0.29c-0.25-0.02-0.5,0.05-0.72,0.17c-0.13,0.08-0.27,0.16-0.39,0.26c0.02,0.07,0.03,0.14,0.05,0.21
		c0.17,0.15,0.34,0.32,0.5,0.48c0.18,0.06,0.26,0.21,0.39,0.35c0.5,0.54,1.07,0.13,1.47-0.33c-0.14-0.17-0.28-0.35-0.42-0.54
		C22.05,24.55,22.03,24.52,22.01,24.5z"/>
	<path class="st0" d="M21.24,19.25c-0.54-0.48-1.07-0.03-1.43,0.46c0.16,0.16,0.31,0.33,0.47,0.49c0.01,0.02,0.03,0.04,0.06,0.06
		c0,0.01,0.01,0.01,0.01,0.02c0.04,0.04,0.08,0.09,0.12,0.13c0.04,0.04,0.1,0.08,0.11,0.1c0.2,0.16,0.39,0.23,0.63,0.23
		c0.25-0.01,0.49-0.1,0.7-0.23c0.12-0.09,0.25-0.18,0.36-0.29c-0.02-0.07-0.04-0.13-0.07-0.2c-0.19-0.16-0.37-0.31-0.54-0.47
		C21.46,19.52,21.38,19.38,21.24,19.25z"/>
	<path class="st0" d="M23.64,20.93c-0.01,0.01-0.02,0.02-0.02,0.03l-0.01,0.01c-0.02,0.03-0.03,0.04-0.04,0.07
		c-0.01,0.03-0.03,0.05-0.03,0.07c-0.05,0.11-0.06,0.21-0.03,0.31c0.03,0.11,0.1,0.21,0.2,0.29c0.05,0.04,0.11,0.09,0.17,0.13
		c0.03-0.02,0.05-0.03,0.08-0.06c0.05-0.11,0.1-0.22,0.15-0.31c-0.01-0.1,0.05-0.15,0.09-0.22c0.15-0.31-0.12-0.49-0.39-0.59
		C23.75,20.75,23.69,20.84,23.64,20.93z"/>
	<path class="st0" d="M20.27,23.36c0.15-0.31-0.12-0.49-0.39-0.59c-0.05,0.09-0.11,0.18-0.16,0.27c-0.01,0.01-0.02,0.02-0.02,0.03
		l-0.01,0.01c-0.02,0.03-0.03,0.04-0.04,0.07c-0.01,0.03-0.03,0.05-0.03,0.07c-0.05,0.11-0.06,0.21-0.03,0.31
		c0.03,0.11,0.1,0.21,0.2,0.29c0.05,0.04,0.11,0.09,0.17,0.13c0.03-0.02,0.05-0.03,0.08-0.06c0.04-0.1,0.1-0.2,0.14-0.3
		C20.17,23.5,20.23,23.44,20.27,23.36z"/>
	<path class="st0" d="M18.67,25.81L18.67,25.81c-0.02-0.03-0.03-0.05-0.05-0.07c-0.02-0.02-0.04-0.04-0.05-0.05
		c-0.09-0.09-0.17-0.12-0.29-0.13c-0.12-0.01-0.23,0.03-0.34,0.09c-0.06,0.03-0.12,0.08-0.18,0.12c0.01,0.03,0.02,0.06,0.03,0.1
		c0.09,0.07,0.16,0.15,0.24,0.22c0.09,0.03,0.12,0.1,0.18,0.16c0.23,0.25,0.5,0.06,0.68-0.16c-0.07-0.09-0.13-0.16-0.2-0.25
		C18.69,25.83,18.69,25.82,18.67,25.81z"/>
	<path class="st0" d="M22.3,16.1c0.31,0.07,0.67,0.05,0.75,0.22c0.36,0.08,0.75,0.16,1.07,0.27c0.17-0.03,0.34-0.04,0.51-0.07
		c0.27-0.17,0.51-0.35,0.73-0.53c0.43-0.34,0.73-0.65,0.82-0.94c0.09-0.29-0.05-0.46-0.48-0.55c-0.05-0.01-0.15-0.03-0.24-0.05
		c-0.1-0.01-0.21-0.03-0.31-0.03c-0.02,0-0.03,0-0.05,0c-0.04-0.02-0.09-0.03-0.14-0.03c-0.41-0.05-0.81-0.1-1.21-0.15
		C22.39,14.98,21.12,15.86,22.3,16.1z"/>
	<path class="st0" d="M21.63,22.32c-0.21,0-0.41-0.01-0.63-0.01c-0.03,0-0.05,0-0.07,0c-0.01,0-0.02,0-0.03,0c-0.05,0-0.11,0-0.16,0
		s-0.1,0.01-0.12,0.01c-0.22,0.01-0.28,0.06-0.21,0.17c0.07,0.1,0.25,0.23,0.51,0.38c0.14,0.08,0.29,0.16,0.45,0.23
		c0.09,0.02,0.17,0.03,0.25,0.04c0.16-0.03,0.35-0.03,0.54-0.04c0.03-0.06,0.22,0,0.38-0.04C23.22,22.89,23.7,20.27,21.63,22.32z"/>
	<path class="st0" d="M26.68,14.24c0.07,0.13,0.14,0.27,0.21,0.4c0.01,0.02,0.02,0.03,0.03,0.04c0,0.01,0.01,0.01,0.01,0.02
		c0.02,0.03,0.03,0.07,0.05,0.1c0.02,0.03,0.03,0.06,0.04,0.08c0.09,0.13,0.14,0.15,0.18,0.07c0.04-0.08,0.06-0.23,0.06-0.45
		c0-0.1,0-0.22-0.01-0.34c-0.02-0.06-0.05-0.16-0.07-0.21c-0.06-0.1-0.13-0.21-0.2-0.31c-0.04,0-0.07-0.13-0.16-0.22
		C26.48,13.05,24.68,13.65,26.68,14.24z"/>
	<path class="st0" d="M19.56,25.06c-0.05-0.09-0.12-0.2-0.19-0.31c-0.04,0-0.07-0.13-0.16-0.22c-0.35-0.37-2.14,0.23-0.15,0.82
		c0.07,0.13,0.14,0.27,0.21,0.4c0.01,0.02,0.02,0.03,0.03,0.04c0,0.01,0.01,0.01,0.01,0.02c0.02,0.03,0.03,0.07,0.05,0.1
		c0.02,0.03,0.03,0.06,0.04,0.08c0.09,0.13,0.14,0.16,0.18,0.07c0.04-0.08,0.06-0.23,0.06-0.45c0-0.1,0-0.22-0.01-0.34
		C19.62,25.2,19.59,25.11,19.56,25.06z"/>
</g>
</svg>
