<?xml version="1.0" standalone="no"?>
<!DOCTYPE svg PUBLIC "-//W3C//DTD SVG 20010904//EN"
 "http://www.w3.org/TR/2001/REC-SVG-20010904/DTD/svg10.dtd">
<svg version="1.0" xmlns="http://www.w3.org/2000/svg"
 width="344.000000pt" height="333.000000pt" viewBox="0 0 344.000000 333.000000"
 preserveAspectRatio="xMidYMid meet">

<g transform="translate(0.000000,333.000000) scale(0.100000,-0.100000)"
fill="#000000" stroke="none">
<path d="M1685 3088 c-21 -35 -40 -65 -41 -67 -2 -2 -14 -3 -28 -3 -37 0 -280
-248 -271 -277 8 -26 -2 -46 -95 -171 -43 -58 -85 -119 -93 -136 -20 -39 -87
-139 -121 -179 l-25 -30 9 40 c16 72 27 175 19 175 -4 0 -34 -32 -66 -72 -32
-40 -77 -93 -100 -118 -24 -26 -43 -57 -43 -69 0 -20 -33 -67 -133 -189 -21
-26 -60 -92 -87 -147 -26 -55 -84 -155 -129 -223 -70 -108 -79 -128 -74 -155
11 -57 32 -108 58 -139 14 -16 25 -38 25 -48 0 -10 11 -31 24 -47 13 -15 37
-55 54 -88 36 -72 61 -98 82 -85 30 19 40 11 40 -30 0 -22 5 -40 10 -40 22 0
88 -53 135 -110 30 -36 63 -64 83 -71 18 -6 32 -18 32 -27 1 -23 105 -73 150
-72 19 0 50 -9 68 -20 18 -11 39 -20 47 -20 8 0 15 -5 15 -10 0 -6 8 -13 18
-17 9 -3 37 -22 61 -41 41 -33 79 -47 164 -59 20 -3 37 -9 37 -14 0 -12 122
-11 154 1 19 7 35 6 59 -4 57 -24 118 -34 151 -25 17 5 43 9 59 9 15 0 42 8
60 17 18 9 48 17 67 19 35 2 186 35 247 53 77 23 318 218 369 297 34 56 112
134 132 134 14 0 25 15 40 50 20 47 23 50 57 50 33 0 35 2 29 25 -5 19 5 43
37 98 23 39 49 77 57 84 15 13 66 91 102 156 15 27 19 47 15 69 l-7 30 -15
-29 c-21 -40 -70 -89 -128 -126 -27 -17 -95 -77 -150 -133 -55 -56 -116 -110
-136 -120 -20 -11 -58 -45 -83 -76 -43 -53 -64 -72 -181 -157 -22 -16 -67 -36
-100 -46 -33 -9 -62 -20 -65 -24 -24 -33 -216 -122 -306 -142 -116 -25 -275
-27 -379 -4 -66 15 -86 24 -121 58 -56 54 -146 82 -292 90 -123 7 -137 12
-222 82 -30 25 -73 53 -95 64 -22 10 -53 33 -69 50 -17 17 -33 31 -37 31 -4 0
-26 12 -48 27 -35 23 -39 29 -29 43 7 10 29 39 49 65 20 27 56 86 79 132 23
46 45 83 50 83 11 0 75 137 94 202 16 57 80 150 172 250 32 36 58 76 68 106
12 34 38 73 84 124 37 40 116 150 176 243 124 194 114 180 122 172 3 -3 -17
-48 -45 -99 -83 -152 -154 -298 -149 -303 3 -3 32 24 64 61 33 36 89 98 127
137 l67 72 -14 -42 c-8 -23 -22 -52 -30 -65 -8 -13 -22 -42 -30 -64 -8 -23
-30 -63 -49 -90 -20 -27 -45 -73 -56 -102 -12 -29 -33 -75 -47 -104 l-26 -51
66 59 c37 32 90 91 119 129 44 59 52 67 55 47 5 -35 -27 -135 -51 -153 -14
-12 -27 -45 -43 -110 -12 -52 -31 -119 -43 -149 -23 -61 -26 -74 -11 -65 13 8
13 7 -6 -47 -8 -26 -28 -101 -43 -168 l-28 -122 61 59 c34 32 110 106 170 163
61 58 130 130 155 161 45 54 116 136 194 222 l38 42 -17 -34 c-9 -19 -20 -47
-24 -63 -8 -25 0 -21 71 39 43 36 79 71 79 76 0 12 162 178 168 172 3 -2 -20
-46 -50 -97 -31 -51 -58 -110 -62 -131 -7 -36 -6 -38 12 -28 11 6 52 46 92 88
71 77 71 78 51 33 -11 -25 -21 -58 -21 -75 0 -33 -44 -167 -84 -260 l-26 -60
41 45 c23 25 75 89 116 144 61 80 74 93 71 70 -3 -28 -2 -29 45 -27 36 1 47
-2 47 -14 0 -13 8 -15 45 -10 37 6 46 3 55 -12 19 -37 41 -51 80 -51 37 0 38
-1 50 -50 7 -27 15 -50 18 -50 4 0 34 14 66 30 65 33 111 39 120 14 3 -9 6
-36 6 -60 0 -49 4 -52 39 -27 15 10 45 17 82 17 48 1 59 4 59 17 0 17 -25 54
-71 104 -15 17 -32 49 -38 72 -10 38 -16 44 -51 53 -43 12 -110 64 -110 86 0
15 -52 95 -76 114 -8 8 -26 35 -39 60 -13 26 -51 72 -84 102 -45 42 -61 65
-67 93 -5 27 -15 42 -38 55 -17 10 -35 24 -41 30 -5 6 -18 19 -27 28 -10 9
-18 22 -18 28 0 6 -11 28 -25 48 -14 20 -25 47 -25 59 -1 31 -63 99 -84 91
-10 -4 -16 -1 -16 7 0 8 -8 2 -18 -13 -10 -15 -43 -56 -74 -90 -30 -35 -93
-106 -140 -159 -46 -52 -101 -124 -123 -160 -21 -35 -70 -104 -110 -154 -97
-123 -138 -181 -168 -240 -14 -28 -34 -61 -46 -75 -15 -19 -13 -10 9 35 17 33
53 110 81 170 28 61 62 133 75 160 13 28 47 78 76 112 65 77 118 150 118 164
0 6 18 41 40 78 39 66 40 68 27 111 -10 34 -18 46 -35 48 -14 2 -39 28 -69 73
-27 38 -55 71 -63 74 -8 3 -25 23 -38 46 -18 32 -26 38 -37 29 -10 -8 -17 -6
-29 12 -9 12 -16 28 -16 34 0 7 -6 14 -13 17 -13 5 -27 43 -52 135 l-11 43
-39 -63z"/>
</g>
</svg>
