<?xml version="1.0" standalone="no"?>
<!DOCTYPE svg PUBLIC "-//W3C//DTD SVG 20010904//EN"
 "http://www.w3.org/TR/2001/REC-SVG-20010904/DTD/svg10.dtd">
<svg version="1.0" xmlns="http://www.w3.org/2000/svg"
 width="417.000000pt" height="407.000000pt" viewBox="0 0 417.000000 407.000000"
 preserveAspectRatio="xMidYMid meet">
<g transform="translate(0.000000,407.000000) scale(0.100000,-0.100000)"
fill="#000000" stroke="none">
<path d="M1660 3654 l-485 -274 -59 -83 c-33 -45 -78 -105 -100 -133 -59 -72
-92 -159 -111 -294 -9 -63 -22 -149 -30 -190 -8 -42 -14 -139 -15 -218 0 -226
43 -398 148 -596 27 -51 53 -110 57 -131 6 -38 16 -46 202 -180 107 -77 220
-150 251 -163 51 -21 61 -22 119 -12 135 23 189 52 352 188 122 101 150 128
138 137 -8 5 -73 42 -145 80 -109 58 -127 71 -109 77 12 4 103 19 202 33 99
14 185 27 190 29 25 9 -131 66 -207 76 -110 15 -192 36 -255 67 -63 31 -90 59
-107 108 -61 175 293 378 560 322 99 -21 157 -52 231 -120 141 -132 217 -400
168 -590 -44 -171 -196 -369 -400 -522 -44 -32 -91 -69 -105 -81 -31 -26 -202
-105 -303 -139 -42 -14 -128 -34 -191 -44 -64 -11 -121 -23 -126 -26 -19 -12
-113 29 -212 92 -215 136 -367 253 -555 429 -96 90 -115 113 -133 162 -38 98
-67 205 -86 308 -25 136 -25 412 0 547 10 54 15 101 13 104 -11 10 -91 -141
-118 -221 -50 -149 -63 -243 -63 -441 0 -102 5 -215 13 -260 20 -126 69 -310
113 -428 37 -98 46 -112 97 -158 78 -70 239 -178 363 -244 120 -63 291 -135
322 -135 12 0 226 47 476 104 250 57 457 103 458 101 2 -2 -66 -90 -151 -197
-86 -106 -154 -194 -153 -195 1 -2 32 13 69 33 47 25 140 102 324 268 142 128
282 259 312 292 58 63 139 180 160 232 11 25 19 32 41 32 33 0 68 37 106 112
87 171 85 429 -4 705 -32 100 -30 108 28 89 26 -8 40 -21 54 -51 15 -32 36
-51 107 -95 49 -30 89 -60 89 -66 0 -32 -46 -226 -84 -354 -24 -80 -55 -194
-69 -254 -15 -60 -40 -137 -55 -171 -23 -47 -142 -408 -142 -427 0 -3 42 36
93 86 50 50 111 100 133 111 40 19 44 24 155 267 63 137 118 247 124 245 22
-8 115 -128 115 -150 0 -20 -108 -471 -130 -542 -5 -16 -19 -70 -30 -120 -43
-183 -220 -428 -431 -596 -49 -40 -88 -73 -86 -76 4 -3 67 31 218 118 78 45
203 137 274 201 66 60 144 201 185 338 18 58 50 140 72 184 170 338 210 822
102 1248 -85 339 -257 624 -476 791 -92 69 -183 121 -426 241 -144 71 -207
108 -248 145 -186 170 -474 175 -795 15 -47 -23 -110 -57 -140 -74 -30 -18
-70 -41 -89 -52 l-35 -21 25 25 c14 14 175 166 358 338 293 275 340 321 330
320 -2 -1 -221 -125 -488 -276z m350 -449 c0 -20 -265 -159 -291 -152 -10 3
-57 1 -104 -5 -48 -5 -90 -7 -93 -4 -8 9 153 81 244 111 115 37 244 64 244 50z
m480 -195 c41 -12 103 -35 137 -51 35 -17 86 -33 115 -36 64 -7 80 -23 72 -75
-5 -26 -2 -45 9 -62 18 -27 100 -76 127 -76 30 0 41 -26 39 -87 -2 -32 2 -68
9 -80 17 -30 15 -34 -10 -24 -13 4 -45 11 -73 15 -80 11 -140 34 -305 116
-256 128 -377 160 -521 140 -81 -12 -109 -24 -109 -48 -1 -16 -1 -16 -11 1
-20 34 -177 11 -271 -40 -112 -61 -157 -146 -200 -375 -34 -187 -58 -258 -104
-307 l-33 -36 -26 30 c-39 47 -102 179 -115 242 -70 336 277 668 805 769 109
21 369 12 465 -16z m765 -819 c48 -162 89 -301 92 -310 4 -11 3 -13 -5 -6 -6
6 -36 75 -66 155 -40 102 -64 185 -82 280 -14 74 -28 146 -31 160 -3 14 -3 23
0 20 3 -3 45 -138 92 -299z m-499 -634 c-28 -47 -33 -86 -15 -119 20 -37 -62
-221 -87 -195 -5 5 99 407 113 437 5 9 9 -4 11 -32 2 -37 -3 -57 -22 -91z"/>
</g>
</svg>
