<?xml version="1.0" standalone="no"?>
<!DOCTYPE svg PUBLIC "-//W3C//DTD SVG 20010904//EN"
 "http://www.w3.org/TR/2001/REC-SVG-20010904/DTD/svg10.dtd">
<svg version="1.0" xmlns="http://www.w3.org/2000/svg"
 width="594.000000pt" height="597.000000pt" viewBox="0 0 594.000000 597.000000"
 preserveAspectRatio="xMidYMid meet">

<g transform="translate(0.000000,597.000000) scale(0.100000,-0.100000)"
fill="#000000" stroke="none">
<path d="M4087 5563 c-8 -269 -24 -526 -48 -783 -26 -286 -34 -573 -20 -738
13 -157 35 -272 101 -522 57 -215 90 -380 90 -450 0 -46 -2 -50 -27 -55 -16
-4 -37 -11 -47 -17 -34 -18 -186 -55 -210 -51 -18 4 -199 -39 -353 -83 -17 -5
-39 11 -110 74 -226 204 -378 392 -728 897 -462 667 -670 904 -1000 1142 -114
83 -245 153 -283 153 -32 0 -34 -2 -28 -27 3 -16 11 -58 17 -95 l11 -66 80
-52 c279 -182 588 -507 908 -955 274 -384 686 -1017 770 -1183 20 -42 21 -45
4 -63 -9 -10 -20 -19 -24 -19 -3 0 -21 34 -40 76 -41 94 -196 353 -289 483
-38 54 -126 170 -194 258 -68 88 -162 214 -209 279 -46 66 -132 187 -191 270
-252 354 -490 590 -705 702 l-87 44 -3 -25 c-4 -34 24 -344 44 -477 22 -151
70 -339 115 -455 107 -269 243 -452 628 -849 334 -344 485 -533 526 -657 10
-30 20 -60 23 -67 3 -9 -50 -12 -244 -12 -166 0 -281 -5 -344 -15 -227 -34
-426 -144 -667 -370 l-92 -86 -158 -14 c-325 -30 -528 -15 -713 52 -107 39
-150 53 -150 49 0 -2 13 -27 30 -57 16 -30 30 -59 30 -64 0 -6 -50 -37 -111
-69 l-110 -60 23 -18 c33 -25 182 -84 274 -107 123 -31 206 -42 373 -49 l154
-7 -80 -57 c-99 -72 -212 -128 -326 -163 -48 -15 -89 -31 -92 -35 -3 -4 22
-18 55 -30 33 -12 62 -26 65 -30 2 -4 -16 -57 -40 -118 -25 -62 -45 -114 -45
-117 0 -26 198 37 345 110 163 81 307 188 481 357 l131 128 59 6 c85 9 292
-13 391 -42 46 -13 115 -40 153 -59 72 -36 230 -140 242 -159 4 -6 8 -37 8
-69 0 -131 83 -436 156 -578 120 -232 267 -272 768 -209 264 33 479 23 647
-30 85 -27 373 -53 514 -47 91 3 121 9 175 32 36 15 82 34 104 43 54 22 123
93 151 155 20 41 25 68 25 132 0 98 -27 163 -94 229 l-46 44 50 -19 c111 -42
164 -20 221 94 22 42 41 77 44 77 6 0 -23 -93 -45 -146 -51 -118 -62 -222 -31
-291 39 -85 98 -92 211 -25 92 55 133 93 169 162 76 142 54 314 -58 460 l-43
55 6 70 c3 39 19 117 36 175 60 207 57 339 -11 479 -42 85 -142 201 -187 215
-14 5 -24 22 -33 59 -15 63 -35 113 -49 122 -5 3 -10 17 -10 30 0 13 -13 39
-29 57 -22 25 -27 40 -24 63 4 25 -6 45 -54 110 -33 44 -77 109 -99 144 -41
67 -120 136 -185 160 -61 23 -63 26 -81 112 -48 234 -46 438 6 774 38 239 49
377 42 500 -13 220 -53 392 -137 585 -28 63 -75 176 -106 250 -54 130 -73 168
-73 142 0 -7 -13 -88 -30 -180 -113 -639 -125 -939 -56 -1348 39 -228 56 -299
133 -554 67 -218 70 -233 48 -228 -12 2 -24 32 -45 113 -15 61 -51 189 -79
286 -28 98 -66 239 -85 315 -88 359 -89 438 -18 1039 28 237 56 489 62 561
l10 130 -42 75 c-24 42 -58 108 -77 147 -34 70 -36 72 -71 72 l-37 0 -6 -197z
m934 -3265 c7 -24 11 -59 10 -79 -1 -20 5 -56 13 -80 31 -89 -12 -263 -98
-403 -65 -104 -79 -141 -67 -179 22 -69 30 -118 17 -108 -18 15 -130 205 -160
271 -85 187 -68 379 44 491 43 43 186 127 217 129 7 0 18 -19 24 -42z m-2215
-365 c-18 -49 -108 -182 -159 -236 -46 -49 -111 -131 -123 -155 -1 -2 -39 23
-85 54 -117 80 -232 131 -347 156 -150 32 -149 27 -31 86 168 84 295 108 583
111 156 1 168 0 162 -16z m1361 -119 c28 -18 88 -141 108 -221 9 -34 19 -110
23 -168 l7 -105 -60 0 c-33 0 -123 -11 -200 -25 -333 -61 -502 -38 -625 84
-82 81 -116 181 -61 181 32 0 158 49 262 101 323 161 470 203 546 153z"/>
</g>
</svg>
