<?xml version="1.0" standalone="no"?>
<!DOCTYPE svg PUBLIC "-//W3C//DTD SVG 20010904//EN"
 "http://www.w3.org/TR/2001/REC-SVG-20010904/DTD/svg10.dtd">
<svg version="1.0" xmlns="http://www.w3.org/2000/svg"
 width="552.000000pt" height="597.000000pt" viewBox="0 0 552.000000 597.000000"
 preserveAspectRatio="xMidYMid meet">

<g transform="translate(0.000000,597.000000) scale(0.100000,-0.100000)"
fill="#000000" stroke="none">
<path d="M2617 5833 c-15 -27 -378 -985 -375 -989 3 -2 50 3 104 13 137 23
423 23 557 -1 54 -10 100 -16 102 -14 4 3 -372 989 -380 996 -2 2 -5 0 -8 -5z"/>
<path d="M3321 5081 c-129 -136 -233 -252 -230 -256 2 -5 51 -25 109 -44 58
-19 160 -62 226 -96 l122 -61 6 276 c3 151 8 310 11 353 2 42 1 77 -3 76 -4 0
-112 -112 -241 -248z"/>
<path d="M4140 4829 c-245 -109 -467 -208 -493 -219 l-48 -21 88 -62 c144
-102 331 -298 445 -468 9 -13 18 -22 21 -19 9 9 439 981 435 984 -1 2 -203
-86 -448 -195z"/>
<path d="M2445 4784 c-142 -19 -193 -29 -280 -51 -628 -161 -1121 -693 -1241
-1338 -29 -153 -27 -490 3 -641 141 -693 675 -1218 1376 -1351 70 -13 143 -17
307 -17 244 0 330 13 543 84 537 179 964 639 1101 1186 40 161 50 249 50 434
-1 249 -38 437 -128 654 -225 535 -706 919 -1281 1022 -85 15 -385 27 -450 18z
m250 -204 c17 -4 23 -8 14 -9 -44 -3 -204 -57 -288 -97 -506 -239 -831 -784
-831 -1394 0 -266 55 -501 171 -735 186 -375 507 -647 874 -740 l90 -23 -40
-8 c-22 -5 -98 -8 -170 -7 -504 3 -950 303 -1190 798 -282 585 -192 1293 227
1773 196 225 473 385 754 436 84 15 338 19 389 6z m492 -259 c316 -82 575
-298 733 -611 98 -196 144 -391 144 -620 0 -364 -122 -673 -362 -922 -152
-157 -311 -252 -510 -305 -83 -22 -118 -26 -242 -26 -125 0 -159 4 -245 27
-728 193 -1090 1096 -735 1832 111 230 312 439 525 546 76 39 190 77 274 93
109 21 312 14 418 -14z"/>
<path d="M4435 3989 c-126 -3 -235 -7 -242 -8 -6 0 11 -45 40 -103 28 -57 72
-165 97 -240 l46 -138 155 147 c85 81 202 193 262 250 l107 103 -117 -2 c-65
-1 -221 -5 -348 -9z"/>
<path d="M4398 3378 c24 -112 23 -482 -2 -611 -10 -54 -16 -100 -15 -102 2 -2
234 85 516 193 282 109 509 200 505 203 -8 6 -1004 389 -1013 389 -3 0 1 -33
9 -72z"/>
<path d="M4331 2514 c-18 -59 -64 -168 -102 -243 -37 -74 -67 -136 -66 -137 2
-2 731 -20 735 -18 3 1 -525 504 -530 504 -2 0 -18 -48 -37 -106z"/>
<path d="M4087 2033 c-114 -167 -336 -378 -503 -479 -18 -11 -18 -12 6 -22 14
-6 243 -107 509 -226 267 -119 486 -214 488 -212 5 5 -440 1006 -447 1006 -4
0 -27 -30 -53 -67z"/>
<path d="M3431 1468 c-63 -31 -174 -77 -248 -100 -73 -24 -131 -47 -130 -51 1
-5 115 -127 252 -272 l250 -263 3 96 c1 54 -1 221 -5 372 l-8 276 -114 -58z"/>
<path d="M2219 1298 c5 -13 93 -241 196 -508 103 -267 191 -496 197 -510 8
-22 37 45 213 505 112 291 203 531 201 532 -1 2 -36 -4 -77 -12 -205 -39 -465
-39 -652 1 -88 18 -88 18 -78 -8z"/>
</g>
</svg>
