<?xml version="1.0" encoding="UTF-8"?>
<svg xmlns="http://www.w3.org/2000/svg" xmlns:xlink="http://www.w3.org/1999/xlink" width="130px" height="120px" viewBox="0 0 130 120" version="1.1">
<g id="surface19">
<g clip-path="url(#clip1)" clip-rule="nonzero">
<use xlink:href="#surface43" mask="url(#mask0)"/>
</g>
<path style=" stroke:none;fill-rule:nonzero;fill:rgb(1.176471%,1.960784%,1.960784%);fill-opacity:1;" d="M 65.304688 31.742188 C 67.992188 31.78125 70.171875 33.972656 70.171875 36.671875 C 70.171875 39.382812 67.992188 41.570312 65.304688 41.609375 C 62.613281 41.570312 60.433594 39.382812 60.433594 36.671875 C 60.433594 33.972656 62.613281 31.78125 65.304688 31.742188 M 60.03125 31.339844 C 57.09375 34.28125 57.09375 39.0625 60.03125 42.011719 C 61.492188 43.472656 63.394531 44.199219 65.304688 44.222656 C 67.214844 44.199219 69.113281 43.472656 70.574219 42.011719 C 73.511719 39.0625 73.511719 34.28125 70.574219 31.339844 L 68.792969 29.5 L 68.5625 29.382812 L 68.421875 29.082031 L 67.761719 28.3125 L 67.382812 28.082031 L 67.042969 27.382812 C 66.203125 26.230469 65.511719 25.019531 65.304688 23.921875 C 65.09375 25.019531 64.402344 26.230469 63.5625 27.382812 L 63.222656 28.082031 L 62.84375 28.3125 L 62.183594 29.082031 L 62.042969 29.382812 L 61.8125 29.5 Z M 60.03125 31.339844 "/>
<g clip-path="url(#clip3)" clip-rule="nonzero">
<path style=" stroke:none;fill-rule:nonzero;fill:rgb(1.176471%,1.960784%,1.960784%);fill-opacity:1;" d="M 91.839844 36.761719 C 89.652344 38.328125 86.082031 38.140625 86.082031 38.140625 C 86.082031 38.140625 87.351562 35.929688 89.019531 34.550781 C 90.691406 33.171875 94.492188 33.078125 94.492188 33.078125 C 94.492188 33.078125 94.03125 35.191406 91.839844 36.761719 M 88.070312 48.101562 C 85 50.578125 78.882812 50.148438 78.882812 50.148438 C 78.882812 50.148438 79.351562 47.289062 82.890625 44.050781 C 86.421875 40.820312 91.480469 41.089844 91.480469 41.089844 C 91.480469 41.089844 91.132812 45.621094 88.070312 48.101562 M 42.542969 48.101562 C 39.480469 45.621094 39.121094 41.089844 39.121094 41.089844 C 39.121094 41.089844 44.191406 40.820312 47.722656 44.050781 C 51.25 47.289062 51.722656 50.148438 51.722656 50.148438 C 51.722656 50.148438 45.601562 50.578125 42.542969 48.101562 M 36.109375 33.078125 C 36.109375 33.078125 39.921875 33.171875 41.589844 34.550781 C 43.261719 35.929688 44.53125 38.140625 44.53125 38.140625 C 44.53125 38.140625 40.949219 38.328125 38.761719 36.761719 C 36.570312 35.191406 36.109375 33.078125 36.109375 33.078125 M 113.921875 86.820312 L 113.890625 86.671875 C 113.5625 85.128906 112.921875 83.738281 112.121094 82.410156 C 111.839844 81.429688 111.550781 80.460938 111.191406 79.628906 C 110.351562 77.660156 109.351562 75.78125 108.292969 73.941406 C 107.390625 72.378906 106.460938 70.601562 105.339844 69.050781 C 106.269531 68.371094 107.011719 67.730469 107.589844 67.171875 L 109.269531 65.148438 L 109.421875 64.890625 L 108.652344 64.300781 L 108.132812 63.859375 L 107.929688 63.691406 C 107.800781 63.578125 105.761719 61.550781 104.480469 60.269531 L 104.472656 60.261719 C 103.582031 59.238281 102.960938 58.410156 102.652344 57.980469 L 102.640625 57.96875 L 102.550781 57.828125 L 102.441406 57.671875 L 102.429688 57.671875 L 102.429688 57.660156 L 102.410156 57.609375 L 102.351562 57.46875 L 102.351562 57.261719 C 102.640625 55.898438 102.410156 54.449219 102.402344 54.429688 L 102.5 54.03125 L 102.972656 52.960938 L 103.519531 52.578125 C 103.542969 52.578125 106.050781 52.5 107.519531 51.410156 C 108.960938 50.339844 110.699219 48.398438 110.832031 46.441406 L 110.882812 45.03125 C 110.890625 43.628906 110.792969 42.289062 110.691406 41.019531 C 110.570312 39.648438 110.261719 37.699219 109.429688 36.148438 C 108.492188 34.398438 108.652344 33.910156 109.78125 32.871094 C 110.449219 32.25 110.480469 28.761719 109.820312 27.300781 L 109.152344 26.261719 L 109.101562 26.21875 L 108.921875 26.050781 L 108.882812 26.019531 L 108.679688 25.871094 L 108.632812 25.839844 L 108 25.53125 L 107.632812 25.371094 L 105.710938 24.449219 L 105.441406 24.308594 L 104.851562 23.941406 L 104.460938 23.710938 L 103.609375 23.101562 L 103.570312 23.070312 C 99.910156 23.078125 88.679688 14.28125 86.710938 13.511719 C 85.542969 13.050781 84.160156 13.269531 82.929688 13.289062 C 81.652344 13.320312 80.492188 13.761719 79.5625 14.691406 C 78.640625 15.609375 78.671875 16.871094 79.042969 18.03125 C 79.402344 19.160156 80.460938 19.71875 81.609375 19.890625 C 82.621094 20.050781 84.601562 19.789062 85.351562 19.011719 L 85.882812 18.261719 L 84.421875 18.441406 C 82.359375 18.628906 82.382812 15.421875 84.421875 15.238281 C 86.410156 15.058594 88.089844 15.109375 88.800781 17.398438 C 89.441406 19.480469 88.101562 21.238281 86.359375 22.199219 C 82.859375 24.148438 77.199219 23.121094 75.972656 18.949219 C 75.421875 17.078125 75.382812 14.988281 76.519531 13.328125 C 77.652344 11.699219 79.832031 10.339844 81.8125 10.109375 C 84.082031 9.851562 86.492188 9.898438 88.5625 10.871094 C 89.492188 11.308594 90.441406 11.699219 91.3125 12.269531 C 92.019531 12.738281 96.261719 16.089844 100.0625 18.929688 L 99.640625 18.238281 C 98.179688 15.820312 97.210938 14.21875 93.839844 11.859375 C 89.980469 9.160156 85.8125 7.988281 81.210938 7 C 77.652344 7.03125 74.5625 8.539062 72.339844 10.898438 L 72.300781 10.96875 L 72.140625 11.128906 L 71.402344 12.03125 L 71.242188 12.121094 C 70.351562 13.21875 69.691406 14.441406 69.269531 15.75 L 68.859375 17.5 L 68.882812 18.070312 L 68.730469 19.519531 C 68.792969 21.578125 69.351562 23.21875 69.632812 24.019531 C 69.960938 24.960938 70.332031 25.730469 70.730469 26.398438 L 72.222656 28.21875 L 72.550781 28.761719 L 72.5625 28.78125 L 72.972656 29.210938 C 74.210938 30.53125 75.382812 31.769531 75.769531 34.21875 C 76.171875 36.699219 75.601562 39.300781 74.089844 41.949219 L 72.480469 44.171875 C 71.949219 45.011719 71.28125 45.730469 70.269531 46.261719 L 68.082031 47.578125 L 66.800781 47.960938 L 65.359375 48.410156 L 65.300781 48.421875 L 65.25 48.410156 L 63.800781 47.960938 L 62.53125 47.578125 L 60.332031 46.261719 C 59.320312 45.730469 58.660156 45.011719 58.132812 44.171875 L 56.511719 41.949219 C 55 39.300781 54.429688 36.699219 54.832031 34.21875 C 55.222656 31.769531 56.390625 30.53125 57.632812 29.210938 L 58.042969 28.78125 L 58.050781 28.761719 L 58.390625 28.21875 L 59.882812 26.398438 C 60.269531 25.730469 60.640625 24.960938 60.972656 24.019531 C 61.25 23.21875 61.820312 21.578125 61.871094 19.519531 L 61.722656 18.070312 L 61.742188 17.5 L 61.339844 15.75 C 60.910156 14.441406 60.25 13.21875 59.359375 12.121094 L 59.210938 12.03125 L 58.472656 11.128906 L 58.3125 10.96875 L 58.261719 10.898438 C 56.050781 8.539062 52.960938 7.03125 49.390625 7 C 44.792969 7.988281 40.621094 9.160156 36.761719 11.859375 C 33.390625 14.21875 32.429688 15.820312 30.960938 18.238281 L 30.542969 18.929688 C 34.339844 16.089844 38.589844 12.738281 39.292969 12.269531 C 40.160156 11.699219 41.109375 11.308594 42.050781 10.871094 C 44.121094 9.898438 46.53125 9.851562 48.800781 10.109375 C 50.769531 10.339844 52.949219 11.699219 54.082031 13.328125 C 55.230469 14.988281 55.191406 17.078125 54.632812 18.949219 C 53.402344 23.121094 47.742188 24.148438 44.25 22.199219 C 42.511719 21.238281 41.160156 19.480469 41.8125 17.398438 C 42.511719 15.109375 44.191406 15.058594 46.191406 15.238281 C 48.222656 15.421875 48.242188 18.628906 46.191406 18.441406 L 44.730469 18.261719 L 45.261719 19.011719 C 46 19.789062 47.992188 20.050781 49 19.890625 C 50.140625 19.71875 51.199219 19.160156 51.5625 18.03125 C 51.929688 16.871094 51.960938 15.609375 51.042969 14.691406 C 50.109375 13.761719 48.949219 13.320312 47.671875 13.289062 C 46.441406 13.269531 45.070312 13.050781 43.890625 13.511719 C 41.929688 14.28125 30.691406 23.078125 27.03125 23.070312 L 26.992188 23.101562 L 26.140625 23.710938 L 25.761719 23.941406 L 25.160156 24.308594 L 24.890625 24.449219 L 22.980469 25.371094 L 22.609375 25.53125 L 21.972656 25.839844 L 21.921875 25.871094 L 21.722656 26.019531 L 21.691406 26.050781 L 21.5 26.21875 L 21.449219 26.261719 L 20.792969 27.300781 C 20.132812 28.761719 20.152344 32.25 20.832031 32.871094 C 21.949219 33.910156 22.109375 34.398438 21.171875 36.148438 C 20.339844 37.699219 20.03125 39.648438 19.921875 41.019531 C 19.8125 42.289062 19.710938 43.628906 19.722656 45.03125 L 19.78125 46.441406 C 19.910156 48.398438 21.640625 50.339844 23.089844 51.410156 C 24.5625 52.5 27.0625 52.578125 27.089844 52.578125 L 27.632812 52.960938 L 28.101562 54.03125 L 28.199219 54.429688 C 28.199219 54.449219 27.960938 55.898438 28.25 57.261719 L 28.25 57.46875 L 28.199219 57.609375 L 28.171875 57.660156 L 28.171875 57.671875 L 28.0625 57.828125 L 27.960938 57.96875 L 27.949219 57.980469 C 27.652344 58.410156 27.03125 59.238281 26.140625 60.261719 L 26.121094 60.269531 C 24.839844 61.550781 22.8125 63.578125 22.671875 63.691406 L 22.480469 63.859375 L 21.949219 64.300781 L 21.179688 64.890625 L 21.339844 65.148438 L 23.019531 67.171875 L 24.390625 68.378906 C 22.230469 70.621094 20.382812 73.160156 19.140625 75.949219 C 17.28125 80.148438 15 84.808594 15.351562 89.378906 L 15.402344 90.738281 L 15.640625 92.429688 L 15.910156 92.941406 L 17.421875 93.890625 C 20.441406 95.679688 21.011719 95.558594 24.230469 96.921875 L 24.769531 97.160156 C 29.019531 98.289062 32.542969 101.050781 34.070312 105.761719 C 34.902344 108.328125 34.832031 110.839844 34.109375 113.128906 L 35.132812 112.71875 L 36.511719 112.300781 L 38.191406 111.210938 C 39.222656 110.359375 39.960938 109.320312 40.671875 108.230469 L 41.921875 106.371094 L 42.0625 103.929688 C 42 102.46875 41.699219 100.851562 41.089844 99.519531 L 40.152344 97.628906 L 38.832031 96.128906 C 37.929688 95.191406 36.851562 94.539062 35.792969 93.789062 C 34.542969 92.898438 33.332031 92.101562 31.992188 91.359375 C 30.921875 90.769531 29.980469 89.648438 29.152344 88.710938 L 28.210938 86.808594 L 28.222656 86.339844 C 28.371094 84.28125 28.832031 82.191406 29.621094 80.261719 C 30.269531 78.269531 31.449219 76.511719 32.980469 75.109375 L 34.160156 74.148438 L 34.929688 73.648438 L 36.0625 73 C 37.769531 72.148438 39.542969 71.679688 41.269531 71.558594 C 43.53125 71.410156 45.742188 71.878906 47.699219 72.949219 C 48.832031 73.570312 49.882812 74.390625 50.8125 75.398438 L 50.992188 75.460938 C 51.742188 76.929688 52.351562 78.488281 52.679688 80.320312 C 53.089844 82.578125 52.792969 84.929688 53.191406 87.101562 L 52.949219 87.699219 C 53.171875 94.851562 57.921875 103.71875 64.160156 106.511719 C 68.371094 108.179688 73.761719 109 78.082031 108.011719 C 80.390625 107.371094 82.472656 106.039062 84.300781 104.480469 C 86.382812 102.679688 90.171875 98.160156 88.109375 96.769531 L 87.640625 96.671875 C 86.3125 97.25 84.769531 97.578125 83.011719 97.578125 L 81.25 97.449219 L 80.582031 97.378906 L 78.671875 96.851562 L 77.589844 96.28125 C 72.839844 93.691406 71.171875 87.738281 72.582031 82.769531 C 72.792969 81.609375 73.132812 80.511719 73.632812 79.519531 C 74.332031 78.339844 75.230469 77.589844 76.25 77.148438 C 77.949219 75.820312 80.160156 75 82.902344 74.980469 L 83.011719 74.96875 L 84.859375 75.109375 L 86.070312 75.011719 C 87.070312 75.011719 87.941406 75.191406 88.710938 75.5 L 90.371094 76.539062 C 91.929688 77.328125 93.359375 78.308594 94.570312 79.671875 C 96.070312 81.351562 97.121094 83.230469 98.160156 85.210938 C 98.78125 86.378906 99.050781 87.621094 99 88.808594 L 99.101562 89.078125 C 100.640625 93.660156 98.3125 99.53125 96.269531 103.699219 C 95.472656 105.441406 95.160156 106.371094 95.929688 106.371094 C 98.191406 105.949219 101.269531 104.101562 103.582031 102.929688 C 110.382812 99.390625 115.800781 94.640625 113.921875 86.820312 "/>
</g>
</g>
</svg>
