<?xml version="1.0" encoding="UTF-8"?>
<svg xmlns="http://www.w3.org/2000/svg" xmlns:xlink="http://www.w3.org/1999/xlink" width="130px" height="120px" viewBox="0 0 130 120" version="1.1">
<path style=" stroke:none;fill-rule:nonzero;fill:rgb(1.176471%,1.960784%,1.960784%);fill-opacity:1;" d="M 111.953125 84.203125 C 111.214844 85.664062 109.992188 86.722656 108.503906 87.292969 L 107.714844 87.582031 L 107.453125 87.671875 L 106.921875 87.851562 L 106.601562 87.941406 L 106.125 88.09375 L 106.101562 88.09375 L 105.773438 88.183594 L 105.3125 88.3125 L 104.953125 88.402344 L 104.503906 88.511719 L 104.132812 88.59375 L 103.691406 88.691406 L 103.3125 88.773438 L 102.882812 88.851562 L 102.492188 88.921875 L 102.0625 89.003906 L 101.671875 89.0625 L 101.242188 89.132812 L 101.183594 89.144531 L 100.84375 89.183594 L 100.414062 89.242188 L 100.023438 89.292969 L 99.664062 89.34375 L 99.582031 89.34375 L 99.183594 89.394531 L 98.804688 89.433594 L 98.761719 89.433594 L 98.683594 89.441406 L 98.5625 89.453125 L 98.351562 89.472656 L 97.921875 89.511719 L 97.714844 89.53125 L 97.523438 89.542969 L 97.09375 89.582031 L 96.683594 89.601562 L 96.261719 89.632812 L 95.84375 89.664062 L 95.523438 89.671875 L 95.492188 89.683594 L 94.652344 89.644531 C 91.332031 89.222656 88.003906 88.78125 84.671875 88.371094 L 83.78125 88.421875 C 82.152344 88.703125 80.53125 88.984375 78.914062 89.273438 L 77.011719 89.804688 L 76.292969 90.113281 L 75.613281 90.472656 L 75.273438 90.671875 L 74.632812 91.101562 L 73.414062 92.113281 C 72.351562 93.113281 71.292969 94.121094 70.28125 95.183594 L 69.292969 96.253906 L 68.363281 97.78125 L 68.0625 98.441406 L 67.921875 98.773438 L 67.78125 99.132812 L 67.613281 99.851562 L 67.582031 100.074219 L 67.53125 100.132812 L 67.28125 100.753906 C 65.625 103.554688 65.324219 107.484375 61.332031 107.941406 C 58.363281 108.273438 56.492188 106.304688 55.671875 103.832031 L 55.714844 103.652344 L 55.003906 101.5625 L 54.761719 99.804688 L 54.882812 98.824219 L 56.054688 96.34375 L 57.722656 93.921875 L 58.511719 93.054688 L 58.921875 92.632812 L 59.78125 91.832031 L 60.671875 91.054688 L 61.59375 90.292969 L 62.503906 89.542969 L 63.472656 89.023438 C 64.863281 88.972656 65.8125 88.183594 66.804688 87.332031 L 67.902344 86.574219 L 68.484375 86.222656 L 69.054688 85.851562 L 70.492188 85.453125 L 71.132812 85.472656 L 72.402344 85.433594 L 73.132812 85.972656 L 73.402344 86.09375 L 73.492188 86.09375 L 73.792969 85.84375 L 74.242188 85.511719 L 74.34375 85.523438 L 74.542969 85.59375 L 75.144531 85.914062 L 75.261719 85.914062 L 75.503906 85.84375 L 76.214844 85.453125 L 76.714844 85.234375 L 77.222656 85.042969 L 77.484375 84.953125 L 78.011719 84.824219 L 79.113281 84.683594 L 79.671875 84.691406 L 80.152344 84.042969 L 80.664062 83.621094 L 80.921875 83.972656 L 81.714844 85.003906 L 82.472656 84.492188 L 83.171875 84.03125 L 83.792969 84.394531 L 84.433594 84.632812 L 84.644531 84.683594 L 85.0625 84.710938 L 85.273438 84.691406 L 85.484375 84.644531 L 85.902344 84.453125 L 86.511719 83.914062 L 86.683594 83.953125 L 86.953125 83.953125 L 87.132812 83.921875 L 87.402344 83.851562 L 87.582031 83.792969 L 87.863281 83.703125 L 88.042969 83.652344 L 88.503906 83.613281 L 88.691406 83.644531 L 89.394531 84.222656 L 89.503906 84.292969 L 89.691406 84.332031 L 89.804688 84.34375 L 89.921875 84.351562 L 90.0625 84.34375 L 90.34375 84.3125 L 90.632812 84.253906 L 90.953125 84.144531 L 91.214844 84.003906 L 91.734375 83.691406 L 92.761719 83.460938 L 93.113281 83.472656 L 93.972656 83.664062 C 95.234375 84.054688 96.464844 84.554688 97.714844 85.011719 L 98.382812 85.261719 L 98.484375 85.28125 L 98.5625 85.273438 L 98.804688 85.234375 L 98.894531 85.222656 L 99.125 84.960938 L 99.664062 84.34375 L 99.894531 84.074219 C 101.292969 84.953125 102.714844 84.304688 104.125 84.3125 L 105.464844 84.261719 L 106.742188 84.113281 L 108.582031 83.652344 C 110.375 83.054688 111.992188 82.003906 113.464844 80.363281 C 113.351562 81.941406 112.542969 83.042969 111.953125 84.203125 M 52.132812 97.914062 L 51.644531 98.042969 L 50.804688 98.074219 L 50.8125 98.011719 L 49.574219 97.703125 C 47.3125 96.09375 43.332031 92.972656 43.523438 89.710938 L 43.453125 89.121094 L 43.464844 88.164062 L 43.503906 87.832031 L 43.59375 87.183594 L 43.941406 84.894531 L 43.921875 84.011719 C 42.933594 79.824219 41.773438 75.8125 38.074219 72.984375 L 36.011719 71.484375 C 34.804688 70.664062 33.5625 69.921875 32.222656 69.363281 C 31.261719 68.960938 30.261719 68.644531 29.191406 68.441406 C 27.882812 68.191406 26.691406 68.273438 25.472656 68.792969 C 23.464844 69.644531 22.304688 71.253906 21.492188 73.152344 L 20.941406 74.734375 L 20.703125 75.792969 L 20.5625 76.863281 L 20.554688 77.023438 L 20.542969 77.183594 L 20.53125 77.402344 L 20.542969 78.382812 L 20.582031 79.023438 L 20.652344 79.5625 L 20.851562 80.644531 L 21.152344 81.734375 L 21.492188 83.242188 L 20.125 82.28125 L 19.242188 81.152344 L 18.671875 80.382812 L 18.003906 79.164062 L 17.734375 78.453125 L 17.261719 76.671875 L 17.074219 74.914062 L 17.074219 74.253906 L 17.101562 73.742188 L 17.113281 73.574219 L 17.132812 73.421875 L 17.292969 72.371094 L 17.324219 72.183594 L 17.703125 70.832031 L 18.953125 68.164062 L 19.273438 67.671875 L 19.464844 67.460938 L 19.671875 67.34375 L 20.011719 67.253906 L 20.671875 67.023438 L 21.011719 66.902344 L 21.664062 66.652344 L 23.003906 66.203125 L 24.441406 65.984375 L 25.214844 66.011719 C 26.332031 66.132812 27.613281 66.191406 28.792969 65.621094 L 29.921875 64.832031 L 31.152344 64.121094 L 32.09375 64.210938 L 32.542969 64.453125 L 33.582031 65.554688 L 33.882812 65.921875 L 34.421875 66.421875 L 35.03125 66.824219 L 37.113281 67.652344 L 37.472656 67.792969 L 38.183594 68.042969 L 38.523438 68.101562 L 38.703125 68.101562 L 39.042969 68.03125 L 39.875 67.332031 L 40.164062 67.132812 L 41.042969 66.960938 L 41.472656 66.882812 L 41.984375 67.933594 L 42.074219 68.222656 L 42.113281 68.363281 L 42.183594 68.644531 L 42.3125 69.0625 L 42.402344 69.332031 L 42.582031 69.710938 L 43.011719 70.261719 L 43.875 70.691406 L 43.972656 70.882812 C 44.023438 72.582031 45.574219 72.914062 46.625 73.523438 L 47.933594 74.574219 L 48.253906 75.074219 L 48.503906 76.074219 L 48.714844 76.851562 L 49.023438 77.164062 L 49.761719 77.304688 L 50.523438 77.382812 L 50.84375 77.492188 L 51.253906 77.734375 L 51.484375 77.933594 L 51.59375 78.054688 L 51.792969 78.292969 L 51.984375 78.554688 L 52.152344 78.824219 L 53.511719 80.574219 L 53.722656 80.734375 L 53.953125 81.054688 L 53.851562 81.914062 L 54.003906 82.902344 L 54.542969 83.671875 L 55.601562 84.734375 L 56.753906 86.511719 C 57.421875 89.132812 57.113281 91.542969 55.34375 93.671875 C 54.324219 94.894531 53.582031 96.203125 53.054688 97.601562 L 52.375 97.78125 L 52.132812 97.914062 M 28.972656 51.3125 C 27.484375 48.671875 26.394531 45.734375 26.214844 42.59375 C 26.09375 40.351562 25.933594 38.144531 26.691406 35.921875 C 27.191406 34.460938 26.921875 32.753906 27.414062 31.292969 C 28.203125 28.933594 28.773438 26.472656 30.113281 24.34375 L 30.714844 23.492188 L 30.804688 23.371094 L 30.914062 23.253906 L 31.132812 22.984375 L 31.613281 22.394531 L 33.234375 20.054688 C 33.941406 18.992188 34.332031 17.710938 35.824219 17.253906 L 37.203125 15.523438 C 38.324219 13.664062 40.304688 13.164062 42.113281 12.621094 C 43.125 12.324219 44.382812 12.960938 45.53125 13.054688 C 46.601562 13.144531 47.773438 13.460938 48.625 12.363281 L 50.304688 14.304688 L 50.863281 14.941406 L 50.914062 15.011719 L 50.972656 15.011719 L 51.152344 15.003906 L 52.402344 14.953125 L 52.824219 15.054688 L 55.332031 16.421875 C 56.363281 16.542969 57.023438 16.921875 57.671875 17.644531 C 58.191406 18.203125 59.484375 18.003906 59.292969 19.28125 L 61.011719 19.84375 L 61.421875 19.671875 C 61.683594 21.011719 63.222656 21.203125 63.792969 22.253906 C 64.671875 23.921875 66.554688 29.921875 66.644531 31.554688 L 66.441406 33.363281 L 67.8125 34.832031 C 67.78125 35.933594 68.832031 37.011719 67.773438 38.191406 C 67.03125 39.023438 66.554688 40.042969 65.472656 40.5625 L 63.832031 41.742188 C 63.042969 42.332031 62.253906 42.8125 61.191406 42.851562 L 59.304688 43.503906 L 59.402344 42.941406 C 60.875 41.054688 61.421875 38.753906 61.824219 36.523438 C 62.191406 34.511719 61.691406 32.433594 60.414062 30.691406 L 59.644531 29.902344 C 58.722656 26.753906 55.78125 27.03125 53.554688 26.691406 C 51.761719 26.421875 49.992188 27.84375 48.683594 29.164062 C 47.503906 30.34375 46.351562 31.664062 46.203125 33.582031 C 46.09375 35.0625 45.914062 35.054688 43.5625 35.34375 L 43.433594 37.332031 L 42.792969 39.761719 C 41.792969 41.171875 41.984375 42.742188 41.824219 44.273438 L 42.03125 44.882812 C 43.042969 45.644531 42.332031 46.261719 41.792969 46.933594 L 43.972656 47.984375 C 42.851562 50.363281 43.453125 51.59375 45.792969 52.261719 L 47.472656 53.261719 C 48.671875 54.382812 49.691406 55.722656 51.011719 56.671875 C 51.601562 57.101562 52.171875 57.394531 52.382812 58.304688 C 54.003906 57.292969 55.203125 58.0625 56.382812 59.09375 L 58.0625 60.144531 L 60.511719 61.710938 C 61.191406 62.203125 61.722656 62.761719 61.242188 63.78125 L 61.511719 65.304688 L 62.863281 64.753906 C 63.734375 65.773438 64.234375 66.972656 64.304688 68.234375 C 64.363281 69.414062 64.78125 70.023438 66.0625 69.984375 C 63.3125 73.332031 61.042969 76.734375 59.582031 81.191406 C 58.792969 79.113281 58.203125 77.5625 57.613281 76.003906 L 57.242188 74.941406 C 56.734375 73.394531 56.222656 71.851562 54.761719 70.882812 L 54.324219 70.382812 C 53.273438 67.523438 50.742188 66.164062 48.53125 64.394531 C 45.78125 62.171875 42.453125 61.734375 39.28125 60.753906 L 38.433594 60.511719 C 34.671875 58.0625 31.183594 55.242188 28.972656 51.3125 M 69.3125 70.234375 C 71.125 68.261719 73.414062 66.734375 75.5625 65.113281 C 76.8125 64.171875 78.191406 63.394531 79.574219 62.644531 C 80.542969 62.113281 81.601562 61.742188 82.644531 61.351562 C 83.933594 60.871094 85.183594 60.332031 86.003906 59.191406 C 87.351562 57.3125 88.664062 55.394531 88.804688 52.941406 L 89.144531 51.183594 C 89.441406 49.222656 88.8125 48.023438 86.972656 47.253906 C 85.984375 46.832031 84.921875 46.5625 83.894531 46.234375 C 83.191406 47.503906 82.214844 46.582031 81.492188 46.523438 L 80.542969 47.644531 L 78.394531 48.851562 C 76.84375 49.871094 76.59375 50.183594 75.613281 51.902344 L 75.324219 49.210938 L 75.402344 48.113281 C 76.09375 46.851562 75.375 45.171875 76.722656 44.09375 L 77.964844 42.242188 C 78.453125 40.78125 79.523438 40.53125 80.792969 40.621094 C 82.054688 40.703125 83.304688 40.882812 84.554688 41.011719 L 85.863281 41.0625 L 87.902344 41.28125 L 89.964844 41.433594 L 95.523438 43.972656 L 96.183594 45.613281 C 96.824219 46.722656 97.433594 47.882812 98.03125 48.992188 C 98.761719 50.351562 98.761719 52.132812 99.023438 53.742188 L 99.78125 55.164062 L 100.253906 56.292969 C 100.09375 58.304688 100.09375 60.371094 98.472656 62.203125 L 99.8125 62.953125 C 98.964844 63.082031 98.523438 64.402344 97.472656 63.222656 C 96.863281 63.851562 96.054688 64.332031 96.472656 65.433594 C 95.332031 67.074219 95.492188 69.402344 93.613281 70.664062 C 92.554688 71.363281 91.5625 72.171875 90.511719 72.894531 C 88.542969 74.234375 86.492188 75.472656 84.59375 76.902344 L 82.324219 77.5625 C 77.851562 77.273438 74.011719 79.011719 70.402344 81.363281 C 67.273438 83.402344 64.242188 85.582031 60.984375 87.832031 C 60.933594 85.164062 61.273438 82.832031 62.101562 80.371094 C 63.523438 76.183594 66.511719 73.28125 69.3125 70.234375 M 114.59375 78.871094 L 113.171875 78.101562 L 112.671875 77.863281 L 112.34375 78.273438 L 111.914062 78.78125 L 111.664062 79.09375 L 111.542969 79.253906 C 109.984375 81.253906 106.992188 82.441406 104.402344 82.144531 C 103.261719 82.003906 102.132812 81.804688 101.011719 81.554688 L 99.664062 81.210938 L 99.601562 81.191406 L 98.804688 80.972656 L 98.683594 80.941406 L 98.5625 80.902344 L 97.714844 80.652344 L 96.875 80.382812 L 96.242188 80.171875 L 95.523438 79.921875 L 94.234375 79.542969 L 93.613281 79.371094 L 92.933594 79.210938 C 91.441406 78.871094 89.941406 78.53125 88.3125 78.152344 L 87.273438 77.921875 L 89.152344 76.363281 L 90.921875 75.121094 L 92.152344 74.394531 L 92.742188 73.992188 L 93.863281 73.144531 C 95.875 71.53125 97.574219 69.59375 99.183594 67.601562 L 99.734375 66.902344 L 99.902344 66.664062 L 100.242188 66.183594 L 100.441406 65.894531 L 100.734375 65.453125 L 100.933594 65.121094 L 101.191406 64.703125 L 101.382812 64.363281 L 101.625 63.941406 L 101.804688 63.59375 L 102.023438 63.164062 L 102.191406 62.804688 L 102.402344 62.382812 L 102.5625 62.011719 L 102.742188 61.582031 L 102.894531 61.191406 L 103.0625 60.761719 L 103.203125 60.382812 L 103.363281 59.941406 L 103.484375 59.542969 L 103.625 59.101562 L 103.742188 58.703125 L 103.863281 58.261719 L 103.972656 57.84375 L 104.082031 57.402344 L 104.171875 56.984375 L 104.273438 56.53125 L 104.351562 56.113281 L 104.433594 55.652344 L 104.503906 55.234375 L 104.5625 54.851562 L 104.574219 54.78125 L 104.644531 53.421875 L 104.644531 53.371094 L 104.625 53.0625 L 104.59375 52.691406 L 104.5625 52.304688 L 104.53125 51.941406 L 104.492188 51.554688 L 104.464844 51.191406 L 104.414062 50.8125 L 104.363281 50.453125 L 104.304688 50.074219 L 104.28125 49.984375 L 104.242188 49.722656 L 104.171875 49.332031 L 104.152344 49.203125 L 104.101562 48.984375 L 104.023438 48.601562 L 104.003906 48.492188 L 103.953125 48.273438 L 103.953125 48.261719 L 103.894531 48.042969 L 103.851562 47.882812 L 103.773438 47.542969 L 103.671875 47.164062 L 103.574219 46.824219 L 103.453125 46.441406 L 103.433594 46.371094 L 103.351562 46.121094 L 103.222656 45.734375 L 103.113281 45.414062 L 103.011719 45.164062 L 102.964844 45.03125 L 102.851562 44.722656 L 102.683594 44.332031 L 102.5625 44.03125 L 102.375 43.632812 L 102.242188 43.351562 L 102.023438 42.914062 L 101.914062 42.683594 L 101.554688 42.023438 L 100.351562 40.152344 L 99.664062 39.261719 L 98.804688 38.324219 L 98.683594 38.203125 L 98.5625 38.09375 L 97.714844 37.351562 C 95.703125 35.78125 93.242188 34.933594 90.171875 35.132812 L 89.914062 35.144531 L 89.414062 35.132812 L 88.652344 35.113281 L 88.394531 35.113281 L 88.144531 35.132812 C 85.914062 35.34375 83.601562 35.3125 81.574219 36.414062 C 79.132812 37.742188 76.78125 39.210938 75.625 41.953125 L 75.542969 42.121094 L 75.324219 42.453125 L 75.203125 42.613281 L 74.851562 43.09375 L 74.753906 43.261719 L 73.703125 45.691406 C 73.582031 46.804688 73.503906 47.921875 73.453125 49.042969 C 73.402344 50.164062 73.394531 51.28125 73.402344 52.402344 L 73.433594 52.613281 L 73.613281 53.054688 L 73.914062 53.484375 L 74.28125 53.84375 L 74.484375 53.972656 L 75.363281 54.34375 L 75.992188 54.523438 L 76.972656 54.773438 L 77.074219 54.582031 L 77.101562 54.53125 L 77.183594 54.382812 C 77.152344 53.453125 77.554688 52.59375 78.183594 51.933594 L 78.402344 51.664062 L 78.441406 51.621094 L 78.652344 51.394531 L 78.691406 51.351562 L 78.953125 51.113281 L 78.964844 51.113281 L 79.5625 50.644531 L 79.613281 50.601562 L 79.875 50.421875 L 79.941406 50.371094 L 80.203125 50.203125 L 80.261719 50.164062 L 80.582031 49.953125 L 80.851562 49.792969 L 81.671875 49.421875 L 82.234375 49.261719 L 82.804688 49.152344 L 85.101562 48.941406 C 86.164062 48.851562 86.78125 49.332031 86.953125 50.222656 L 86.964844 51.234375 L 86.933594 51.460938 L 86.894531 52.144531 L 86.84375 52.59375 L 86.742188 53.023438 L 86.363281 54.121094 L 86.164062 54.671875 L 86.0625 54.933594 L 85.84375 55.460938 L 84.382812 57.78125 L 84.003906 58.164062 L 83.574219 58.503906 L 83.34375 58.664062 L 82.304688 59.191406 L 81.042969 59.53125 L 80.253906 59.8125 L 79.953125 59.972656 L 79.804688 60.054688 L 78.644531 60.683594 C 75.953125 62.191406 73.394531 63.894531 71.125 66.011719 L 70.011719 66.84375 C 69.253906 64.203125 68.542969 61.703125 67.8125 59.203125 L 67.53125 58.722656 L 67.394531 58.542969 L 67.332031 58.441406 C 66.691406 57.472656 66.03125 56.53125 65.332031 55.613281 C 64.632812 54.691406 63.914062 53.78125 63.171875 52.894531 L 61.261719 50.851562 L 60.011719 49.804688 L 59.125 49.171875 L 58.203125 48.621094 L 57.722656 48.371094 L 56.214844 47.742188 C 55.113281 47.363281 54.222656 46.8125 53.464844 46.144531 L 52.972656 45.691406 L 51.292969 43.613281 L 51.101562 43.34375 L 50.542969 42.492188 L 50.183594 41.921875 L 49.8125 41.363281 L 49.0625 40.242188 L 48.863281 39.972656 L 48.703125 39.554688 C 47.882812 37.683594 48.054688 35.722656 48.292969 33.804688 L 48.402344 33.203125 L 48.601562 32.644531 L 49.023438 31.882812 L 49.375 31.421875 L 49.5625 31.203125 L 50.683594 30.222656 L 50.933594 30.042969 C 51.753906 29.484375 52.574219 29.03125 53.503906 28.933594 L 55.324219 29.164062 C 56.375 29.53125 57.3125 29.753906 57.792969 30.722656 L 57.972656 31.183594 L 58.292969 31.613281 L 58.683594 32.03125 L 59.402344 33.621094 C 59.511719 36.234375 59.714844 38.882812 57.953125 41.164062 L 57.402344 42.011719 L 56.914062 42.933594 L 56.5625 43.582031 L 57.824219 45.144531 L 58.972656 45.710938 L 59.433594 45.773438 L 59.644531 45.734375 C 61.332031 45.210938 62.984375 44.523438 64.59375 43.761719 L 65.703125 43.003906 L 66.242188 42.582031 L 66.804688 42.222656 L 67.671875 41.664062 L 68.714844 40.601562 L 69.125 39.984375 L 69.484375 39.292969 L 70.421875 37.273438 L 71.363281 35.253906 L 71.601562 34.753906 L 71.863281 34.253906 L 72.171875 33.582031 L 72.394531 32.5625 L 72.421875 31.53125 L 72.523438 28.941406 L 72.554688 27.914062 L 72.542969 26.871094 L 72.503906 25.832031 L 72.324219 24.273438 C 72.03125 22.484375 71.003906 21.113281 70.414062 19.53125 C 68.761719 15.132812 65.054688 12.84375 61.441406 10.460938 L 60.113281 9.722656 L 59.191406 9.332031 L 58.3125 9.042969 L 58.253906 9.023438 L 58.242188 9.023438 L 57.375 8.78125 L 57.234375 8.742188 L 57.09375 8.710938 L 56.792969 8.644531 L 56.113281 8.492188 L 55.804688 8.433594 L 55.132812 8.292969 L 54.332031 8.144531 L 53.832031 8.042969 L 52.914062 7.914062 L 51.023438 7.824219 L 50.074219 7.8125 L 48.53125 8.074219 C 47.613281 8.054688 46.722656 8.132812 45.875 8.292969 L 45.5625 8.351562 L 44.375 8.664062 L 43.59375 8.921875 L 42.84375 9.222656 L 42.101562 9.5625 L 41.382812 9.941406 L 40.671875 10.34375 L 40.324219 10.554688 L 38.941406 11.453125 L 38.273438 11.921875 L 36.632812 13.164062 L 35.703125 13.914062 L 33.941406 15.542969 L 33.125 16.421875 L 32.34375 17.34375 C 31.59375 18.292969 30.902344 19.304688 30.3125 20.371094 L 30.28125 20.441406 L 29.261719 22.09375 L 29.023438 22.394531 L 28.402344 23.253906 L 28.324219 23.371094 L 28.242188 23.492188 L 27.734375 24.34375 C 26.613281 26.382812 25.953125 28.632812 25.421875 30.863281 L 24.933594 33.054688 C 24.664062 34.28125 24.433594 35.511719 24.273438 36.761719 L 24.113281 38.253906 C 23.992188 39.761719 23.992188 41.28125 24.183594 42.8125 C 24.453125 45.03125 24.953125 47.152344 25.734375 49.171875 L 26.292969 50.511719 L 26.933594 51.8125 L 27.652344 53.082031 L 28.054688 53.703125 C 28.722656 54.722656 29.554688 55.644531 30.351562 56.574219 L 31.152344 57.511719 L 31.441406 58.324219 L 30.664062 59.011719 C 29.472656 59.363281 28.28125 59.664062 27.101562 60.011719 L 25.921875 60.382812 C 25.003906 60.691406 24.101562 61.0625 23.234375 61.484375 L 21.722656 62.324219 L 20.78125 62.972656 L 19.472656 64.074219 L 18.324219 65.351562 C 17.464844 66.460938 16.753906 67.652344 16.214844 68.902344 L 15.734375 70.183594 L 15.59375 70.671875 L 15.375 71.492188 L 15.34375 71.644531 L 15.324219 71.78125 L 15.292969 71.933594 L 15.144531 72.84375 L 15.132812 72.972656 C 15.023438 73.84375 15.003906 74.742188 15.0625 75.652344 L 15.261719 77.394531 L 15.652344 79.113281 L 16.03125 80.203125 L 16.304688 80.8125 L 16.972656 81.941406 L 18.28125 83.460938 L 19.304688 84.363281 L 19.613281 84.59375 L 19.902344 84.824219 L 20.503906 85.324219 L 21.125 86.023438 L 22.003906 86.734375 L 22.714844 86.894531 L 22.863281 86.882812 L 22.992188 86.882812 L 23.101562 86.683594 L 23.953125 85.023438 L 23.953125 82.960938 L 23.234375 81.363281 L 23.101562 81.042969 L 22.984375 80.734375 L 22.863281 80.351562 L 22.664062 79.53125 L 22.625 79.261719 L 22.59375 79.0625 L 22.574219 78.882812 L 22.5625 78.863281 L 22.53125 77.613281 L 22.53125 77.554688 L 22.671875 76.203125 L 23.003906 74.894531 L 23.8125 73.074219 L 24.992188 71.554688 L 25.394531 71.203125 L 26.042969 70.773438 L 27.441406 70.351562 L 28.703125 70.484375 L 29.441406 70.683594 C 31.183594 71.132812 32.953125 71.542969 34.3125 72.972656 L 36.074219 74.421875 C 37.875 75.582031 39.152344 76.953125 40.03125 78.492188 L 40.074219 78.574219 L 40.992188 80.691406 L 41.074219 80.933594 L 41.234375 81.511719 L 41.363281 82.101562 L 41.492188 82.773438 L 41.5625 83.261719 L 41.671875 84.542969 L 41.691406 86.304688 L 41.683594 86.511719 L 41.683594 86.554688 L 41.671875 86.710938 L 41.671875 86.742188 L 41.664062 86.882812 L 41.664062 86.914062 L 41.644531 87.042969 L 41.644531 87.054688 L 41.625 87.171875 L 41.613281 87.183594 L 41.582031 87.292969 L 41.582031 87.304688 L 41.484375 87.484375 L 41.484375 87.492188 L 41.464844 87.984375 L 41.242188 87.753906 C 40.875 88.902344 40.664062 90.632812 40.914062 92.121094 L 41.542969 93.273438 L 43.28125 95.304688 L 43.363281 95.304688 L 49.941406 101.824219 L 49.964844 101.742188 L 51.8125 103.054688 L 52.183594 103.183594 L 52.222656 103.3125 L 52.503906 103.773438 L 52.574219 103.84375 L 52.851562 104.871094 C 53.222656 105.882812 53.992188 106.492188 54.863281 107.054688 L 54.832031 107.203125 L 56.34375 108.671875 C 58.953125 110.121094 61.542969 110.234375 64.394531 108.761719 L 68.851562 104.191406 L 68.972656 104.0625 L 69.234375 103.804688 L 69.472656 102.324219 L 69.203125 101.113281 L 69.042969 99.894531 L 69.351562 98.644531 L 69.582031 98.683594 L 69.824219 98.171875 L 70.242188 97.542969 L 70.414062 97.242188 L 72.394531 95.242188 C 73.433594 94.222656 74.472656 93.363281 75.742188 92.914062 L 77.683594 91.972656 L 77.691406 91.972656 L 78.324219 91.742188 L 78.363281 91.734375 L 78.972656 91.542969 L 79.023438 91.523438 L 79.625 91.351562 L 79.683594 91.34375 L 80.292969 91.191406 L 80.34375 91.183594 L 80.972656 91.03125 C 81.972656 90.8125 82.953125 90.742188 83.933594 90.742188 L 84.902344 90.773438 L 86.351562 90.871094 L 87.324219 90.972656 L 88.773438 91.113281 L 90.832031 91.324219 L 92.203125 91.460938 L 93.5625 91.582031 L 94.253906 91.621094 L 95.625 91.664062 L 97.671875 91.574219 L 97.714844 91.574219 L 98.332031 91.503906 L 98.363281 91.492188 L 98.5625 91.460938 L 98.804688 91.421875 L 99.664062 91.253906 L 99.734375 91.242188 L 100.171875 91.203125 L 100.632812 91.210938 C 103.691406 91.210938 106.464844 89.941406 109.375 89.242188 L 109.625 89.152344 L 109.863281 89.003906 L 110.332031 88.683594 L 112.113281 87.234375 L 113.183594 85.953125 L 113.78125 85.03125 L 114.3125 84.054688 L 114.78125 83.03125 L 115.414062 81.453125 C 115.804688 80.394531 115.453125 79.503906 114.59375 78.871094 "/>
</svg>
