<?xml version="1.0" encoding="utf-8"?>
<!-- Generator: Adobe Illustrator 25.0.1, SVG Export Plug-In . SVG Version: 6.00 Build 0)  -->
<svg version="1.1" id="레이어_1" xmlns="http://www.w3.org/2000/svg" xmlns:xlink="http://www.w3.org/1999/xlink" x="0px"
	 y="0px" viewBox="0 0 42.52 42.52" style="enable-background:new 0 0 42.52 42.52;" xml:space="preserve">
<g>
	<polygon points="10.65,26.57 10.65,32.49 14.62,29.53 	"/>
	<polygon points="11.74,32.94 19.17,32.94 15.45,30.15 	"/>
	<polygon points="19.25,26.05 11.67,26.05 15.45,28.9 	"/>
	<path d="M15.23,22.85c1.08,0,1.96-0.88,1.96-1.96s-0.88-1.96-1.96-1.96s-1.96,0.88-1.96,1.96S14.15,22.85,15.23,22.85z"/>
	<polygon points="20.04,32.34 20.04,26.72 16.3,29.53 	"/>
	<path d="M21.25,0C9.51,0,0,9.51,0,21.25c0,11.74,9.51,21.27,21.25,21.27c11.74,0,21.27-9.51,21.27-21.27
		C42.52,9.51,33.01,0,21.25,0z M23.34,33.91h-2.87h-0.42h-9.4h-0.21H6.87V21.23l2.16-3.3l6.22-4.41l6.33,4.37l1.86,3.23L23.34,33.91
		z M34.06,33.91h-9.39V21.07l-2.45-3.94l-7-4.69l-6.76,4.72l-2.7,4.53l-0.92-0.61l2.91-4.84l0.06,0.03v-0.01l7.37-5.02l0.01-0.04
		l7.69,5.02v0.01l0.04-0.03l1.75,2.78v-8.9c-0.03-0.18-0.04-0.36-0.04-0.56c0-2.27,2.11-4.1,4.72-4.1c2.59,0.03,4.7,1.88,4.7,4.14
		V33.91z"/>
</g>
</svg>
