<?xml version="1.0" encoding="utf-8"?>
<!-- Generator: Adobe Illustrator 25.0.1, SVG Export Plug-In . SVG Version: 6.00 Build 0)  -->
<svg version="1.1" id="레이어_1" xmlns="http://www.w3.org/2000/svg" xmlns:xlink="http://www.w3.org/1999/xlink" x="0px"
	 y="0px" viewBox="0 0 42.52 42.52" style="enable-background:new 0 0 42.52 42.52;" xml:space="preserve">
<path d="M21.27,0.01C9.51,0.01,0,9.53,0,21.27s9.51,21.25,21.27,21.25c11.74,0,21.25-9.51,21.25-21.25S33.01,0.01,21.27,0.01z
	 M34.77,24.37c-0.03,0.15,0,0.31-0.01,0.47c0,0.15-0.03,0.32-0.07,0.46c-0.04,0.17-0.17,0.31-0.25,0.45
	c-0.07,0.13-0.19,0.21-0.25,0.35c-0.06,0.15,0.03,0.42-0.1,0.53c-0.06,0.06-0.14,0.08-0.19,0.15c-0.06,0.07-0.1,0.15-0.15,0.24
	c-0.13,0.17-0.26,0.31-0.38,0.49c-0.18,0.28-0.28,0.61-0.28,0.95c0,0.15,0,0.26-0.08,0.39c-0.11,0.17-0.26,0.32-0.43,0.45
	c-0.11,0.08-0.22,0.18-0.32,0.29c-0.11,0.13-0.17,0.28-0.26,0.43c-0.21,0.31-0.43,0.64-0.71,0.88c-0.18,0.15-0.35,0.32-0.51,0.5
	c-0.13,0.14-0.29,0.19-0.43,0.31c-0.29,0.24-0.56,0.5-0.82,0.77c-0.13,0.13-0.21,0.26-0.35,0.38c-0.14,0.11-0.29,0.24-0.45,0.35
	c-0.29,0.21-0.61,0.45-0.96,0.53c-0.15,0.04-0.33,0.08-0.5,0.08c-0.19,0.01-0.39-0.01-0.57,0.01c-0.14,0.01-0.29,0.03-0.43,0.07
	c-0.1,0.03-0.18,0.04-0.28,0.06c0,0,0,0,0,0c0,0-0.01,0.01-0.01,0.01c0,0,0,0,0,0c-0.02,0.02-0.04,0.03-0.09,0.04l-0.31,0.06
	c-0.15,0.06-0.29,0.1-0.43,0.17c-0.36,0.17-0.68,0.08-1.07,0.07l1.49-0.24c0.08-0.03,0.17-0.06,0.24-0.07
	c0.05-0.01,0.11-0.03,0.18-0.03c0.01,0,0.01-0.01,0.02-0.01c0.01-0.01,0.01-0.02,0.03-0.03c0.06-0.06,0.11-0.07,0.19-0.1
	c0.29-0.1,0.56-0.29,0.85-0.43c0.28-0.13,0.57-0.25,0.81-0.45c0.29-0.24,0.63-0.38,0.9-0.61c0.14-0.11,0.25-0.26,0.38-0.38
	c0.13-0.11,0.25-0.19,0.38-0.32c0.24-0.22,0.51-0.38,0.7-0.65c0.1-0.14,0.19-0.17,0.31-0.28c0.1-0.1,0.17-0.24,0.25-0.35
	c0.15-0.24,0.31-0.47,0.46-0.72c0.14-0.22,0.17-0.49,0.28-0.72c0.07-0.14,0.14-0.26,0.18-0.42c0.04-0.15,0.08-0.22,0.18-0.33
	c0.07-0.08,0.13-0.18,0.17-0.29c0.04-0.1,0.04-0.24,0.1-0.33c0.06-0.1,0.14-0.13,0.17-0.24c0.06-0.15,0.08-0.32,0.11-0.47
	c0.04-0.15,0.11-0.28,0.14-0.43c0.01-0.15,0.03-0.31,0.06-0.45c0.03-0.18,0.1-0.32,0.1-0.5c0-0.15,0-0.32,0-0.47
	c0-0.21,0-0.42,0.04-0.63c0.04-0.24,0.01-0.53,0.01-0.78c0-0.51,0.01-1.02-0.11-1.53c-0.11-0.47-0.26-0.93-0.4-1.39
	c-0.06-0.18-0.08-0.38-0.15-0.56c-0.08-0.21-0.18-0.43-0.24-0.65c-0.04-0.17-0.13-0.33-0.19-0.5c-0.08-0.19-0.13-0.38-0.19-0.57
	c-0.17-0.43-0.45-0.79-0.65-1.2c-0.19-0.38-0.47-0.68-0.74-1.02c-0.14-0.18-0.31-0.38-0.49-0.5c-0.17-0.13-0.36-0.19-0.51-0.33
	c-0.13-0.11-0.25-0.17-0.38-0.28c-0.1-0.07-0.17-0.19-0.28-0.24c-0.08-0.04-0.18-0.06-0.26-0.1c-0.13-0.07-0.25-0.13-0.38-0.17
	c-0.18-0.07-0.32-0.22-0.5-0.32c-0.17-0.08-0.32-0.17-0.47-0.26c-0.35-0.22-0.74-0.43-1.13-0.6c-0.29-0.13-0.56-0.26-0.88-0.31
	c-0.19-0.03-0.36-0.11-0.54-0.17c-0.21-0.06-0.4-0.11-0.6-0.17c-0.14-0.04-0.26-0.03-0.4-0.06c-0.14-0.03-0.24-0.08-0.39-0.08
	c-0.14,0-0.25,0-0.38-0.03c-0.19-0.06-0.4-0.04-0.6-0.11c-0.26-0.08-0.43-0.14-0.71-0.14c-0.17,0-0.33-0.04-0.49-0.07
	c0,0.06,0,0.11,0.01,0.15c0.04,0.15,0.17,0.29,0.22,0.45c0.03,0.11,0.06,0.17,0.15,0.25c0.07,0.07,0.18,0.13,0.25,0.19
	c0.06,0.07,0.1,0.14,0.17,0.19c0.08,0.07,0.25,0.19,0.38,0.21c-0.01,0.07-0.1,0.1-0.18,0.11c-0.01,0.03-0.01,0.06-0.03,0.1
	c-0.04,0.01-0.07,0.01-0.11,0.03c-0.01,0.08-0.1,0.15-0.14,0.22c-0.06,0.1-0.11,0.22-0.14,0.32c-0.04,0.13-0.01,0.28-0.01,0.4
	c0,0.14,0.03,0.25,0.06,0.39c0.03,0.14,0,0.29,0.03,0.43c0.08,0.38,0.28,0.7,0.54,1.02c0.08,0.1,0.18,0.19,0.26,0.29
	c0.07,0.08,0.1,0.19,0.17,0.28c0.06,0.07,0.14,0.14,0.21,0.22c0.08,0.11,0.21,0.26,0.33,0.35c0.07,0.04,0.18,0.06,0.21,0.13
	c0.04,0.08-0.11,0.19-0.17,0.26c-0.11,0.15-0.18,0.35-0.25,0.53c-0.07,0.19-0.17,0.38-0.22,0.57c-0.24,0.86,0.07,1.75,0.29,2.59
	c0.14,0.53,0.4,1.02,0.61,1.52c0.08,0.21,0.19,0.42,0.29,0.63c0.07,0.15,0.19,0.29,0.28,0.45c0.1,0.18,0.04,0.33-0.14,0.47
	c-0.24,0.18-0.45,0.39-0.65,0.6c-0.22,0.21-0.49,0.42-0.72,0.64c-0.14,0.14-0.22,0.28-0.36,0.42c-0.25,0.25-0.39,0.54-0.56,0.82
	c-0.24,0.39-0.21,0.77-0.21,1.18s-0.04,0.82,0.08,1.24c0.04,0.13,0.08,0.24,0.13,0.36c0,0,0.06,0.14,0.06,0.13
	c0,0.13-0.01,0.04-0.11,0.11c-0.21,0.15-0.43,0.35-0.57,0.54c-0.24,0.33-0.29,0.72-0.43,1.08c-0.08,0.21,0.03,0.43-0.07,0.63
	c-0.03,0.07-0.08,0.11-0.11,0.18c-0.04,0.14-0.01,0.28-0.08,0.42c0.01-0.15-0.04-0.24-0.07-0.38c-0.04-0.19,0.01-0.4-0.08-0.61
	c-0.03-0.06-0.08-0.11-0.1-0.18c-0.04-0.14-0.1-0.28-0.18-0.4c-0.1-0.15-0.19-0.38-0.33-0.5c-0.03-0.03-0.08-0.04-0.13-0.07
	c-0.07-0.07-0.1-0.17-0.15-0.24c-0.03-0.04-0.08-0.07-0.13-0.1c-0.04-0.06-0.03-0.11-0.08-0.17c-0.1-0.08-0.14-0.03-0.13-0.15
	l0.07-0.11c0.11-0.11,0.17-0.14,0.19-0.29c0.03-0.13,0.07-0.19,0.07-0.33c0-0.25,0.01-0.49,0-0.74c-0.01-0.31-0.08-0.58-0.17-0.88
	c-0.06-0.22-0.04-0.45-0.1-0.65c-0.04-0.14-0.1-0.28-0.14-0.42c-0.14-0.45-0.39-0.85-0.65-1.25c-0.11-0.17-0.24-0.33-0.46-0.43
	c-0.08-0.04-0.25-0.1-0.36-0.11c0.01-0.04,0.1-0.04,0.15-0.08c0.06-0.04,0.08-0.1,0.13-0.15c0.11-0.14,0.25-0.29,0.32-0.46
	c0.24-0.56,0.29-1.17,0.47-1.75c0.07-0.21,0.08-0.46,0.1-0.68c0.01-0.25,0.07-0.5,0.08-0.75c0.01-0.53-0.04-1.02-0.13-1.53
	c-0.03-0.14-0.01-0.26-0.06-0.4c-0.04-0.14-0.11-0.26-0.17-0.39c-0.1-0.19-0.22-0.46-0.42-0.61c-0.1-0.07-0.33-0.1-0.25-0.24
	c0.03-0.04,0.13-0.08,0.18-0.1c0.14-0.06,0.13-0.04,0.24-0.15c0.1-0.08,0.21-0.14,0.31-0.22c0.11-0.1,0.19-0.22,0.29-0.33
	c0.1-0.1,0.17-0.21,0.25-0.32c0.14-0.19,0.33-0.36,0.45-0.56c0.15-0.26,0.35-0.51,0.47-0.78c0.13-0.25,0.1-0.54,0.08-0.82
	c0-0.14-0.04-0.22-0.1-0.35c-0.04-0.08-0.04-0.15-0.08-0.22c-0.07-0.14-0.19-0.25-0.31-0.36c-0.08-0.08-0.18-0.13-0.14-0.25
	c0.04-0.1,0.14-0.21,0.18-0.32c0.1-0.22,0.31-0.4,0.53-0.54c0.25-0.15,0.51-0.42,0.65-0.65c0.01-0.01,0.01-0.04,0.03-0.06
	c-0.29-0.03-0.61,0-0.9,0c-0.14,0-0.28-0.01-0.4,0c-0.15,0.01-0.25,0.11-0.39,0.14c-0.14,0.03-0.28,0-0.42,0.03
	c-0.17,0.04-0.36,0.1-0.53,0.17c-0.13,0.06-0.26,0.06-0.38,0.15c-0.11,0.1-0.19,0.19-0.32,0.28c-0.11,0.08-0.22,0.14-0.31,0.25
	c-0.1,0.13-0.18,0.28-0.31,0.39c-0.06,0.07-0.13,0.14-0.19,0.19c-0.07,0.07-0.17,0.07-0.25,0.13c-0.11,0.07-0.18,0.21-0.29,0.28
	c-0.08,0.06-0.17,0.11-0.25,0.18c-0.08,0.08-0.15,0.17-0.25,0.24c-0.08,0.07-0.18,0.13-0.26,0.19c-0.08,0.08-0.14,0.13-0.25,0.15
	c-0.21,0.06-0.43,0.03-0.63,0.1c-0.08,0.03-0.15,0.08-0.24,0.11c-0.08,0.03-0.18,0.03-0.28,0.06c-0.17,0.04-0.32,0.13-0.47,0.22
	c-0.15,0.08-0.32,0.14-0.47,0.22c-0.14,0.08-0.26,0.22-0.36,0.35c-0.08,0.11-0.18,0.24-0.26,0.36c-0.1,0.14-0.13,0.31-0.19,0.46
	c-0.1,0.22-0.19,0.43-0.28,0.67c-0.1,0.25-0.22,0.49-0.33,0.72c-0.1,0.24-0.15,0.49-0.28,0.71c-0.15,0.26-0.31,0.53-0.46,0.81
	c-0.06,0.11-0.14,0.22-0.21,0.33c-0.08,0.14-0.21,0.24-0.31,0.38c-0.07,0.08-0.15,0.21-0.29,0.36C9.65,20.9,9.57,21,9.51,21.1
	c-0.15,0.26-0.18,0.57-0.25,0.86c-0.07,0.29-0.15,0.57-0.22,0.86c-0.03,0.13-0.01,0.26-0.03,0.39c-0.03,0.21-0.08,0.4-0.07,0.61
	c0.01,0.31-0.07,0.57-0.14,0.86c-0.03,0.13-0.08,0.25-0.1,0.38c-0.01,0.14,0.03,0.28,0.07,0.42c0.11,0.39,0.21,0.78,0.38,1.15
	c0.08,0.19,0.17,0.39,0.26,0.57c0.06,0.11,0.06,0.22,0.06,0.35c0,0.24,0.06,0.38,0.19,0.58c0.1,0.14,0.17,0.29,0.28,0.43
	c0.15,0.21,0.31,0.43,0.45,0.65c0.15,0.26,0.31,0.54,0.42,0.82c0.04,0.1,0.08,0.18,0.14,0.26c0.06,0.08,0.11,0.13,0.18,0.19
	c0.15,0.17,0.33,0.32,0.5,0.47c0.25,0.22,0.43,0.53,0.71,0.72c0.15,0.11,0.33,0.19,0.49,0.31c0.1,0.07,0.18,0.15,0.29,0.19
	c0.17,0.1,0.32,0.21,0.51,0.28c0.49,0.17,0.88,0.54,1.34,0.79c0.21,0.11,0.46,0.15,0.65,0.32c0.07,0.06,0.14,0.18,0.21,0.22
	c0.04,0.03,0.14,0.03,0.18,0.06c0.11,0.04,0.22,0.06,0.32,0.13c0.14,0.1,0.26,0.17,0.42,0.24c0.11,0.04,0.22,0.1,0.35,0.11
	c0.08,0.01,0.13-0.01,0.19-0.03c0.15-0.04,0.32,0.01,0.47,0.07c0.13,0.04,0.26,0.06,0.38,0.11c0.14,0.07,0.24,0.14,0.4,0.15
	c0.18,0,0.35-0.01,0.53,0.03c0.08,0.03,0.53,0.08,0.53,0.19c-0.13,0.03-0.29,0.01-0.42,0.01c-0.18,0-0.36,0.01-0.53-0.04
	c-0.22-0.07-0.43-0.22-0.67-0.28c-0.17-0.04-0.36-0.08-0.53-0.11c-0.21-0.03-0.45,0.04-0.65,0c-0.13-0.03-0.19-0.1-0.32-0.1
	c-0.1,0-0.19,0.01-0.29-0.01c-0.24-0.07-0.47-0.14-0.71-0.21c-0.11-0.03-0.21-0.08-0.31-0.11c-0.11-0.04-0.24-0.04-0.35-0.07
	c-0.22-0.06-0.46-0.1-0.67-0.19c-0.22-0.1-0.45-0.18-0.65-0.28c-0.1-0.04-0.19-0.1-0.29-0.13c-0.07-0.01-0.14-0.03-0.19-0.06
	c-0.11-0.06-0.17-0.13-0.29-0.15c-0.15-0.04-0.25-0.08-0.38-0.19c-0.1-0.08-0.18-0.11-0.31-0.15c-0.18-0.07-0.32-0.17-0.47-0.28
	c-0.14-0.1-0.31-0.19-0.45-0.29c-0.33-0.25-0.77-0.33-1.13-0.54c-0.13-0.07-0.21-0.19-0.29-0.31c-0.08-0.15-0.19-0.22-0.33-0.33
	c-0.06-0.04-0.06-0.08-0.1-0.14c-0.03-0.04-0.08-0.07-0.11-0.11c-0.04-0.1-0.07-0.18-0.13-0.24c-0.07-0.08-0.14-0.14-0.19-0.24
	c-0.07-0.13-0.15-0.25-0.25-0.35c-0.19-0.21-0.35-0.43-0.5-0.65c-0.07-0.11-0.17-0.24-0.22-0.38c-0.04-0.11-0.08-0.24-0.15-0.32
	c-0.07-0.1-0.13-0.14-0.17-0.26c-0.06-0.14-0.14-0.24-0.19-0.39c-0.04-0.13-0.07-0.22-0.1-0.35c-0.04-0.22-0.1-0.33-0.21-0.53
	c-0.14-0.24-0.31-0.53-0.33-0.81c-0.01-0.11-0.07-0.18-0.1-0.28c-0.03-0.1,0.01-0.21,0.06-0.28c0.04-0.08,0.03-0.11,0.06-0.19
	c0.03-0.11,0.08-0.14,0.08-0.26c0-0.17-0.04-0.38,0-0.53c0.03-0.13,0.19-0.29,0.29-0.35c0.21-0.13,0.28-0.22,0.28-0.46
	c0-0.24,0.01-0.47,0-0.71c0-0.36-0.22-0.79-0.51-1.03c-0.25-0.21-0.54-0.39-0.53-0.72c0-0.1,0-0.11,0.04-0.19
	c0.06-0.11,0.04-0.21,0.04-0.35c0-0.29,0.18-0.53,0.35-0.75c0.08-0.13,0.21-0.22,0.28-0.35c0.07-0.14,0.14-0.28,0.21-0.4
	c0.07-0.13,0.13-0.25,0.21-0.38c0.08-0.13,0.19-0.26,0.25-0.4c0.18-0.38-0.01-0.82,0.1-1.21c0.06-0.17,0.17-0.32,0.24-0.49
	c0.07-0.17,0.13-0.32,0.22-0.46c0.19-0.33,0.25-0.78,0.51-1.06c0.14-0.14,0.26-0.24,0.33-0.42c0.06-0.14,0.13-0.26,0.22-0.39
	c0.11-0.14,0.21-0.28,0.29-0.43c0.15-0.28,0.22-0.49,0.46-0.64c0.08-0.06,0.15-0.1,0.24-0.17c0.08-0.07,0.14-0.17,0.24-0.22
	c0.08-0.04,0.18-0.04,0.28-0.06c0.1-0.03,0.17-0.07,0.25-0.14c0.14-0.11,0.26-0.24,0.36-0.4c0.11-0.14,0.18-0.32,0.29-0.46
	c0.21-0.22,0.49-0.4,0.78-0.5c0.38-0.13,0.75-0.24,1.11-0.4c0.13-0.06,0.22-0.14,0.35-0.19c0.17-0.07,0.33-0.03,0.51-0.06
	c0.21-0.03,0.42-0.06,0.61-0.1c0.32-0.06,0.63-0.21,0.95-0.26c0.29-0.06,0.57-0.08,0.86-0.15c0.26-0.06,0.54-0.01,0.79-0.1
	c0.13-0.04,0.21-0.11,0.33-0.13s0.25,0,0.38-0.01c0.11-0.01,0.19-0.06,0.29-0.1c0.18-0.06,0.35-0.04,0.54-0.04
	c0.42-0.01,0.79-0.24,1.21-0.24c0.31,0,0.61,0,0.92,0c0.39,0.01,0.67,0.1,1,0.31c0.28,0.18,0.6,0.26,0.9,0.39
	c0.22,0.1,0.4,0.25,0.63,0.35c0.21,0.08,0.43,0.1,0.65,0.13c0.35,0.04,0.65,0.1,0.97,0.19c0.21,0.07,0.38,0.17,0.58,0.26
	c0.13,0.06,0.25,0.1,0.36,0.15c0.08,0.04,0.17,0.13,0.26,0.15c0.21,0.07,0.42,0.14,0.63,0.19c0.29,0.1,0.57,0.11,0.85,0.25
	c0.18,0.1,0.39,0.14,0.57,0.24c0.21,0.11,0.42,0.25,0.63,0.38c0.19,0.11,0.4,0.21,0.58,0.32c0.24,0.15,0.49,0.33,0.7,0.53
	c0.26,0.26,0.51,0.53,0.82,0.75c0.43,0.32,0.89,0.63,1.28,1.03c0.07,0.07,0.14,0.14,0.19,0.21c0.04,0.07,0.04,0.14,0.06,0.21
	c0.03,0.17,0.11,0.28,0.18,0.43c0.07,0.15,0.17,0.35,0.22,0.5c0.06,0.15,0.04,0.35,0.06,0.5c0.01,0.13,0.01,0.24,0.04,0.35
	c0.04,0.17,0.06,0.33,0.06,0.5c0,0.18,0,0.36,0,0.54c0,0.22,0.04,0.42,0.04,0.64c0,0.17,0.1,0.26,0.14,0.4c0.04,0.13,0,0.32,0,0.45
	c0,0.36,0,0.72,0.07,1.08c0.04,0.19,0.14,0.35,0.19,0.53c0.06,0.18,0.11,0.32,0.18,0.49c0.22,0.5,0.46,1.06,0.54,1.6
	C34.83,24.08,34.79,24.22,34.77,24.37z M36.55,18.1c0.06,0.28,0.1,0.56,0.17,0.83c0.07,0.25,0.03,0.47,0.06,0.72
	c0.01,0.11,0.04,0.19,0.1,0.31c0.07,0.15,0.08,0.26,0.1,0.45c0.01,0.19,0.04,0.36,0.04,0.56c0,0.28,0,0.57,0,0.85
	c0,0.11,0.01,0.19,0.04,0.31c0.03,0.24,0,0.46-0.03,0.7c-0.04,0.39,0.01,0.81,0,1.21c0,0.1-0.04,0.15-0.06,0.24
	c-0.01,0.13,0,0.25-0.03,0.38c-0.03,0.11-0.04,0.24-0.07,0.35c-0.03,0.21-0.1,0.36-0.18,0.53c-0.04,0.11-0.07,0.21-0.13,0.32
	c-0.04,0.06-0.08,0.11-0.11,0.17c-0.06,0.11-0.08,0.33-0.11,0.04c0.06-0.01,0.08-0.14,0.11-0.21c0.06-0.15,0.14-0.28,0.17-0.43
	c0.06-0.31,0.17-0.63,0.17-0.93c0-0.13,0.01-0.22,0.03-0.33c0.03-0.17,0.01-0.35,0.01-0.53c0-0.33,0.1-0.65,0.1-1
	c0-0.26-0.08-0.49-0.17-0.71c-0.08-0.21-0.03-0.51-0.14-0.7c-0.01-0.03-0.04-0.03-0.06-0.04c-0.06-0.07-0.07-0.17-0.08-0.26
	c-0.03-0.18,0-0.38-0.01-0.57c-0.01-0.28-0.07-0.54-0.17-0.79c-0.06-0.14-0.11-0.25-0.19-0.39c-0.1-0.18-0.14-0.38-0.19-0.57
	c-0.11-0.36-0.33-0.64-0.45-1c-0.08-0.29-0.24-0.54-0.31-0.83c-0.07-0.25-0.11-0.58-0.29-0.76c-0.14-0.14-0.32-0.15-0.47-0.26
	c-0.19-0.14-0.28-0.38-0.47-0.5c-0.17-0.13-0.25-0.31-0.38-0.46c-0.17-0.21-0.26-0.49-0.4-0.74c-0.14-0.25-0.32-0.42-0.5-0.61
	c-0.21-0.24-0.35-0.49-0.6-0.68c-0.14-0.1-0.26-0.19-0.38-0.32c-0.08-0.08-0.15-0.19-0.26-0.25c-0.22-0.1-0.4-0.17-0.6-0.32
	c-0.17-0.14-0.35-0.19-0.5-0.33c-0.08-0.07-0.17-0.19-0.26-0.25c-0.13-0.08-0.28-0.06-0.42-0.11c-0.28-0.11-0.54-0.33-0.82-0.47
	c-0.21-0.1-0.38-0.26-0.53-0.46c-0.1-0.14-0.26-0.25-0.4-0.33c-0.24-0.14-0.42-0.32-0.63-0.49c-0.15-0.11-0.32-0.14-0.49-0.21
	c-0.21-0.1-0.4-0.24-0.61-0.32c-0.28-0.11-0.56-0.15-0.82-0.31C25.06,8.37,24.84,8.12,24.55,8c-0.08-0.04-0.18-0.06-0.26-0.1
	c-0.13-0.06-0.22-0.17-0.35-0.21c-0.29-0.11-0.56-0.1-0.81-0.1c-0.56,0-1.11,0-1.66,0c-0.25,0-0.51,0-0.77,0
	c-0.11,0-0.26-0.04-0.38,0.01c-0.11,0.06-0.19,0.15-0.31,0.19c-0.08,0.04-0.15,0.03-0.24,0.06C19.7,7.89,19.67,7.93,19.6,8
	c-0.15,0.17-0.38,0.11-0.57,0.11c-0.22,0-0.45,0-0.67,0c-0.22,0-0.47-0.04-0.7,0c-0.1,0.03-0.18,0.11-0.28,0.15
	C17.3,8.3,17.21,8.3,17.12,8.35c-0.17,0.08-0.35,0.22-0.51,0.33c-0.39,0.26-0.88,0.5-1.35,0.42c-0.08-0.01-0.17-0.06-0.25-0.04
	c-0.08,0.01-0.15,0.07-0.24,0.1c-0.18,0.06-0.35,0.07-0.51,0.17c-0.21,0.14-0.38,0.29-0.58,0.4c-0.24,0.11-0.46,0.25-0.67,0.43
	c-0.11,0.08-0.18,0.17-0.32,0.21c-0.15,0.06-0.33,0.04-0.5,0.04c-0.22,0-0.46-0.04-0.68,0.04c-0.14,0.07-0.24,0.11-0.38,0.13
	c-0.08,0-0.15,0.01-0.24,0.06c-0.19,0.07-0.35,0.24-0.49,0.4c-0.11,0.13-0.18,0.25-0.26,0.4c-0.08,0.15-0.15,0.24-0.26,0.35
	c-0.13,0.13-0.22,0.26-0.35,0.38c-0.14,0.13-0.24,0.26-0.36,0.4c-0.13,0.14-0.28,0.24-0.39,0.39c-0.15,0.22-0.4,0.21-0.56,0.42
	c-0.11,0.17-0.28,0.31-0.38,0.47c-0.1,0.18-0.26,0.24-0.39,0.38c-0.11,0.13-0.22,0.28-0.33,0.42c-0.14,0.19-0.33,0.36-0.43,0.58
	c-0.08,0.18-0.13,0.51-0.33,0.58c0.04-0.01-0.18,0-0.18,0c-0.08,0.07-0.03,0.26-0.03,0.38c-0.01,0.19-0.13,0.39-0.18,0.58
	C5.91,16.9,5.9,17,5.87,17.14c-0.03,0.15-0.11,0.25-0.18,0.38c-0.21,0.43-0.4,0.92-0.46,1.42c-0.01,0.17,0.03,0.35-0.01,0.51
	c-0.03,0.11-0.07,0.18-0.08,0.29c0,0.01,0,0.03,0,0.06c0,0.03,0,0.04-0.01,0.06c0,0.08,0,0.17,0,0.25v0.56c0,0.06,0,0.11,0,0.17
	c0-0.13-0.06-0.26-0.08-0.4c-0.03-0.14,0.01-0.19,0.04-0.33c0.01-0.06,0-0.1,0.01-0.15c0.01-0.04,0.03-0.07,0.03-0.1
	c0-0.04,0-0.07,0-0.11c-0.01-0.04-0.03-0.07-0.03-0.11c-0.01-0.08,0-0.17-0.01-0.25c-0.04-0.29-0.1-0.63-0.04-0.93
	c0.01-0.07,0.06-0.13,0.07-0.19c0.01-0.06,0-0.1,0-0.15c0.03-0.15,0.11-0.28,0.15-0.42c0.04-0.13,0.06-0.26,0.11-0.38
	c0.03-0.07,0.08-0.11,0.11-0.17c0.01-0.04,0.01-0.13,0.01-0.17c0.03-0.18,0.08-0.35,0.08-0.53c0-0.25,0.15-0.51,0.28-0.71
	c0.06-0.1,0.11-0.1,0.18-0.18c0.06-0.07,0.06-0.13,0.11-0.19c0.1-0.14,0.18-0.28,0.26-0.43c0.04-0.08,0.06-0.1,0.08-0.18
	c0.04-0.11,0.07-0.21,0.14-0.31c0.11-0.15,0.22-0.29,0.32-0.47c0.07-0.13,0.17-0.24,0.22-0.38c0.13-0.21,0.24-0.43,0.38-0.63
	c0.1-0.13,0.21-0.19,0.31-0.32c0.06-0.08,0.13-0.17,0.17-0.26c0.08-0.18,0.04-0.43,0.19-0.57c0.1-0.1,0.15-0.08,0.22-0.21
	c0.07-0.14,0.07-0.29,0.14-0.43c0.07-0.14,0.13-0.11,0.24-0.18c0.07-0.04,0.11-0.1,0.18-0.15c0.15-0.13,0.33-0.1,0.5-0.21
	c0.08-0.06,0.14-0.17,0.24-0.21c0.14-0.07,0.28,0,0.4-0.06c0.11-0.04,0.11-0.14,0.18-0.22c0.08-0.1,0.11-0.08,0.24-0.1
	c0.18-0.04,0.26-0.25,0.46-0.25c0.08,0,0.19,0.04,0.26,0c0.07-0.06,0.1-0.17,0.18-0.22c0.06-0.04,0.08-0.04,0.15-0.04
	c0.17-0.03,0.25-0.1,0.39-0.19c0.25-0.21,0.51-0.06,0.79-0.18c0.22-0.1,0.4-0.25,0.64-0.31c0.11-0.03,0.15-0.07,0.25-0.13
	c0.1-0.06,0.17-0.06,0.28-0.06c0.13,0,0.28,0.03,0.4,0c0.13-0.01,0.21-0.11,0.32-0.17c0.08-0.04,0.18-0.06,0.26-0.1
	c0.11-0.07,0.14-0.17,0.24-0.26c0.1-0.11,0.18-0.1,0.31-0.15c0.1-0.04,0.15-0.1,0.24-0.17c0.19-0.15,0.4-0.06,0.6-0.17
	c0.13-0.04,0.22-0.13,0.36-0.17c0.17-0.04,0.32,0,0.49-0.04c0.07-0.01,0.14-0.07,0.21-0.08c0.13-0.03,0.28-0.01,0.4-0.01
	c0.13,0.01,0.25,0.06,0.38,0.06c0.13,0.01,0.17-0.04,0.28-0.08c0.13-0.06,0.28-0.03,0.4-0.03c0.15,0,0.22-0.01,0.35-0.1
	c0.22-0.14,0.54-0.06,0.79-0.07c0.19,0,0.39-0.06,0.6-0.06c0.24,0,0.45-0.1,0.68-0.11s0.49-0.01,0.74,0
	c0.32,0.01,0.58,0.19,0.89,0.26c0.26,0.06,0.57,0.03,0.83-0.03c0.19-0.04,0.39,0.03,0.58,0.04c0.25,0.01,0.56,0.24,0.78,0.36
	c0.22,0.13,0.49,0.14,0.72,0.22c0.26,0.1,0.53,0.1,0.78,0.25c0.13,0.07,0.22,0.17,0.36,0.24c0.15,0.07,0.29,0.11,0.43,0.19
	c0.24,0.15,0.4,0.42,0.7,0.45c0.29,0.03,0.47,0.22,0.74,0.32c0.26,0.1,0.56,0.06,0.82,0.21c0.36,0.19,0.67,0.63,0.95,0.95
	c0.14,0.17,0.26,0.33,0.43,0.47c0.21,0.18,0.36,0.43,0.58,0.58c0.4,0.29,0.81,0.58,1.21,0.88c0.24,0.19,0.46,0.47,0.65,0.74
	c0.14,0.18,0.28,0.33,0.42,0.5c0.13,0.14,0.24,0.31,0.38,0.42c0.22,0.19,0.47,0.32,0.68,0.54c0.24,0.24,0.4,0.61,0.57,0.92
	c0.07,0.14,0.13,0.24,0.13,0.4c0,0.18,0,0.28,0.1,0.43c0.07,0.11,0.13,0.19,0.18,0.32c0.08,0.19,0.11,0.38,0.24,0.56
	c0.1,0.13,0.18,0.22,0.26,0.36C36.51,17.71,36.53,17.89,36.55,18.1z"/>
</svg>
