<?xml version="1.0" standalone="no"?>
<!DOCTYPE svg PUBLIC "-//W3C//DTD SVG 20010904//EN"
 "http://www.w3.org/TR/2001/REC-SVG-20010904/DTD/svg10.dtd">
<svg version="1.0" xmlns="http://www.w3.org/2000/svg"
 width="323.000000pt" height="352.000000pt" viewBox="0 0 323.000000 352.000000"
 preserveAspectRatio="xMidYMid meet">

<g transform="translate(0.000000,352.000000) scale(0.100000,-0.100000)"
fill="#000000" stroke="none">
<path d="M1102 3118 c-156 -414 -148 -398 -311 -633 -83 -120 -151 -222 -151
-228 0 -11 -2 -12 173 49 75 26 139 45 142 43 2 -3 0 -47 -5 -99 -5 -52 -10
-153 -10 -225 -1 -241 21 -799 36 -911 7 -61 14 -132 14 -158 0 -45 23 -154
92 -431 39 -157 42 -161 63 -89 37 129 115 478 115 517 0 23 6 101 15 172 31
268 43 1044 19 1195 l-6 38 153 -54 c84 -30 157 -54 162 -54 16 0 -1 28 -149
242 l-147 211 -89 230 c-49 127 -90 233 -92 235 -2 2 -13 -21 -24 -50z"/>
<path d="M2012 3098 c-45 -153 -104 -427 -112 -523 -5 -55 -14 -149 -19 -210
-21 -213 -34 -848 -22 -1009 6 -82 10 -150 8 -152 -1 -2 -72 22 -157 52 -85
30 -155 54 -157 54 -12 0 15 -44 149 -236 l152 -219 92 -238 91 -239 40 104
c22 56 62 161 89 233 46 120 60 145 205 355 86 124 154 228 152 232 -2 4 -74
-17 -160 -48 -86 -30 -157 -53 -159 -52 -1 2 2 44 8 93 6 55 7 247 3 490 -9
564 -27 779 -87 1045 -45 202 -77 322 -87 333 -4 4 -17 -25 -29 -65z"/>
</g>
</svg>
