<?xml version="1.0" standalone="no"?>
<!DOCTYPE svg PUBLIC "-//W3C//DTD SVG 20010904//EN"
 "http://www.w3.org/TR/2001/REC-SVG-20010904/DTD/svg10.dtd">
<svg version="1.0" xmlns="http://www.w3.org/2000/svg"
 width="652.000000pt" height="634.000000pt" viewBox="0 0 652.000000 634.000000"
 preserveAspectRatio="xMidYMid meet">

<g transform="translate(0.000000,634.000000) scale(0.100000,-0.100000)"
fill="#000000" stroke="none">
<path d="M2872 6135 c-42 -20 -72 -40 -72 -49 0 -20 -47 -51 -80 -52 -52 -1
-151 -16 -345 -50 -212 -37 -335 -69 -335 -85 0 -6 9 -7 20 -4 30 10 24 -2
-17 -29 -23 -16 -45 -23 -58 -20 -15 4 -53 -16 -134 -70 -61 -42 -131 -81
-154 -87 -60 -16 -170 -75 -220 -119 -23 -21 -58 -60 -77 -89 -24 -35 -40 -49
-51 -46 -18 6 -57 -48 -128 -176 -56 -100 -104 -154 -221 -249 -111 -90 -126
-114 -161 -255 -13 -49 -24 -84 -27 -77 -2 7 -23 -15 -46 -50 -24 -35 -72
-106 -107 -158 -52 -76 -67 -108 -77 -160 -18 -93 -70 -258 -82 -262 -15 -5
-30 -115 -30 -218 0 -64 -6 -96 -21 -130 -11 -25 -27 -81 -35 -125 -22 -116
-41 -180 -82 -270 -33 -73 -36 -87 -36 -165 2 -151 74 -432 129 -505 16 -20
29 -44 30 -53 1 -9 6 -34 10 -55 5 -24 3 -54 -4 -79 -12 -40 -6 -102 9 -93 4
2 11 -32 15 -76 9 -106 33 -198 101 -377 58 -156 69 -176 177 -347 107 -169
134 -201 241 -282 65 -50 115 -99 147 -142 26 -36 109 -122 184 -190 315 -288
443 -377 575 -401 154 -27 172 -33 220 -66 27 -19 58 -34 67 -34 10 0 32 -9
48 -21 77 -52 297 -140 435 -174 30 -7 91 -23 135 -35 116 -31 233 -37 290
-15 26 9 60 15 78 12 18 -2 60 -1 94 4 33 5 189 25 345 44 155 19 338 47 405
60 67 14 133 25 146 25 13 0 85 36 160 80 75 44 142 77 150 74 7 -2 35 4 61
15 48 21 129 44 199 56 42 7 127 76 127 102 0 13 -3 13 -15 3 -18 -15 -20 0
-2 21 6 8 46 44 87 79 41 35 119 106 172 157 53 51 102 93 108 93 6 0 30 18
54 40 24 22 68 51 98 64 91 40 115 68 180 204 57 123 59 125 190 256 84 83
146 154 167 191 19 33 51 87 72 120 65 104 129 293 160 480 7 39 23 102 36
140 13 39 28 101 34 140 5 38 17 100 26 138 14 58 15 78 5 126 -7 31 -12 78
-12 104 0 60 -48 164 -61 132 -18 -46 -8 79 16 196 30 146 31 140 -40 390 -53
184 -73 237 -123 311 -20 31 -23 45 -18 78 3 22 2 49 -3 59 -6 10 -15 55 -20
101 -9 65 -17 92 -38 122 -16 21 -35 50 -44 65 -32 59 -97 153 -141 204 -24
30 -80 108 -123 174 -43 66 -88 133 -101 148 -13 15 -28 46 -34 67 -9 32 -28
55 -98 114 -57 49 -89 71 -94 63 -9 -15 -3 -22 -132 158 -58 83 -113 158 -120
168 -8 11 -36 21 -70 27 -85 14 -222 60 -266 89 -52 35 -176 135 -225 182 -25
24 -94 64 -180 105 -149 71 -142 70 -390 93 -62 6 -118 17 -147 30 -64 29
-184 39 -224 18 -33 -17 -84 -12 -97 9 -6 11 -45 14 -175 14 -111 0 -187 5
-227 15 -86 21 -102 19 -183 -20z m-1232 -1097 c74 -78 195 -194 269 -257 74
-64 167 -143 206 -177 38 -33 97 -91 130 -128 32 -37 116 -116 185 -176 69
-59 225 -208 347 -331 122 -123 229 -230 238 -237 9 -8 19 -27 22 -44 4 -19
14 -33 30 -39 29 -11 26 -29 -8 -47 -48 -25 -106 10 -259 157 -47 45 -121 110
-165 144 -97 75 -327 299 -490 478 -66 72 -178 190 -248 262 -71 72 -140 152
-155 177 -14 25 -36 59 -49 76 -13 17 -23 39 -23 50 0 10 -25 41 -55 67 -30
27 -55 56 -55 66 0 10 -19 37 -41 60 -23 22 -35 41 -28 41 8 0 75 -64 149
-142z m235 97 c28 -14 55 -25 61 -25 25 0 167 -104 326 -237 92 -77 207 -168
255 -202 172 -120 285 -208 450 -352 93 -81 195 -163 228 -184 33 -21 110 -79
170 -130 161 -134 270 -216 355 -265 41 -24 124 -77 184 -117 59 -41 125 -82
145 -93 21 -10 43 -26 51 -35 7 -9 60 -38 116 -64 83 -40 108 -57 133 -91 29
-40 42 -90 23 -90 -4 0 -25 9 -47 20 -49 25 -72 25 -110 0 -39 -26 -52 -25
-109 5 -59 31 -150 34 -212 6 -46 -21 -79 -15 -148 28 -63 39 -517 434 -681
592 -49 48 -142 133 -207 190 -290 259 -373 337 -520 495 -86 93 -169 185
-183 204 -14 19 -54 64 -89 100 -295 300 -289 293 -191 245z m-331 -475 c49
-66 299 -309 376 -367 114 -85 348 -331 429 -451 33 -49 45 -78 52 -125 14
-101 13 -102 -38 -45 -25 29 -157 164 -293 299 -143 143 -266 275 -294 315
-46 67 -80 113 -153 204 -19 25 -42 59 -49 76 -7 17 -24 38 -37 47 -13 8 -36
40 -50 71 -15 30 -42 73 -62 94 -19 22 -35 43 -35 48 1 12 103 -99 154 -166z
m-31 -180 c14 -12 49 -58 76 -103 27 -45 97 -140 155 -212 59 -71 134 -166
168 -210 34 -44 80 -101 104 -126 23 -25 51 -64 62 -86 11 -21 49 -77 83 -124
35 -46 89 -126 121 -178 80 -127 193 -273 302 -389 50 -53 120 -131 155 -172
124 -144 204 -221 265 -252 85 -43 115 -68 138 -111 l19 -38 -26 -21 c-14 -11
-24 -23 -20 -26 3 -3 19 7 35 23 37 35 38 27 4 -26 l-26 -41 -83 4 c-98 4
-107 10 -189 126 -83 119 -95 135 -135 177 -20 22 -59 67 -86 100 -27 33 -86
101 -130 150 -130 145 -237 273 -315 380 -40 55 -93 121 -117 147 -24 26 -43
53 -43 61 0 7 -24 44 -53 80 -30 37 -69 97 -87 133 -18 36 -54 89 -80 117 -26
29 -55 68 -64 87 -9 19 -35 63 -58 97 -24 34 -61 91 -83 128 -22 37 -66 97
-98 133 -90 104 -98 129 -59 175 20 22 33 22 65 -3z m1903 -101 c62 -69 379
-295 759 -541 94 -61 193 -129 220 -152 28 -23 77 -61 110 -86 52 -38 215
-193 447 -423 98 -97 203 -238 248 -331 38 -80 70 -204 70 -268 -1 -28 -8 -18
-52 72 -50 104 -51 106 -252 306 -216 216 -326 337 -326 359 0 29 -144 159
-220 199 -41 22 -97 59 -125 82 -100 86 -162 136 -255 206 -154 116 -197 153
-360 307 -85 81 -184 171 -220 201 -74 61 -99 90 -77 90 8 0 22 -10 33 -21z
m-2016 -274 c7 -8 8 -15 2 -15 -5 0 -15 7 -22 15 -7 8 -8 15 -2 15 5 0 15 -7
22 -15z m213 -234 c32 -42 71 -89 87 -106 30 -31 75 -90 160 -212 28 -40 64
-83 80 -95 17 -12 42 -42 56 -66 29 -49 144 -172 385 -412 161 -160 249 -260
249 -283 0 -15 51 -67 67 -67 7 0 16 -12 19 -27 12 -48 -50 -69 -119 -39 -18
8 -64 44 -104 80 -62 57 -80 82 -128 179 -64 125 -118 203 -170 243 -20 15
-82 92 -140 173 -57 80 -149 194 -204 253 -55 59 -111 129 -125 156 -14 27
-46 73 -71 103 -26 30 -54 68 -62 84 -8 17 -28 44 -44 60 -15 17 -38 44 -51
62 -101 140 -100 135 -18 59 41 -37 101 -103 133 -145z m1040 -328 c25 -27 78
-91 117 -143 40 -52 94 -117 120 -145 77 -81 188 -213 260 -311 37 -50 85
-105 106 -123 24 -21 34 -35 27 -38 -8 -3 -13 -22 -13 -44 0 -84 -40 -100
-136 -55 -65 30 -101 75 -163 201 -69 141 -117 217 -229 361 -112 144 -159
222 -168 281 -12 78 15 83 79 16z m557 -93 c11 -11 20 -24 20 -29 0 -14 135
-121 153 -121 26 0 47 -29 47 -65 0 -33 1 -34 48 -37 42 -3 47 -6 50 -29 2
-18 -8 -39 -34 -70 -48 -58 -81 -79 -124 -79 -45 0 -69 17 -116 82 -21 29 -68
89 -104 133 -78 93 -90 113 -90 153 0 22 9 35 37 55 45 32 86 34 113 7z
m-1705 -137 c10 -16 46 -59 80 -98 34 -38 90 -108 125 -155 36 -47 92 -114
125 -150 33 -36 94 -105 135 -155 41 -49 242 -259 448 -465 386 -386 560 -569
602 -630 41 -59 380 -403 428 -433 43 -27 50 -28 164 -28 l118 -1 20 -38 c21
-42 26 -80 11 -80 -14 0 -307 104 -366 129 -27 12 -66 37 -85 55 -19 19 -71
55 -115 82 -97 57 -230 169 -275 230 -19 24 -44 51 -57 59 -12 9 -43 46 -67
83 -26 38 -116 137 -207 227 -89 88 -209 214 -267 280 -57 66 -128 139 -157
162 -29 23 -75 72 -101 108 -27 37 -76 99 -109 138 -33 39 -69 87 -80 107 -58
105 -85 148 -133 213 -28 40 -81 115 -116 167 -35 53 -71 102 -81 110 -22 18
-75 90 -75 102 0 17 18 7 35 -19z m2892 -167 c35 -7 74 -21 87 -30 14 -9 50
-25 79 -36 38 -14 69 -36 100 -70 26 -28 70 -61 101 -76 68 -32 346 -301 346
-335 0 -11 18 -64 40 -116 22 -53 40 -101 40 -108 0 -7 -9 -20 -20 -30 -26
-23 -27 -87 -1 -146 13 -33 21 -91 30 -225 11 -161 10 -191 -5 -265 -19 -99
-81 -225 -135 -278 -81 -79 -126 -119 -174 -150 -74 -50 -124 -100 -150 -152
-19 -36 -34 -51 -72 -68 -26 -12 -66 -33 -88 -46 -38 -24 -48 -25 -212 -25
-166 0 -172 1 -200 24 -15 13 -55 36 -87 52 -33 16 -95 61 -137 100 -97 89
-150 115 -255 124 -45 5 -95 15 -111 24 -56 29 -134 126 -180 225 -24 52 -57
109 -73 127 -23 27 -29 45 -34 101 -4 37 -13 91 -21 119 -8 28 -15 59 -15 68
0 10 -9 30 -19 45 -14 19 -21 53 -26 117 -9 107 -2 124 74 199 54 53 71 91 71
163 0 24 18 98 40 166 22 67 40 132 40 144 0 29 34 62 63 62 13 0 59 23 103
52 72 47 135 76 283 129 33 12 80 19 122 19 64 0 71 2 135 46 36 25 76 49 88
54 31 13 103 11 173 -4z m-2135 -371 c10 -18 9 -18 -13 2 -13 12 -32 37 -42
55 l-19 33 31 -35 c18 -19 36 -44 43 -55z m403 -385 c72 -54 172 -139 223
-189 83 -81 95 -90 121 -85 25 5 32 2 45 -24 40 -77 27 -151 -30 -172 -34 -13
-58 1 -91 53 -14 23 -81 102 -147 175 -67 73 -133 153 -147 178 -15 25 -49 66
-76 92 -63 59 -253 267 -253 276 0 4 51 -40 113 -99 61 -59 171 -151 242 -205z"/>
</g>
</svg>
