<?xml version="1.0" encoding="utf-8"?>
<!-- Generator: Adobe Illustrator 25.3.1, SVG Export Plug-In . SVG Version: 6.00 Build 0)  -->
<svg version="1.1" id="레이어_1" xmlns="http://www.w3.org/2000/svg" xmlns:xlink="http://www.w3.org/1999/xlink" x="0px"
	 y="0px" viewBox="0 0 292.7 326.48" style="enable-background:new 0 0 292.7 326.48;" xml:space="preserve">
<g>
	<path d="M64.19,138.36c-5.17-11.71-10.03-22.7-14.76-33.42c-5.18,8.03-3.48,19.29,6.05,37.75c-0.44,0.22-0.9,0.67-1.31,0.62
		c-9.72-1.16-19.47-2.16-29.12-3.7c-2.79-0.45-5.86-1.96-7.89-3.92c-6.54-6.33-12.68-13.01-13.57-22.87
		c-0.25-2.75-2.03-5.35-2.41-8.11c-0.69-5.13-1.36-10.35-1.14-15.49c0.42-9.83,4.93-18.38,9.56-26.83
		c3.32-6.05,8.3-10.48,13.44-14.86c5.53-4.72,10.61-10,16.35-14.44c3.46-2.67,8.08-3.81,11.72-6.31
		C62.6,18.88,74.98,12.85,88.15,8.5c14.95-4.94,30.29-8.4,46.1-8.49c7.78-0.05,15.67,0.67,23.33,2.02
		c9.94,1.76,18.17,7.44,25.63,13.96c13.73,12,25.25,26.21,33.97,41.95c10.56,19.08,21.3,38.31,27.56,59.47
		c2.75,9.29,4.89,18.76,7.61,28.07c3.8,13.02,7.94,25.93,11.8,38.93c1.8,6.08,3.39,12.23,4.82,18.41c0.29,1.24-0.19,3.08-1.03,4.01
		c-0.56,0.62-2.43,0.38-3.61,0.09c-12.51-3.09-25.13-4.79-36.89,1.9c-11.77,6.7-23.17,14.09-34.41,21.65
		c-4.58,3.08-8.47,7.26-12.42,11.18c-5.51,5.48-10.8,11.18-16.17,16.81c-0.6,0.63-1.37,1.3-1.54,2.07c-0.94,4.22-3.36,3.49-6.4,2.38
		c-3.37-1.23-7.02-1.69-10.41-2.87c-9.85-3.43-19.59-7.17-29.45-10.56c-8.08-2.78-16.35-5.03-24.4-7.88
		c-16.57-5.85-32.77-12.7-47.94-21.57c-4.55-2.66-8.02-7.36-11.57-11.48c-1.99-2.31-3-5.44-4.69-8.04
		c-7.32-11.21-3.68-21.71,1.96-32.09c0.53-0.98,1.31-1.83,1.86-2.81c7.62-13.62,20.75-12.42,30.93-9.13
		c1.18,0.38,2.26,1.04,3.42,1.5c4.37,1.77,6.05,5.05,5.85,9.72c-0.6,13.97,4.32,26.52,9.86,38.77c-1.27-9.25-2.96-18.5-3.63-27.83
		c-0.33-4.68,1.02-9.54,2.01-14.23c0.33-1.54,1.68-3.14,3-4.14c7.81-5.86,16.21-10.71,25.46-13.94c1.56-0.55,3.3-0.61,4.95-0.9
		c-0.03-0.34-0.07-0.68-0.1-1.02c-4.96,0.59-10.07,0.62-14.85,1.9c-6.95,1.86-13.63,4.7-20.49,6.89c-1.21,0.39-3.2,0.1-4.13-0.7
		c-5.23-4.5-5.78-8.3-2.42-15.88c1.41-3.18,2.91-6.38,4.9-9.2c1.98-2.8,4.62-5.14,6.78-7.47C77.19,119.56,72.21,124.1,64.19,138.36z
		"/>
	<path d="M224.32,249.18c-4.61,1.05-9.34,1.74-13.8,3.23c-12.7,4.26-22.5,12.53-30.55,23.06c-1.66,2.18-3.55,4.2-5.05,6.48
		c-1.9,2.89-4.37,2.04-5.3,0.03c-1.09-2.36-1.99-6.23-0.8-7.99c4.76-7.07,9.85-14.07,15.76-20.19
		c11.71-12.13,25.92-20.89,41.19-27.92c4.85-2.23,9.61-4.69,14.57-6.63c5.34-2.09,10.93-1.91,16.58-0.98
		c4.03,0.66,8.17,0.65,12.25,1.06c4.47,0.45,6.29,2.99,5.75,7.02c-5.36,1.47-10.49,2.83-15.58,4.29c-0.74,0.21-1.34,0.88-2.32,1.54
		c5.2,0.7,9.92,1.5,14.68,1.9c2.73,0.23,3.89,1.57,4.61,3.98c3.18,10.71,6.85,21.3,9.49,32.15c0.99,4.05,4.21,6.07,5.69,9.49
		c1.91,4.38,1.69,6.5-1.72,9.9c-10.41,10.36-23.95,15.42-36.63,22.01c-15.87,8.26-33.24,10.95-50.4,14.51
		c-1.09,0.23-2.25,0.09-3.35,0.27c-2.86,0.48-4.87-0.78-6.24-3.11c-1.12-1.91-0.55-5.06,1.34-7.47
		c-3.85-7.56-7.82-15.26-11.66-23.02c-0.4-0.81-0.3-2.16,0.08-3.04c4.57-10.42,11.81-18.76,20.95-25.32
		c6.78-4.86,14.04-9.07,21.09-13.56C224.74,250.29,224.53,249.73,224.32,249.18z"/>
</g>
</svg>
