<?xml version="1.0" encoding="utf-8"?>
<!-- Generator: Adobe Illustrator 25.3.1, SVG Export Plug-In . SVG Version: 6.00 Build 0)  -->
<svg version="1.1" id="레이어_1" xmlns="http://www.w3.org/2000/svg" xmlns:xlink="http://www.w3.org/1999/xlink" x="0px"
	 y="0px" viewBox="0 0 353.32 293.41" style="enable-background:new 0 0 353.32 293.41;" xml:space="preserve">
<g>
	<path d="M3.12,125.9c-1.44-2.02,0.04-3.43,2.21-5.05c2.38-1.77,4.38-4.06,6.47-6.19c8.48-8.63,17.09-17.15,25.36-25.98
		C49.98,75.02,62.77,61.33,75.18,47.3c9.51-10.75,18.38-22.07,27.61-33.07c3.77-4.49,7.65-8.91,11.73-13.11
		c0.87-0.89,3.18-1.44,4.24-0.92c15.37,7.48,32.3,8.33,48.67,11.26c25.05,4.5,50.36,7.62,75.38,12.27
		c17.51,3.25,34.73,8.07,52.08,12.17c0.95,0.23,2.07,0,2.91,0.4c1.59,0.76,3.79,1.52,4.33,2.86c0.5,1.23-0.37,3.66-1.46,4.78
		c-7.65,7.9-15.96,15.2-23.18,23.46c-8.7,9.95-16.32,20.84-24.77,31.02c-13.14,15.84-26.75,31.29-39.83,47.18
		c-9.84,11.95-19.16,24.33-28.7,36.53c-3.08,3.94-6.2,7.84-9.13,11.89c-3.21,4.43-4.35,9.4-2.04,14.5
		c4.01,8.88,3.56,17.85,1.78,27.12c-0.89,4.61-0.69,9.44-0.83,14.18c-0.25,8.61-0.33,17.23-0.6,25.84
		c-0.09,2.84-0.36,6.18,2.67,7.06c1.89,0.55,4.84-0.65,6.64-1.98c9.65-7.15,20.58-11.9,31.67-15.84
		c22.68-8.04,45.74-14.99,68.56-22.65c9.91-3.32,19.58-7.34,29.41-10.9c3.97-1.44,8.04-2.67,12.13-3.7c2.65-0.67,3.4-2.06,2.25-4.31
		c-1.07-2.1-2.34-4.15-3.85-5.94c-2.66-3.13-3.11-6.56-2.27-10.55c10.5,4.36,20.84,8.61,31.11,12.99c0.77,0.33,1.6,1.61,1.61,2.45
		c0.05,5.18-1.71,9.11-6.61,12c-7.68,4.53-16.2,6.4-24.51,8.96c-19.79,6.09-39.76,11.64-59.39,18.19
		c-13.11,4.38-25.68,10.37-38.68,15.13c-9.12,3.34-18.61,5.68-27.84,8.76c-4.82,1.61-9.67,3.42-14.1,5.88
		c-6.02,3.34-11.49,2.66-16.93-0.82c-5.68-3.63-11.11-7.66-16.92-11.06c-26.66-15.61-55.11-27.58-82.91-40.89
		c-11.26-5.39-22.21-11.41-33.53-16.64c-7.22-3.33-14.84-5.82-22.35-8.49c-2.54-0.91-4.04-1.92-3.77-5c0.5-5.81,1.28-11.7,0.8-17.46
		c-1.22-14.66-3.68-29.24-4.35-43.91c-0.25-5.41-3.92-10.56-1.29-16.12C1.63,129.37,2.24,127.88,3.12,125.9z"/>
	<path d="M204.24,254.86c0.61,0.3,1.14,0.56,2.02,1c-4.07,1.92-7.81,3.91-11.73,5.43c-2.39,0.92-4.24,0.02-3.96-3.04
		c0.23-2.48,0.73-4.95,0.79-7.43c0.09-3.68-0.22-7.37-0.12-11.05c0.05-1.84,0.14-3.97,1.06-5.44c2.8-4.44,2.93-4.82-0.53-8.64
		c-0.42-0.46-1.07-0.95-1.11-1.46c-0.89-10.76-5.15-21.58,4.34-31.4c10.31-10.67,19.68-22.26,29.09-33.76
		c6.08-7.43,11.5-15.42,17.23-23.14c0.96-1.29,1.74-2.67,3.9-1.55c14.86,7.72,31.23,11.03,47.06,15.91
		c1.18,0.36,2.36,0.75,4.49,2.25c-0.87,0.39-1.85,0.65-2.61,1.2c-10.63,7.71-21.73,14.51-33.91,19.68
		c-10.54,4.47-20.67,9.9-30.85,15.17c-3.82,1.98-7.25,4.72-10.8,7.79c1.41-0.29,2.88-0.44,4.23-0.9c7.99-2.72,15.81-6.04,23.95-8.18
		c19.6-5.15,38.77-11.38,56.87-20.57c3.61-1.84,6.94-2.36,11.34-0.72c-1.82,3.96-3.83,7.97-5.5,12.13
		c-1.18,2.94-2.47,6.03-2.67,9.12c-0.57,8.81-0.41,17.67-0.94,26.48c-0.21,3.5-1.2,6.73-5.17,8.68
		c-11.36,5.57-23.86,6.91-35.78,10.36c-4.91,1.42-9.98,2.59-14.54,4.79c-8.26,3.98-17.21,5.67-25.75,8.63
		C217.72,248.61,211.1,251.91,204.24,254.86z"/>
</g>
</svg>
