<?xml version="1.0" encoding="utf-8"?>
<!-- Generator: Adobe Illustrator 25.3.1, SVG Export Plug-In . SVG Version: 6.00 Build 0)  -->
<svg version="1.1" id="레이어_1" xmlns="http://www.w3.org/2000/svg" xmlns:xlink="http://www.w3.org/1999/xlink" x="0px"
	 y="0px" viewBox="0 0 289.44 330.72" style="enable-background:new 0 0 289.44 330.72;" xml:space="preserve">
<g>
	<path d="M161.31,133.69c5.93-10.69,12.68-20.84,17.43-31.86c8.02-18.61,19.14-35.17,30.68-51.59c3.49-4.96,6.41-10.32,9.92-16.03
		c16.95,9.77,32.34,20.71,45.95,35.47c-6.48,7.03-12.47,13.99-18.95,20.47c-11.98,11.97-24.25,23.66-36.41,35.45
		c-11.98,11.61-23.98,23.2-36.19,35.02C174.26,149.48,169.45,140.69,161.31,133.69z"/>
	<path d="M110.99,189.12c6.74,10.62,16.24,12.94,28.07,10.85c-3.61,4.38-7.31,8.71-10.83,13.17c-9.03,11.44-17.93,22.97-26.97,34.4
		c-10.2,12.9-20.49,25.73-30.76,38.57c-1.32,1.65-2.71,3.24-4.35,5.18c-11.08-12.43-23.6-22.57-40.73-27.91
		c6.31-6.28,11.74-12.45,17.93-17.73c15.67-13.34,31.7-26.24,47.53-39.38C97.6,200.71,104.16,194.96,110.99,189.12z"/>
	<path d="M111.73,155.36c0.97-9.51,5.14-14.67,14.34-16.15c8.72-1.41,17.31,0.27,25.03,4.11c11.77,5.86,14.7,21.03,6.92,32.14
		c-6.12,8.75-17.41,13.45-26.33,10.36c-3-1.04-5.96-3.24-8.02-5.68c-3.01-3.57-5.6-7.65-7.61-11.88
		C114.11,164.19,113.13,159.67,111.73,155.36z"/>
	<path d="M55.15,304.61c-7.36,9.47-15.54,17.96-26.22,23.54c-9.07,4.74-20.2,2.67-25.8-4.24c-4.09-5.04-3.33-10.87-2.39-16.46
		c1.44-8.62,6.61-18.53,12.32-25.41C29.73,284.53,42.66,293.9,55.15,304.61z"/>
	<path d="M230.99,20.52c1.48-0.95,2.96-1.9,4.44-2.86c6.78-4.41,13.51-8.9,20.35-13.22c6.14-3.87,12.97-4.85,20.09-4.31
		c0.49,0.04,1.11-0.04,1.46,0.21c3.06,2.29,6.84,4.12,8.92,7.11c2.91,4.19,3.63,9.35,2.97,14.67c-0.98,7.95-4.33,14.9-8.04,21.81
		c-1.56,2.91-2.49,6.15-3.9,9.73c-12.05-15.45-25.64-27.83-45.5-31.15C231.51,21.86,231.25,21.19,230.99,20.52z"/>
</g>
</svg>
