<?xml version="1.0" encoding="utf-8"?>
<!-- Generator: Adobe Illustrator 25.3.1, SVG Export Plug-In . SVG Version: 6.00 Build 0)  -->
<svg version="1.1" id="레이어_1" xmlns="http://www.w3.org/2000/svg" xmlns:xlink="http://www.w3.org/1999/xlink" x="0px"
	 y="0px" viewBox="0 0 330.3 249.97" style="enable-background:new 0 0 330.3 249.97;" xml:space="preserve">
<g>
	<path d="M224.47,219.61c-7.53-17.82-15.5-34.61-27.14-50.62c11.19-4.72,22.34-9.41,33.47-14.14c10.81-4.59,22.02-7.41,33.8-6.61
		c5.4,0.37,10.9,1.34,16.01,3.06c7.17,2.41,14.04,5.74,21.01,8.75c8.53,3.68,14.39,10.49,20.14,17.41
		c2.75,3.32,5.46,6.68,8.54,10.46c-1.6,1.39-3.88,3.05-5.78,5.07c-17.45,18.51-39.03,31.18-61.07,43.18
		c-3.57,1.95-7.56,3.23-11.46,4.47c-18.23,5.76-36.62,10.44-56.05,9.1c-12.55-0.87-25.17-0.87-37.71-1.89
		c-8.16-0.67-16.18-2.97-24.34-3.71c-23.61-2.12-47.03-5.58-70.18-10.56c-15.63-3.36-29.1-11.4-41.18-21.79
		c-1.23-1.05-2.46-2.11-3.77-3.06c-6.01-4.36-12.06-8.68-18.77-13.5c2.66-2.99,4.87-5.74,7.35-8.22c4.14-4.14,8.44-8.12,12.72-12.12
		c0.98-0.92,2.08-1.85,3.3-2.36c6.4-2.7,12.95-5.04,19.26-7.93c13.53-6.2,27.99-7.8,42.54-8.97c26.03-2.08,50.7,4.44,74.17,14.36
		c22.16,9.36,42.07,22.78,57.2,42.18c1.6,2.05,3.57,3.82,5.42,5.66C222.52,218.41,223.27,218.78,224.47,219.61z"/>
	<path d="M171.83,0c36.13-0.08,64.39,23.74,71.88,60.61c2.63,12.94,3.68,25.88,0.18,38.87c-1.92,7.11-5.21,13.51-10.11,18.95
		c-12.1,13.41-26.68,22.7-44.65,26.16c-1.22,0.24-2.47,0.43-3.65,0.82c-16.09,5.23-31.75,2.18-46.73-3.71
		c-17.67-6.94-28.36-21.19-34.57-38.55c-2.64-7.38-3.57-15.46-4.58-23.31c-0.79-6.14-1.47-12.56-0.53-18.6
		c3.5-22.43,15.03-39.76,34.91-51.19C145.68,3.32,158.33,0.05,171.83,0z M159.29,20.02c-0.14-0.42-0.28-0.83-0.42-1.25
		c-3.08,0.36-6.31,0.25-9.2,1.19c-6.01,1.95-12.93,3.19-17.48,7.06c-6.01,5.12-10.49,12.23-12.91,20.19
		c-5,16.45-3.06,32.49,3.05,48.19c3.04,7.83,8.6,11.27,16.86,11.16c3.76-0.05,4.72-1.25,4.58-5.06
		c-0.42-10.81-1.19-21.63-0.97-32.43c0.33-15.33,2.9-30.22,12.2-43.11C156.44,23.98,157.86,22,159.29,20.02z"/>
</g>
</svg>
