<?xml version="1.0" encoding="utf-8"?>
<!-- Generator: Adobe Illustrator 25.3.1, SVG Export Plug-In . SVG Version: 6.00 Build 0)  -->
<svg version="1.1" id="레이어_1" xmlns="http://www.w3.org/2000/svg" xmlns:xlink="http://www.w3.org/1999/xlink" x="0px"
	 y="0px" viewBox="0 0 333.83 332.89" style="enable-background:new 0 0 333.83 332.89;" xml:space="preserve">
<g>
	<path d="M276.09,332.89c-2.3-0.45-4.84-0.53-7.05-1.43c-31.75-13.05-64.66-22.43-97.83-31.01c-18.55-4.8-35.57-13.54-53.2-20.73
		c-26.39-10.77-53.75-18.2-82.03-22.02c-11.01-1.49-21.29-5.19-30.99-10.41c-1.96-1.05-3.38-3.47-4.54-5.54
		c-1.52-2.69,1.22-4.02,2.31-5.99c4.12-7.39,8.11-14.88,11.67-22.56c8.43-18.19,16.43-36.57,24.92-54.73
		c3.9-8.34,8.77-16.22,12.79-24.51c2.54-5.25,4.38-10.84,6.42-16.33c2.21-5.93,5.72-10.65,11.34-13.86c2.31-1.32,4-3.71,6.23-5.22
		c5.31-3.61,10.53-7.49,16.24-10.37c16.32-8.25,29.72-20.43,44.09-31.37c14.07-10.7,28.98-20.28,43.34-30.61
		c9.51-6.84,18.7-14.12,28-21.23c10.23-7.81,8.63-6.02,13.33,2.65c19.55,36.06,42.25,69.76,73.4,96.97
		c12.19,10.64,25.03,20.54,37.42,30.96c1.2,1.01,2.16,3.55,1.79,5.03c-5.22,20.88-10.41,41.78-16.17,62.53
		c-9.22,33.23-18.63,66.41-28.49,99.45c-2.36,7.9-6.83,15.17-10.24,22.77C277.84,327.57,277.14,329.97,276.09,332.89z M10.74,238.89
		c2.19-0.5,3.38-0.76,4.56-1.05c21.66-5.27,39.44-18.14,57.91-29.63c4.32-2.69,8.65-5.5,12.44-8.86c4.12-3.65,8.62-3.82,13.27-2.5
		c10.76,3.07,21.33,6.82,32.14,9.66c7.43,1.95,15.11,3,22.73,4.12c14.78,2.18,29.6,4.08,44.39,6.2c3.51,0.5,6.79,1.72,8.83,4.99
		c3.22,5.18,6.51,10.32,9.65,15.55c3.33,5.55,6.24,11.38,9.84,16.74c13.59,20.26,27.38,40.38,41.11,60.55
		c0.06,0.09,0.32,0.03,0.58,0.05c-2.3-7.3-4.21-14.66-6.92-21.71c-4.94-12.9-10.2-25.68-15.62-38.39
		c-3.6-8.45-7.68-16.7-11.59-25.02c-3.12-6.64-6.64-13.12-9.38-19.91c-2.36-5.84-1.57-7.5,2.78-10.95c0.58-0.46,0.98-1.14,1.55-1.62
		c2.59-2.14,4.95-4.71,7.85-6.29c12.9-7.03,25.97-13.74,38.94-20.63c11.2-5.95,22.42-11.87,33.5-18.06
		c2.82-1.58,5.13-4.09,7.98-6.42c-5.04-4.81-9.43-9.42-14.25-13.54c-24.78-21.17-48.55-43.35-69.37-68.53
		c-8.85-10.71-17.49-21.58-24.77-33.45c-1.73-2.81-3.96-3.23-6.52-1.05c-2.56,2.18-4.87,4.66-7.47,6.79
		c-28.57,23.48-58.71,44.68-91.35,62.2c-5.21,2.8-10.08,6.22-15.68,9.71c8.45,2.07,16.17,3.96,23.89,5.87
		c17.54,4.32,35.07,8.62,53.22,9.76c11.06,0.69,22.23,1.15,33.11,3.05c17.9,3.12,35.63,7.19,53.38,11.14
		c9.22,2.05,18.32,4.66,27.44,7.15c1.48,0.4,2.78,1.48,5.1,2.75c-1.89,0.59-2.55,1-3.19,0.96c-6.46-0.41-12.97-0.54-19.38-1.41
		c-19.48-2.66-38.93-5.64-58.39-8.47c-18.36-2.67-36.75-5.18-55.09-8.01c-20.43-3.14-40.81-6.55-61.21-9.87
		c-4.07-0.66-8.13-1.43-12.29-2.16c1.06,4.3,2.4,8.11,2.89,12.02c0.99,7.9,1.41,15.88,2.28,23.8c0.84,7.62-0.9,14.27-6.36,19.84
		c-8.64,8.79-16.61,18.38-25.99,26.28C33.95,211.8,23.53,225.63,10.74,238.89z"/>
</g>
</svg>
